<?xml version="1.0" encoding="UTF-8"?>
<svg width="40px" height="40px" viewBox="0 0 40 40" version="1.1" xmlns="http://www.w3.org/2000/svg" xmlns:xlink="http://www.w3.org/1999/xlink">
    <title>今日用餐量</title>
    <g id="后台" stroke="none" stroke-width="1" fill="none" fill-rule="evenodd">
        <g id="web--用餐管理" transform="translate(-967.000000, -164.000000)">
            <g id="今日用餐量" transform="translate(967.000000, 164.000000)">
                <circle id="椭圆形" fill="#F1FAEA" cx="20" cy="20" r="20"></circle>
                <g id="overtimemeal" transform="translate(10.000000, 10.000000)" fill="#88BF5F" fill-rule="nonzero">
                    <rect id="矩形" opacity="0" x="0" y="0" width="20" height="20"></rect>
                    <path d="M5.7675,10.5575 C6.08625,13.985 6.28125,17.495 6.28125,17.98625 C6.29846963,18.6386103 5.96027976,19.2489222 5.39801453,19.5801747 C4.8357493,19.9114272 4.1380007,19.9114272 3.57573547,19.5801747 C3.01347024,19.2489222 2.67528037,18.6386103 2.6925,17.98625 C2.6925,17.49625 2.88875,13.985 3.20875,10.5575 C1.3575,9.89375 0,7.8575 0,5.4225 C0,2.45 2.00875,0.0375 4.4875,0.0375 C6.965,0.0375 8.975,2.45 8.975,5.4225 C8.975,7.8575 7.6175,9.89375 5.7675,10.5575 Z M20,5.385 L19.99625,5.385 L20,5.4225 C20,7.8575 18.6425,9.89375 16.79125,10.5575 C17.11125,13.985 17.3075,17.495 17.3075,17.98625 C17.2818283,18.9588135 16.4860273,19.7338859 15.513125,19.7338859 C14.5402227,19.7338859 13.7444217,18.9588135 13.71875,17.98625 C13.71875,17.49625 13.91375,13.985 14.2325,10.5575 C12.3825,9.89375 11.02625,7.86 11.02625,5.4225 L11.02875,5.385 L11.02625,5.385 L11.02625,0 L12.82,0 L12.82,4.525 C12.82,5.02067555 13.2218245,5.42249996 13.7175,5.42249996 C14.2131755,5.42249996 14.615,5.02067555 14.615,4.525 L14.615,0 L16.41,0 L16.41,4.525 C16.41,5.02067556 16.8118244,5.4225 17.3075,5.4225 C17.8031756,5.4225 18.205,5.02067556 18.205,4.525 L18.205,0 L20,0 L20,5.385 Z" id="形状"></path>
                </g>
            </g>
        </g>
    </g>
</svg>