<?xml version="1.0" encoding="UTF-8"?>
<svg width="40px" height="40px" viewBox="0 0 40 40" version="1.1" xmlns="http://www.w3.org/2000/svg" xmlns:xlink="http://www.w3.org/1999/xlink">
    <title>累计用餐</title>
    <g id="后台" stroke="none" stroke-width="1" fill="none" fill-rule="evenodd">
        <g id="web--用餐管理" transform="translate(-1170.000000, -164.000000)">
            <g id="累计用餐" transform="translate(1170.000000, 164.000000)">
                <circle id="椭圆形" fill="#FDF5F8" cx="20" cy="20" r="20"></circle>
                <g id="直播人数" transform="translate(10.000000, 10.000000)" fill="#D56B9B" fill-rule="nonzero">
                    <rect id="矩形" opacity="0" x="0" y="0" width="20" height="20"></rect>
                    <path d="M4.27271484,5.71189453 C4.27271484,7.86224609 6.01707031,9.60662109 8.16744141,9.60662109 C10.3178125,9.60662109 12.0649609,7.86224609 12.0649609,5.71189453 C12.0649609,3.56154297 10.3205859,1.81716797 8.16744141,1.81716797 C6.01429688,1.81716797 4.27271484,3.55873047 4.27271484,5.71189453 Z M10.035,9.8278125 L6.97464844,9.8278125 C3.42712891,9.8278125 0.554394531,12.7005469 0.554394531,16.2452734 C0.554394531,17.3148633 1.42236328,18.182832 2.49474609,18.1856445 L14.148125,18.1856445 C14.9881055,18.1856445 15.6712891,17.5052539 15.6712891,16.6624609 L15.6712891,15.4612891 C15.6684961,12.3533594 13.1457422,9.8278125 10.035,9.8278125 Z M12.5633398,5.68109375 C12.5661523,6.66947266 12.2105469,7.62705078 11.5665625,8.38023437 C11.4937695,8.46421875 11.4965625,8.59023437 11.5749609,8.67142578 C12.7145508,9.85019531 14.5905078,9.88099609 15.7692969,8.74421875 C16.3544727,8.17863281 16.6792578,7.40025391 16.6736719,6.58826172 C16.6624609,4.97830078 15.3520898,3.65953125 13.7421289,3.64273437 C13.3025391,3.63712891 12.8685352,3.72953125 12.470957,3.91431641 C12.33375,3.97591797 12.2665625,4.13271484 12.3169531,4.27550781 C12.4827699,4.72545334 12.5662298,5.20157543 12.5633398,5.68109375 L12.5633398,5.68109375 Z M14.2405078,10.0574023 L13.3837305,10.0574023 C13.2885352,10.0574023 13.2129297,10.1329883 13.2101367,10.2282031 C13.2101367,10.2897852 13.2409375,10.3457812 13.2941211,10.3766016 C15.0636914,11.4237695 16.1444727,13.3249414 16.1444727,15.3800977 L16.1444727,16.6176758 C16.1444727,16.939668 16.0464844,17.2532617 15.8616797,17.5164453 C15.8084766,17.5920312 15.825293,17.6984375 15.9008789,17.7544531 C15.9295819,17.7745981 15.96382,17.7853581 15.9988867,17.7852547 L18.0400391,17.7852547 C18.815625,17.7852547 19.4456055,17.1552539 19.4456055,16.379668 L19.4456055,15.2708789 C19.4456055,12.3897461 17.1132617,10.0574023 14.2405273,10.0574023 L14.2405078,10.0574023 Z" id="形状"></path>
                </g>
            </g>
        </g>
    </g>
</svg>