<svg 
 xmlns="http://www.w3.org/2000/svg"
 xmlns:xlink="http://www.w3.org/1999/xlink"
 width="28px" height="26px">
<path fill-rule="evenodd"  fill="rgb(190, 190, 200)"
 d="M21.589,21.590 C20.700,22.490 19.480,23.000 18.210,23.000 L4.790,23.000 C3.520,23.000 2.300,22.490 1.410,21.590 C0.509,20.700 -0.000,19.480 -0.000,18.210 L-0.000,4.790 C-0.000,3.520 0.509,2.300 1.410,1.410 C2.300,0.510 3.520,-0.000 4.790,-0.000 L18.210,-0.000 C19.480,-0.000 20.700,0.510 21.589,1.410 C22.489,2.300 23.000,3.520 23.000,4.790 L23.000,18.210 C23.000,19.480 22.489,20.700 21.589,21.590 ZM1.920,18.210 C1.920,18.970 2.219,19.700 2.760,20.240 C3.300,20.780 4.030,21.080 4.790,21.080 L18.210,21.080 C18.640,21.080 19.059,20.980 19.440,20.800 L10.660,12.010 C10.390,11.750 10.069,11.530 9.730,11.390 C9.380,11.250 9.000,11.170 8.630,11.170 C8.250,11.170 7.870,11.250 7.519,11.390 C7.179,11.530 6.860,11.750 6.590,12.010 L1.920,16.690 L1.920,18.210 ZM21.080,4.790 C21.080,4.030 20.779,3.300 20.240,2.760 C19.700,2.220 18.970,1.920 18.210,1.920 L4.790,1.920 C4.030,1.920 3.300,2.220 2.760,2.760 C2.219,3.300 1.920,4.030 1.920,4.790 L1.920,13.980 L5.240,10.660 C5.680,10.210 6.210,9.860 6.789,9.620 C7.370,9.380 7.999,9.250 8.630,9.250 C9.259,9.250 9.880,9.380 10.459,9.620 C11.040,9.860 11.569,10.210 12.010,10.660 L20.799,19.440 C20.980,19.060 21.080,18.640 21.080,18.210 L21.080,4.790 ZM17.200,9.490 C16.649,9.860 16.000,10.060 15.340,10.060 C14.450,10.060 13.590,9.710 12.960,9.080 C12.330,8.450 11.980,7.590 11.980,6.710 C11.980,6.040 12.179,5.390 12.550,4.840 C12.909,4.290 13.439,3.860 14.050,3.610 C14.659,3.350 15.340,3.280 15.990,3.410 C16.639,3.540 17.240,3.860 17.710,4.330 C18.179,4.800 18.500,5.400 18.630,6.050 C18.760,6.700 18.690,7.380 18.430,7.990 C18.179,8.600 17.750,9.130 17.200,9.490 ZM16.659,6.150 C16.550,5.890 16.370,5.670 16.130,5.510 C15.900,5.350 15.620,5.270 15.340,5.270 C14.950,5.270 14.589,5.420 14.320,5.690 C14.050,5.960 13.900,6.320 13.900,6.710 C13.900,6.990 13.980,7.270 14.140,7.500 C14.300,7.740 14.519,7.920 14.780,8.030 C15.049,8.140 15.340,8.170 15.620,8.120 C15.890,8.060 16.150,7.920 16.350,7.720 C16.550,7.520 16.690,7.260 16.749,6.990 C16.800,6.710 16.770,6.420 16.659,6.150 Z"/>
<path fill-rule="evenodd"  fill="rgb(255, 255, 255)"
 d="M14.999,13.000 L23.000,13.000 L23.000,23.000 L14.999,23.000 L14.999,13.000 Z"/>
<path fill-rule="evenodd"  fill="rgb(190, 190, 200)"
 d="M22.710,14.290 C22.519,14.110 22.270,14.000 21.999,14.000 C21.729,14.000 21.480,14.110 21.289,14.290 C21.110,14.480 21.000,14.730 21.000,15.000 L21.000,19.000 L17.000,19.000 C16.729,19.000 16.480,19.110 16.290,19.290 C16.109,19.480 16.000,19.730 16.000,20.000 C16.000,20.270 16.109,20.520 16.290,20.710 C16.480,20.890 16.729,21.000 17.000,21.000 L21.000,21.000 L21.000,25.000 C21.000,25.270 21.110,25.520 21.289,25.710 C21.480,25.890 21.729,26.000 21.999,26.000 C22.270,26.000 22.519,25.890 22.710,25.710 C22.890,25.520 23.000,25.270 23.000,25.000 L23.000,21.000 L26.999,21.000 C27.270,21.000 27.520,20.890 27.710,20.710 C27.889,20.520 28.000,20.270 28.000,20.000 C28.000,19.730 27.889,19.480 27.710,19.290 C27.520,19.110 27.270,19.000 26.999,19.000 L23.000,19.000 L23.000,15.000 C23.000,14.730 22.890,14.480 22.710,14.290 Z"/>
</svg>
