<svg xmlns="http://www.w3.org/2000/svg" xmlns:xlink="http://www.w3.org/1999/xlink" fill="" version="1.1" width="21" height="19.499996185302734" viewBox="0 0 21 19.499996185302734"><g><path d="M19.5,0L1.5,0C0.675,0,0,0.675,0,1.5L0,16.5C0,17.325,0.675,18,1.5,18L9.375,18C9.225,17.55,9.15,17.025,9.075,16.5L2.25,16.5C1.8,16.5,1.5,16.125,1.5,15.75L1.5,2.25C1.5,1.875,1.8,1.5,2.25,1.5L18.75,1.5C19.2,1.5,19.5,1.875,19.5,2.25L19.5,8.85C20.025,9.075,20.55,9.375,21,9.75L21,1.5C21,0.675,20.325,0,19.5,0ZM3.75,15.75L2.25,15.75C2.25,13.35,3.675,11.25,5.85,10.275C5.025,9.6,4.575,8.625,4.575,7.5C4.575,5.4,6.225,3.75,8.325,3.75C10.425,3.75,12.075,5.4,12.075,7.5C12.075,8.625,11.55,9.6,10.8,10.275C10.875,10.35,11.025,10.425,11.175,10.5C10.8,10.875,10.5,11.25,10.2,11.7C9.6,11.4,8.925,11.25,8.25,11.25C5.775,11.25,3.75,13.275,3.75,15.75ZM14.25,5.25L18,5.25C18.45,5.25,18.75,4.95,18.75,4.5C18.75,4.05,18.45,3.75,18,3.75L14.25,3.75C13.8,3.75,13.5,4.05,13.5,4.5C13.5,4.95,13.8,5.25,14.25,5.25ZM10.5,7.5C10.5,6.225,9.525,5.25,8.25,5.25C6.975,5.25,6,6.225,6,7.5C6,8.775,6.975,9.75,8.25,9.75C9.525,9.75,10.5,8.775,10.5,7.5ZM14.25,8.25L16.5,8.25C16.95,8.25,17.25,7.95,17.25,7.5C17.25,7.05,16.95,6.75,16.5,6.75L14.25,6.75C13.8,6.75,13.5,7.05,13.5,7.5C13.5,7.95,13.8,8.25,14.25,8.25ZM19.35,12C19.65,12.45,20.1,12.825,20.7,12.975C20.775,13.05,20.85,13.125,20.85,13.2C21,13.95,21,14.625,20.85,15.3C20.775,15.45,20.7,15.525,20.625,15.525C20.1,15.6,19.575,15.975,19.275,16.5C18.975,16.95,18.9,17.625,19.125,18.15C19.2,18.3,19.125,18.375,19.05,18.45C18.525,18.9,17.925,19.275,17.25,19.5C17.1,19.5,17.025,19.5,16.95,19.425C16.5,18.975,15.975,18.75,15.375,18.75C14.775,18.75,14.175,18.975,13.8,19.425C13.725,19.5,13.65,19.5,13.575,19.5L13.5,19.5C12.825,19.275,12.225,18.9,11.7,18.45C11.625,18.375,11.625,18.225,11.625,18.15C11.775,17.625,11.7,17.025,11.4,16.5C11.1,15.975,10.65,15.675,10.05,15.525C9.9,15.45,9.825,15.375,9.825,15.3C9.675,14.55,9.675,13.875,9.825,13.2C9.9,13.05,9.975,12.975,10.05,12.975C10.575,12.9,11.1,12.525,11.4,12C11.7,11.475,11.775,10.875,11.625,10.35C11.55,10.2,11.625,10.125,11.7,10.05C12.225,9.6,12.825,9.225,13.5,9C13.575,9,13.725,9,13.8,9.075C14.25,9.525,14.775,9.75,15.375,9.75C15.975,9.75,16.575,9.525,16.95,9.075C17.025,9,17.175,9,17.25,9C17.925,9.225,18.525,9.6,19.05,10.05C19.125,10.125,19.125,10.275,19.125,10.35C18.975,10.875,19.05,11.475,19.35,12ZM18.15,15.825C18.45,15.375,18.9,15,19.425,14.85C19.5,14.475,19.5,14.025,19.425,13.575C18.9,13.425,18.45,13.05,18.15,12.6C17.85,12.15,17.775,11.625,17.925,11.1C17.55,10.875,17.175,10.65,16.8,10.5C16.35,10.875,15.825,11.1,15.3,11.1C14.7,11.1,14.175,10.875,13.8,10.5C13.35,10.65,12.975,10.8,12.675,11.1C12.825,11.55,12.75,12.15,12.45,12.6C12.15,13.05,11.7,13.425,11.175,13.575C11.1,14.025,11.1,14.4,11.175,14.85C11.7,15,12.15,15.375,12.45,15.825C12.75,16.275,12.825,16.8,12.675,17.325C13.05,17.55,13.425,17.775,13.8,17.925C14.25,17.55,14.775,17.325,15.3,17.325C15.9,17.325,16.425,17.55,16.8,17.925C17.25,17.775,17.625,17.625,17.925,17.325C17.775,16.875,17.85,16.275,18.15,15.825ZM15.375,11.625C13.95,11.625,12.75,12.825,12.75,14.25C12.75,15.675,13.95,16.875,15.375,16.875C16.8,16.875,18,15.675,18,14.25C18,13.575,17.7,12.9,17.25,12.375C16.725,11.925,16.05,11.625,15.375,11.625ZM15.375,15.375C14.775,15.375,14.25,14.85,14.25,14.25C14.25,13.65,14.775,13.125,15.375,13.125C15.675,13.125,15.975,13.275,16.2,13.425C16.425,13.575,16.5,13.95,16.5,14.25C16.5,14.85,15.975,15.375,15.375,15.375Z" fill-rule="evenodd" fill="" fill-opacity="1"/></g></svg>