<svg xmlns="http://www.w3.org/2000/svg" xmlns:xlink="http://www.w3.org/1999/xlink" fill="" version="1.1" width="48" height="31" viewBox="0 0 48 31"><g><g><path d="M23.1685,30.757C23.3915,30.912,23.6921,31,24.0024,31C24.3127,31,24.6133,30.912,24.8363,30.757M24.8412,30.757L47.2884,15.1432C48.2775,14.4566,48.2144,13.3157,47.2303,12.6325C46.2461,11.9494,44.6558,11.9458,43.6717,12.629L24.0073,26.2919L4.34773,12.629C3.3587,11.9423,1.76848,11.9494,0.789139,12.6325C-0.199898,13.3121,-0.262924,14.4566,0.726113,15.1397L23.1734,30.7535L24.8412,30.7535L24.8412,30.757ZM23.154,18.64C23.377,18.7949,23.6776,18.8794,23.9879,18.8794C24.2982,18.8794,24.5988,18.7914,24.8218,18.64M24.8266,18.64L47.2739,3.02619C48.2629,2.33952,48.1999,1.1986,47.2157,0.51545C46.2315,-0.167697,44.6413,-0.171219,43.6571,0.511928L23.9927,14.1749L4.32834,0.511928C3.3393,-0.174741,1.74909,-0.167698,0.769746,0.515449C-0.214442,1.1986,-0.277469,2.34304,0.711568,3.02619L23.1588,18.64L24.8266,18.64Z" fill="" fill-opacity=""/></g></g></svg>