<?xml version="1.0" encoding="utf-8"?>
<!-- Generator: Adobe Illustrator 26.0.0, SVG Export Plug-In . SVG Version: 6.00 Build 0)  -->
<svg version="1.1" id="选中" xmlns="http://www.w3.org/2000/svg" xmlns:xlink="http://www.w3.org/1999/xlink" x="0px" y="0px"
	 viewBox="0 0 21 21" style="enable-background:new 0 0 21 21;" xml:space="preserve">
<style type="text/css">
	.st0{fill:#FFFFFF;}
</style>
<path class="st0" d="M13.5,2.5h-6c-2.8,0-5,2.2-5,5v6c0,2.8,2.2,5,5,5h6c2.8,0,5-2.2,5-5v-6C18.5,4.7,16.3,2.5,13.5,2.5z M15.4,8.1
	l-6.1,6.3l-0.1,0.1c-0.2,0.1-0.4,0.1-0.6-0.1L5.6,11c-0.2-0.2-0.2-0.5,0-0.7c0.2-0.1,0.5-0.1,0.8,0l2.5,1.9l6.1-4.7
	c0.2-0.1,0.3-0.1,0.5,0.1c0,0,0,0,0.1,0.1C15.5,7.8,15.5,8,15.4,8.1z"/>
</svg>
