<svg xmlns="http://www.w3.org/2000/svg" xmlns:xlink="http://www.w3.org/1999/xlink" fill="" version="1.1" width="22.000001907348633" height="22.00000762939453" viewBox="0 0 22.000001907348633 22.00000762939453"><g><path d="M5.13333,3.66667C5.13333,4.07168,5.46166,4.4,5.86667,4.4C6.27168,4.4,6.6,4.07168,6.6,3.66667L6.6,0.733333C6.6,0.328325,6.27168,0,5.86667,0C5.46166,0,5.13333,0.328325,5.13333,0.733333L5.13333,3.66667ZM15.4,3.66667C15.4,4.07168,15.7283,4.4,16.1333,4.4C16.5383,4.4,16.8667,4.07168,16.8667,3.66667L16.8667,0.733333C16.8667,0.328325,16.5383,0,16.1333,0C15.7283,0,15.4,0.328325,15.4,0.733333L15.4,3.66667ZM8.06667,2.93333L13.9333,2.93333C14.3383,2.93333,14.6667,2.60501,14.6667,2.2C14.6667,1.79499,14.3383,1.46667,13.9333,1.46667L8.06667,1.46667C7.66166,1.46667,7.33333,1.79499,7.33333,2.2C7.33333,2.60501,7.66166,2.93333,8.06667,2.93333ZM19.8,22L2.2,22C0.985544,21.9986,0.00137613,21.0145,0,19.8L0,3.66667C0.00137613,2.45222,0.985544,1.46805,2.2,1.46667L3.66676,1.46667C4.07177,1.46667,4.40009,1.795,4.40009,2.20001C4.40009,2.60502,4.07176,3.26666,3.66675,3.26666L2.5,3.26666C2.09518,3.26712,1.76706,3.59518,1.7666,4L1.7666,6.6L20.2334,6.6L20.2334,4C20.2329,3.59518,19.9048,3.26712,19.5,3.26666Q19.0952,3.26621,18.3335,3.26666C17.9285,3.26666,17.6,2.60502,17.6,2.20001C17.6,1.795,17.9284,1.46667,18.3334,1.46667L19.8,1.46667C21.0145,1.46805,21.9986,2.45222,22,3.66667L22,19.8C21.9986,21.0145,21.0145,21.9986,19.8,22ZM20.2334,8.5L20.2334,19.5C20.2329,19.9048,19.9048,20.2329,19.5,20.2333L2.5,20.2333C2.09518,20.2329,1.76706,19.9048,1.7666,19.5L1.7666,8.5L20.2334,8.5ZM9.5333,18.3334C9.33876,18.3336,9.15213,18.2563,9.01475,18.1186L5.34808,14.4519C5.0617,14.1655,5.06171,13.7012,5.3481,13.4148C5.63449,13.1284,6.09882,13.1284,6.3852,13.4148L9.5333,16.5629L15.6147,10.4815C15.9012,10.1955,16.3652,10.1956,16.6514,10.4819C16.9377,10.7681,16.9379,11.2321,16.6519,11.5186L10.0519,18.1186C9.91447,18.2563,9.72785,18.3336,9.5333,18.3334Z" fill-rule="evenodd" fill="" fill-opacity="1"/></g></svg>