<svg xmlns="http://www.w3.org/2000/svg" xmlns:xlink="http://www.w3.org/1999/xlink" fill="none" version="1.1" width="12.690673828125" height="12" viewBox="0 0 12.690673828125 12"><g><g><path d="M5.909302370605468,0.09735581469726562L0.5870983706054688,2.605233814697266C0.22414937060546875,2.7762338146972656,-0.00536670939453125,3.1435838146972657,0.00008751160546875,3.5447638146972658C0.00554173060546875,3.945933814697266,0.24495937060546874,4.306913814697266,0.6124223706054688,4.4679838146972655L5.934632370605469,6.8008938146972655C6.196482370605469,6.915683814697266,6.494412370605469,6.915683814697266,6.7562623706054685,6.8008938146972655L12.078492370605469,4.467213814697265C12.445892370605469,4.306093814697266,12.685292370605469,3.9450838146972655,12.690692370605468,3.5439138146972655C12.696092370605468,3.1427338146972654,12.466492370605469,2.7754238146972656,12.10349237060547,2.6044638146972656L6.781332370605469,0.09761211469726562C6.505132370605469,-0.032532385302734376,6.185242370605469,-0.032532385302734376,5.909052370605469,0.09761211469726562L5.909302370605468,0.09735581469726562ZM1.0232423706054687,3.5307238146972657L6.345442370605468,1.0231038146972655L11.66739237060547,3.5299538146972655L6.345192370605469,5.863633814697265L1.0232423706054687,3.5307238146972657ZM11.66659237060547,8.683333814697265C11.92039237060547,8.573983814697266,12.215092370605468,8.685843814697266,12.332392370605469,8.936003814697266C12.449592370605469,9.186173814697266,12.347092370605468,9.484253814697265,12.100692370605469,9.609333814697266L12.064692370605469,9.626223814697266L6.536782370605469,11.959603814697266C6.4242423706054685,12.007203814697265,6.298382370605469,12.012903814697266,6.181992370605469,11.975803814697265L6.139012370605469,11.959603814697266L0.6113993706054688,9.626733814697266C0.35824837060546877,9.519843814697266,0.23475037060546874,9.232063814697266,0.33168837060546874,8.974943814697266C0.42862637060546876,8.717813814697266,0.7113703706054687,8.583193814697266,0.9720793706054688,8.670033814697266L1.0094223706054688,8.684103814697266L6.337772370605469,10.933103814697265L11.66659237060547,8.683333814697265Z" fill="#FFFFFF" fill-opacity="1"/></g><g><path d="M11.554122795677186,6.085126876831055L6.435752795677185,8.387856876831055L1.322022795677185,6.090242826831055L1.322022795677185,6.917760876831054C1.322022795677185,7.119586876831055,1.438156795677185,7.302226876831055,1.617473795677185,7.381276876831055L5.907012795677185,9.284436876831055C6.0710727956771855,9.366926876831055,6.252112795677185,9.410016876831055,6.435752795677185,9.410286876831055C6.6163527956771855,9.410286876831055,6.796682795677185,9.368336876831055,6.964752795677185,9.284436876831055L11.258892795677186,7.377176876831054C11.439922795677186,7.294276876831055,11.555522795677184,7.1128168768310545,11.554122795677186,6.913667876831054L11.554122795677186,6.085126876831055Z" fill="#FFFFFF" fill-opacity="1"/></g></g></svg>