<?xml version="1.0" standalone="no"?><!DOCTYPE svg PUBLIC "-//W3C//DTD SVG 1.1//EN" "http://www.w3.org/Graphics/SVG/1.1/DTD/svg11.dtd"><svg t="1666855700682" class="icon" viewBox="0 0 1024 1024" version="1.1" xmlns="http://www.w3.org/2000/svg" p-id="7592" xmlns:xlink="http://www.w3.org/1999/xlink" width="128" height="128"><path d="M531.626667 72.192L200.533333 355.072c-10.965333 9.386667-18.133333 22.442667-20.053333 36.736l-40.96 300.544a58.794667 58.794667 0 0 0 61.525333 66.645333l303.616-16.64c14.890667-0.853333 28.885333-7.253333 39.210667-18.005333l318.72-331.861333a58.837333 58.837333 0 0 0-2.389333-83.2l-250.154667-235.221334a58.794667 58.794667 0 0 0-78.464-1.877333z m37.76 60.458667l233.770666 219.818666-306.986666 319.658667-284.8 15.616 38.4-281.984 319.616-273.109333zM193.152 839.466667l596.266667 1.28a33.92 33.92 0 0 1 4.096 67.584l-4.266667 0.256-596.266667-1.28a33.92 33.92 0 0 1-4.096-67.584l4.266667-0.256z" fill="" p-id="7593"></path></svg>