<svg xmlns="http://www.w3.org/2000/svg" xmlns:xlink="http://www.w3.org/1999/xlink" fill="" version="1.1" width="22" height="19.503000259399414" viewBox="0 0 22 19.503000259399414"><g><path d="M11.5828,6.292L13.519,6.292C13.849,6.292,14.124,6.017,14.124,5.676L14.124,0.605C14.124,0.275,13.86,0,13.519,0L8.437,0C8.107,0,7.832,0.264,7.832,0.605L7.832,5.687C7.832,6.017,8.096,6.292,8.437,6.292L10.3728,6.292L10.3728,9.14105L3.157,9.14105C2.827,9.14105,2.552,9.40505,2.552,9.74605L2.552,13.211L0.605,13.211C0.275,13.211,0,13.475,0,13.816L0,18.898C0,19.228,0.264,19.503,0.605,19.503L5.687,19.503C6.028,19.503,6.303,19.228,6.292,18.898L6.292,13.816C6.292,13.486,6.028,13.211,5.687,13.211L3.762,13.211L3.762,10.3621L10.3728,10.3621L10.3728,13.211L8.437,13.211C8.107,13.211,7.832,13.475,7.832,13.816L7.832,18.898C7.832,19.228,8.096,19.503,8.437,19.503L13.519,19.503C13.849,19.503,14.124,19.228,14.124,18.898L14.124,13.816C14.124,13.486,13.86,13.211,13.519,13.211L11.5828,13.211L11.5828,10.3621L18.249,10.3621L18.249,13.211L16.313,13.211C15.983,13.211,15.708,13.475,15.708,13.816L15.708,18.898C15.708,19.228,15.972,19.503,16.313,19.503L21.395,19.503C21.725,19.503,22,19.228,22,18.898L22,13.816C22,13.486,21.736,13.211,21.395,13.211L19.459,13.211L19.459,9.74605C19.459,9.41605,19.195,9.14105,18.854,9.14105L11.5828,9.14105L11.5828,6.292ZM10.9823,5.071L12.903,5.071L12.903,1.21L9.042,1.21L9.042,5.071L10.9733,5.071L10.9778,5.07098L10.9823,5.071ZM18.8459,14.421L18.854,14.4211L18.8619,14.421L20.779,14.421L20.779,18.282L16.918,18.282L16.918,14.421L18.8459,14.421ZM3.14911,14.421L3.157,14.4211L3.16506,14.421L5.082,14.421L5.082,18.282L1.221,18.282L1.221,14.421L3.14911,14.421ZM12.903,14.421L12.903,18.282L9.042,18.282L9.042,14.421L12.903,14.421Z" fill-rule="evenodd" fill="" fill-opacity="1"/></g></svg>