<?xml version="1.0" standalone="no"?><!DOCTYPE svg PUBLIC "-//W3C//DTD SVG 1.1//EN" "http://www.w3.org/Graphics/SVG/1.1/DTD/svg11.dtd"><svg t="1735113447679" class="icon" viewBox="0 0 1024 1024" version="1.1" xmlns="http://www.w3.org/2000/svg" p-id="7834" xmlns:xlink="http://www.w3.org/1999/xlink" width="200" height="200"><path d="M347.501714 591.530667c21.650286 13.165714 45.129143 23.576381 69.973334 30.793143L219.428571 853.333333h311.417905l0.828953 1.511619L573.025524 926.47619H219.428571a73.142857 73.142857 0 0 1-55.539809-120.734476l183.612952-214.211047zM499.248762 97.52381c134.656 0 243.809524 109.153524 243.809524 243.809523s-109.153524 243.809524-243.809524 243.809524-243.809524-109.153524-243.809524-243.809524 109.153524-243.809524 243.809524-243.809523z m0 73.142857a170.666667 170.666667 0 1 0 0 341.333333 170.666667 170.666667 0 0 0 0-341.333333z m288.426667 463.238095a73.142857 73.142857 0 0 1 63.366095 36.571428l43.081143 74.654477a73.142857 73.142857 0 0 1 0 73.142857l-43.081143 74.654476a73.142857 73.142857 0 0 1-63.366095 36.571429h-86.186667a73.142857 73.142857 0 0 1-63.366095-36.571429l-43.081143-74.654476a73.142857 73.142857 0 0 1 0-73.142857l43.081143-74.654477a73.142857 73.142857 0 0 1 63.366095-36.571428h86.186667z m0 73.142857h-86.186667l-43.105524 74.654476 43.105524 74.654476h86.186667l43.105523-74.654476L787.675429 707.047619z m-44.617143 37.205333a36.571429 36.571429 0 1 1 0 73.142858 36.571429 36.571429 0 0 1 0-73.142858z" p-id="7835"></path></svg>