<svg 
 xmlns="http://www.w3.org/2000/svg"
 xmlns:xlink="http://www.w3.org/1999/xlink"
 width="34px" height="34px">
<path fill-rule="evenodd"  fill="rgb(253, 233, 233)"
 d="M5.999,-0.000 L27.999,-0.000 C31.313,-0.000 33.999,2.686 33.999,6.000 L33.999,28.000 C33.999,31.313 31.313,34.000 27.999,34.000 L5.999,34.000 C2.686,34.000 -0.001,31.313 -0.001,28.000 L-0.001,6.000 C-0.001,2.686 2.686,-0.000 5.999,-0.000 Z"/>
<path fill-rule="evenodd"  fill="rgb(199, 58, 58)"
 d="M26.179,11.500 L24.731,11.500 L24.731,23.343 C24.730,25.362 23.125,26.999 21.146,27.000 L12.852,27.000 C12.851,27.000 12.850,27.000 12.850,27.000 C10.868,26.997 9.264,25.357 9.267,23.336 L9.267,11.493 L7.819,11.493 C7.366,11.492 7.000,11.118 7.000,10.657 C6.999,10.195 7.366,9.820 7.819,9.820 L13.414,9.820 L13.414,9.245 C13.416,8.005 14.402,7.001 15.618,6.999 L18.373,6.999 C19.591,6.997 20.582,8.002 20.584,9.245 L20.584,9.827 L26.179,9.827 C26.179,9.827 26.179,9.827 26.180,9.827 C26.632,9.827 26.999,10.202 26.999,10.664 C26.999,11.126 26.632,11.500 26.179,11.500 ZM18.942,9.245 C18.942,9.244 18.942,9.243 18.942,9.242 C18.939,8.925 18.685,8.669 18.373,8.672 L15.620,8.672 C15.309,8.672 15.057,8.928 15.056,9.245 L15.056,9.820 L18.942,9.820 L18.942,9.245 ZM23.089,11.512 L10.911,11.512 L10.911,23.355 L10.909,23.343 C10.909,23.346 10.909,23.349 10.909,23.353 C10.908,24.449 11.777,25.338 12.852,25.339 L21.146,25.339 C22.219,25.338 23.089,24.450 23.089,23.355 L23.089,11.512 ZM20.224,21.830 C19.771,21.830 19.404,21.456 19.404,20.994 L19.404,14.886 C19.404,14.424 19.771,14.050 20.224,14.050 C20.677,14.050 21.044,14.424 21.044,14.886 L21.044,20.994 C21.044,21.456 20.677,21.830 20.224,21.830 ZM16.999,22.770 C16.546,22.770 16.179,22.396 16.179,21.934 L16.179,13.958 C16.179,13.958 16.179,13.957 16.179,13.957 C16.179,13.495 16.546,13.121 16.999,13.121 C17.452,13.121 17.819,13.496 17.819,13.958 L17.819,21.934 C17.819,22.396 17.451,22.770 16.999,22.770 ZM13.312,21.830 C12.859,21.829 12.493,21.455 12.492,20.994 L12.492,14.886 C12.514,14.458 12.850,14.116 13.269,14.094 C13.722,14.069 14.109,14.423 14.134,14.886 L14.134,20.994 C14.133,21.456 13.764,21.830 13.312,21.830 Z"/>
</svg>
