<svg xmlns="http://www.w3.org/2000/svg" xmlns:xlink="http://www.w3.org/1999/xlink" fill="none" version="1.1" width="13.253012657165527" height="13.972145080566406" viewBox="0 0 13.253012657165527 13.972145080566406"><g><path d="M13.1922,11.8219C12.5688,13.5141,10.6984,14.3875,9.00156,13.7781Q5.02813,12.1766,8.10469,8.40625Q7.86719,9.89531,9.08281,9.77969Q8.89844,6.86719,10.4797,6.2875Q10.0094,8.0375,12.0828,9.05469C12.9828,9.6625,13.4234,10.7594,13.1922,11.8219ZM11.225,11.0422Q10.0734,10.5781,10.3375,9.78125Q9.45938,10.0453,9.56094,11.3734C9.39375,11.3984,9.22656,11.3375,9.11563,11.2094C9.00625,11.0812,8.96875,10.9062,9.01875,10.7453C9.06875,10.5844,7.30937,12.4641,9.51719,13.1937Q11.1469,13.6766,11.8438,12.3031C11.9719,11.7859,11.7109,11.2547,11.225,11.0422ZM2.79375,2.79531L9.77969,2.79531L9.77969,4.19219L2.79375,4.19219L2.79375,2.79531ZM2.79375,5.58906L6.98437,5.58906L6.98437,6.98594L2.79375,6.98594L2.79375,5.58906ZM11.875,5.58906C11.6891,5.58906,11.5125,5.51562,11.3813,5.38438C11.25,5.25313,11.1766,5.075,11.1766,4.89062L11.1766,1.39688L1.39688,1.39688L1.39688,12.5734L5.5875,12.5734C5.97344,12.5734,6.28594,12.8859,6.28594,13.2719C6.28594,13.6578,5.97344,13.9703,5.5875,13.9703L1.39688,13.9703C0.625,13.9703,0,13.3453,0,12.5734L0,1.39688C0,0.625,0.625,0,1.39688,0L6.28672,0L11.1766,0C11.9484,0,12.5734,0.625,12.5734,1.39688L12.5734,4.88906C12.5734,5.075,12.5,5.25156,12.3688,5.38281C12.2375,5.51562,12.0594,5.58906,11.875,5.58906Z" fill="#FFFFFF" fill-opacity="1"/></g></svg>