<svg xmlns="http://www.w3.org/2000/svg" xmlns:xlink="http://www.w3.org/1999/xlink" fill="" version="1.1" width="21" height="18.161792755126953" viewBox="0 0 21 18.161792755126953"><g><path d="M16.5313,1.19691C16.6007,1.19691,16.6874,1.21425,16.7568,1.28364C16.9476,1.47445,16.9129,1.80404,16.7568,1.96015Q16.6007,2.06423,13.2008,5.51619Q12.9059,5.89781,13.2008,6.1927C13.3048,6.29678,13.4089,6.33147,13.513,6.33147Q13.7212,6.33147,13.8773,6.1927L17.7109,2.67136Q17.8149,2.58463,17.9537,2.58463C18.0404,2.58463,18.1272,2.61932,18.2312,2.70605Q18.4914,2.96625,18.2659,3.22645L14.7619,7.09472Q14.4324,7.4243,14.7619,7.77123C14.866,7.87531,14.9875,7.92735,15.0915,7.92735Q15.2997,7.92735,15.4385,7.77123L18.9945,4.2152Q19.168,4.07643,19.3588,4.07643C19.4628,4.07643,19.5669,4.11112,19.671,4.2152C19.8965,4.4407,19.7057,4.66621,19.7404,4.7009Q16.566,8.56917,16.219,8.82937C15.9415,9.03753,14.9528,9.74874,13.513,9.74874C13.1314,9.74874,12.7151,9.6967,12.2814,9.57527C12.212,9.64466,11.8651,10.0089,11.3794,10.5467L16.3058,15.317C16.6874,15.6986,16.6874,16.2884,16.3058,16.67C16.167,16.8088,15.9935,16.8782,15.8027,16.8782C15.4905,16.8782,15.1609,16.722,14.9181,16.4792Q12.4028,13.8425,10.3212,11.6915Q8.34374,13.8078,5.62034,16.7394C5.46422,16.8782,5.25606,16.9475,5.03055,16.9475C4.7877,16.9475,4.54485,16.8608,4.33669,16.6526C3.95507,16.271,3.92038,15.7159,4.26731,15.369L9.31514,10.6161C8.86413,10.1477,8.46516,9.74874,8.17027,9.4365C7.92742,9.52323,7.49376,9.662,6.92132,9.662C5.67238,9.662,3.83365,8.9508,2.23777,5.30803Q1.23167,3.36522,1.21432,1.92546C1.21432,1.35303,1.37044,1.17956,1.54391,1.17956Q1.82145,1.17956,2.20307,1.57853L3.2959,2.63667L3.46937,2.81013L10.3906,9.54058L11.4141,8.58652Q10.6682,6.26209,12.16,4.71825Q13.6518,3.22645,16.2191,1.2316Q16.3752,1.19691,16.5313,1.19691ZM16.5313,0C16.115,0,15.768,0.156118,15.6466,0.242851L15.4905,0.34693C15.3864,0.433663,12.8712,2.39382,11.3273,3.93766L11.31,3.955C10.1825,5.09987,9.99166,6.53963,10.0437,7.58042L4.31935,2.02954L4.302,2.02954L4.12854,1.85608L3.05305,0.815285C2.77551,0.520395,2.22042,0.0520388,1.54391,0.0520388C1.14494,0.0520388,0.78066,0.208157,0.503116,0.485702C-0.0172787,1.0061,0.0000677454,1.76934,0.0000677454,2.01219C0.0174142,3.64277,0.988819,5.58557,1.14494,5.91516C2.16838,8.22224,3.98976,10.9283,6.90398,10.9283C7.0254,10.9283,7.16417,10.9283,7.26825,10.911L3.41733,14.5364L3.39998,14.5537C3.00101,14.9527,2.79286,15.5251,2.82755,16.0976C2.86224,16.6353,3.08775,17.1383,3.48672,17.52C3.90303,17.9363,4.44077,18.1618,5.03056,18.1618C5.55095,18.1618,6.03665,17.971,6.41828,17.6414C6.45297,17.6241,6.47032,17.5894,6.50501,17.5547C6.52236,17.5373,8.53455,15.369,10.3386,13.4262C12.16,15.317,14.0334,17.2771,14.0507,17.2945L14.0681,17.3118C14.5364,17.7802,15.1783,18.0577,15.8027,18.0577C16.3231,18.0577,16.8088,17.8669,17.1558,17.5026C17.5721,17.0863,17.7976,16.5486,17.7976,15.9761C17.7976,15.4037,17.5721,14.866,17.1558,14.4496L17.1384,14.4323L13.5477,10.963C14.7273,10.963,15.8721,10.5814,16.9129,9.81812L16.9303,9.80077C17.069,9.71404,17.416,9.45384,20.6944,5.46415C20.8506,5.27334,20.9373,5.06518,20.9546,4.83967C21.1281,4.09377,20.7638,3.59072,20.5383,3.36522C20.2608,3.08768,19.9139,2.93156,19.5496,2.89686C19.5322,2.54993,19.3761,2.18566,19.0812,1.87342C18.8037,1.59588,18.4567,1.43976,18.0925,1.40506C18.0404,1.05813,17.8843,0.711204,17.6241,0.451006C17.3292,0.156116,16.9476,-0.00000304737,16.5313,0Z" fill="" fill-opacity="1"/></g></svg>