<svg width="24" height="24" xmlns="http://www.w3.org/2000/svg"><path d="M20.76 10.104h-1.49V3.928A.927.927 0 0018.344 3H5.345a.927.927 0 00-.928.928v6.176h-1.49a.927.927 0 00-.927.928v9.79c0 .513.415.928.928.928H20.76a.927.927 0 00.927-.928v-9.79a.927.927 0 00-.927-.928zM5.882 4.464h11.924v5.64h-1.348a.927.927 0 00-.928.928v4.163H8.157v-4.163a.927.927 0 00-.928-.928H5.882v-5.64zm14.34 15.821H3.466V11.57h3.227v4.163c0 .513.415.928.928.928h8.447a.927.927 0 00.928-.928v-4.163h3.228v8.716z" ></path><path d="M22 .75a1.246 1.246 0 011.247 1.157c.022.305-.067.617-.268.87h0L2.884 22.884a1.246 1.246 0 01-1.768 0 1.245 1.245 0 01-.095-1.661h0L21.116 1.116C21.36.872 21.68.75 22 .75z" ></path></svg>