<svg 
 xmlns="http://www.w3.org/2000/svg"
 xmlns:xlink="http://www.w3.org/1999/xlink"
 width="34px" height="34px">
<path fill-rule="evenodd"  fill="rgb(233, 239, 253)"
 d="M6.000,-0.000 L27.999,-0.000 C31.313,-0.000 33.999,2.686 33.999,6.000 L33.999,28.000 C33.999,31.313 31.313,34.000 27.999,34.000 L6.000,34.000 C2.686,34.000 -0.001,31.313 -0.001,28.000 L-0.001,6.000 C-0.001,2.686 2.686,-0.000 6.000,-0.000 Z"/>
<path fill-rule="evenodd"  fill="rgb(58, 87, 199)"
 d="M28.740,24.966 C28.651,25.160 28.545,25.347 28.424,25.523 C28.166,25.880 27.843,26.188 27.469,26.431 C27.287,26.549 27.095,26.651 26.894,26.737 C26.468,26.911 26.011,27.000 25.549,26.999 L24.399,26.999 C23.764,26.999 23.250,26.500 23.250,25.886 C23.249,25.271 23.764,24.772 24.399,24.771 L25.549,24.771 C25.636,24.774 25.722,24.766 25.807,24.749 C25.880,24.732 25.951,24.709 26.020,24.682 C26.088,24.654 26.154,24.621 26.216,24.582 C26.276,24.539 26.334,24.492 26.388,24.443 C26.437,24.391 26.483,24.337 26.526,24.281 C26.566,24.221 26.601,24.158 26.630,24.092 C26.659,24.023 26.682,23.952 26.699,23.880 C26.708,23.806 26.708,23.731 26.699,23.657 L26.699,12.935 C26.699,12.320 27.213,11.821 27.849,11.821 C28.484,11.821 28.998,12.320 28.998,12.935 L28.998,23.657 C29.004,24.106 28.916,24.551 28.740,24.966 ZM18.310,22.488 C17.862,22.919 17.137,22.919 16.689,22.488 L11.808,17.759 C11.412,17.334 11.413,16.687 11.811,16.263 C12.238,15.808 12.965,15.774 13.435,16.188 L16.259,18.924 L16.259,13.866 L18.740,13.900 L18.740,18.924 L21.564,16.188 C21.565,16.188 21.565,16.188 21.565,16.187 C22.015,15.752 22.743,15.753 23.191,16.188 C23.637,16.623 23.637,17.324 23.191,17.759 L18.310,22.488 ZM16.259,9.046 C16.259,8.468 16.815,8.000 17.501,8.000 C18.186,8.000 18.740,8.468 18.740,9.046 L18.740,11.387 L16.259,11.387 L16.259,9.046 ZM20.948,25.884 C20.949,26.500 20.434,26.999 19.799,26.999 L9.450,26.999 C8.987,27.004 8.528,26.919 8.099,26.748 C7.899,26.663 7.707,26.560 7.524,26.442 C7.156,26.193 6.838,25.879 6.587,25.518 C6.466,25.341 6.360,25.155 6.271,24.961 C6.092,24.548 6.000,24.105 6.001,23.657 L6.001,12.935 C6.001,12.320 6.516,11.822 7.151,11.822 C7.786,11.821 8.301,12.320 8.301,12.935 L8.301,23.657 C8.311,23.734 8.292,23.811 8.301,23.886 C8.325,23.964 8.356,24.040 8.393,24.114 C8.421,24.180 8.456,24.243 8.496,24.303 C8.541,24.362 8.588,24.417 8.640,24.470 C8.693,24.518 8.748,24.563 8.806,24.604 C8.869,24.643 8.934,24.676 9.002,24.704 C9.073,24.732 9.146,24.755 9.220,24.771 C9.297,24.780 9.374,24.780 9.450,24.771 L19.799,24.771 C20.434,24.772 20.948,25.270 20.948,25.884 Z"/>
</svg>
