<svg id="_-s-拖拽选中02" data-name="-s-拖拽选中02" xmlns="http://www.w3.org/2000/svg" width="33.876" height="33.876" viewBox="0 0 33.876 33.876">
  <defs>
    <style>
      .cls-1 {
        fill: #e9effd;
      }

      .cls-1, .cls-2 {
        fill-rule: evenodd;
      }

      .cls-2 {
        fill: #4564e3;
      }
    </style>
  </defs>
  <path id="矩形_1960" data-name="矩形 1960" class="cls-1" d="M286.05,380.05h13.9a10,10,0,0,1,10,10v13.9a10,10,0,0,1-10,10h-13.9a10,10,0,0,1-10-10v-13.9A10,10,0,0,1,286.05,380.05Z" transform="translate(-276.062 -380.062)"/>
  <path id="形状_764" data-name="形状 764" class="cls-2" d="M290.121,393.44a0.532,0.532,0,0,0,.42.22,0.526,0.526,0,0,0,.385-0.179,0.767,0.767,0,0,0,.035-0.958l-2.3-2.963a0.529,0.529,0,0,0-.844,0l-2.3,2.963a0.763,0.763,0,0,0,.035.958,0.512,0.512,0,0,0,.81-0.041l1.3-1.68v10.445l-1.3-1.68a0.514,0.514,0,0,0-.81-0.042,0.767,0.767,0,0,0-.035.958l2.3,2.964,0.009,0.009c0.016,0.019.037,0.038,0.056,0.057l0.032,0.032a0.485,0.485,0,0,0,.073.048,0.21,0.21,0,0,0,.027.019,0.463,0.463,0,0,0,.094.035l0.017,0.007a0.483,0.483,0,0,0,.115.015,0.472,0.472,0,0,0,.116-0.015l0.017-.007a0.463,0.463,0,0,0,.094-0.035,0.214,0.214,0,0,1,.027-0.016c0.024-.016.048-0.028,0.073-0.048s0.021-.019.032-0.031l0.056-.058,0.009-.009,2.3-2.963a0.766,0.766,0,0,0-.035-0.958,0.513,0.513,0,0,0-.811.041l-1.3,1.681V391.76Zm9.82-.621h-7.274a0.806,0.806,0,0,1,0-1.591h7.274A0.807,0.807,0,0,1,299.941,392.819Zm0.013,4.934H292.68a0.807,0.807,0,0,1,0-1.592h7.274A0.807,0.807,0,0,1,299.954,397.753Zm0,4.933H292.68a0.806,0.806,0,0,1,0-1.591h7.274A0.807,0.807,0,0,1,299.954,402.686Z" transform="translate(-276.062 -380.062)"/>
</svg>
