<svg id="_000" data-name="000" xmlns="http://www.w3.org/2000/svg" width="33.5" height="33.5" viewBox="0 0 33.5 33.5">
  <defs>
    <style>
      .cls-1 {
        fill: #eaedf0;
      }

      .cls-2 {
        fill: #999;
        fill-rule: evenodd;
      }
    </style>
  </defs>
  <rect id="矩形_1960" data-name="矩形 1960" class="cls-1" width="33.5" height="33.5" rx="10" ry="10"/>
  <path id="形状_764" data-name="形状 764" class="cls-2" d="M1093.15,309.482a0.547,0.547,0,0,0,.42.217,0.517,0.517,0,0,0,.38-0.176,0.763,0.763,0,0,0,.04-0.947l-2.27-2.928a0.528,0.528,0,0,0-.84,0l-2.27,2.928a0.762,0.762,0,0,0,.04.947,0.505,0.505,0,0,0,.8-0.041l1.29-1.661v10.323l-1.29-1.661a0.508,0.508,0,0,0-.8-0.041,0.763,0.763,0,0,0-.04.947l2.27,2.928,0.01,0.01,0.06,0.056,0.03,0.032a0.294,0.294,0,0,0,.07.047l0.03,0.019a0.472,0.472,0,0,0,.09.034l0.02,0.007a0.4,0.4,0,0,0,.11.015,0.548,0.548,0,0,0,.12-0.015l0.01-.007a0.562,0.562,0,0,0,.1-0.034,0.034,0.034,0,0,1,.02-0.016,0.294,0.294,0,0,0,.07-0.047,0.374,0.374,0,0,0,.04-0.032l0.05-.056,0.01-.01,2.27-2.928a0.76,0.76,0,0,0-.03-0.946,0.516,0.516,0,0,0-.81.04l-1.28,1.661V307.821Zm9.71-.613h-7.19a0.8,0.8,0,0,1,0-1.573h7.19A0.8,0.8,0,0,1,1102.86,308.869Zm0.01,4.875h-7.19a0.8,0.8,0,0,1,0-1.573h7.19A0.8,0.8,0,0,1,1102.87,313.744Zm0,4.875h-7.19a0.8,0.8,0,0,1,0-1.573h7.19A0.8,0.8,0,0,1,1102.87,318.619Z" transform="translate(-1079.25 -296.25)"/>
</svg>
