<svg xmlns="http://www.w3.org/2000/svg" xmlns:xlink="http://www.w3.org/1999/xlink" fill="none" version="1.1" width="66" height="80" viewBox="0 0 66 80"><g><path d="M11.0641,0.395608L11.0641,28.9096C11.0641,30.0964,10.2745,31.2866,8.69539,31.2866C7.50768,31.2866,6.32331,30.4953,6.32331,28.9096L6.32331,0.395608L0,0.395608L0,35.6416C0,38.4142,1.18437,41.1868,2.76687,43.5638C4.34602,45.5419,5.92852,46.732,6.7181,46.732C7.90247,46.732,9.09018,47.5233,9.09018,49.1057L9.09018,73.6602C9.09018,75.246,9.87976,77.224,11.0641,78.4142C11.857,78.8098,13.831,79.601,15.4135,79.601C18.9699,79.601,22.1316,76.4328,22.1316,72.869L22.1316,48.7101C22.1316,48.3145,22.5264,47.5233,22.9212,47.1277C23.316,46.732,23.7108,46.3364,24.5037,46.3364C27.6653,46.3364,30.827,41.5824,30.827,35.246L30.827,0L24.1089,0.395608L24.1089,28.9096C24.1089,30.0964,23.316,31.2866,21.7335,31.2866C20.5491,31.2866,19.7595,30.0964,19.7595,28.9096L19.7595,0.395608L11.0641,0.395608ZM61.6506,0.395608C51.3794,0.395608,44.2632,9.10904,43.8684,27.3271C43.4736,40.3956,45.4476,45.9375,50.1917,49.1057C50.5865,49.5047,50.9813,49.5047,51.3761,49.9003Q51.7709,49.9003,52.5638,50.6915C52.9586,51.0871,53.3534,51.4827,53.7482,51.4827L54.5377,52.2739L54.5377,77.6196C54.5377,78.8098,55.3273,80,56.9098,80L63.6279,80C64.8123,80,66,78.8098,66,77.6196L66,0.791216L65.6052,0.791216C64.0227,0.395608,62.8383,0.395608,61.6506,0.395608Z" fill="#FFFFFF" fill-opacity="1"/></g></svg>