<svg 
 xmlns="http://www.w3.org/2000/svg"
 xmlns:xlink="http://www.w3.org/1999/xlink"
 width="34px" height="34px">
<path fill-rule="evenodd"  fill="rgb(233, 239, 253)"
 d="M5.999,-0.000 L27.999,-0.000 C31.313,-0.000 34.000,2.686 34.000,6.000 L34.000,28.000 C34.000,31.313 31.313,34.000 27.999,34.000 L5.999,34.000 C2.686,34.000 -0.000,31.313 -0.000,28.000 L-0.000,6.000 C-0.000,2.686 2.686,-0.000 5.999,-0.000 Z"/>
<path fill-rule="evenodd"  fill="rgb(58, 87, 199)"
 d="M10.939,9.438 C9.873,9.438 9.001,10.305 9.001,11.377 L9.001,23.061 C9.001,24.128 9.873,24.994 10.939,24.994 L22.629,24.994 C23.696,24.994 24.562,24.128 24.562,23.061 L24.562,15.383 L26.568,13.444 L26.568,23.772 C26.568,25.556 25.057,27.000 23.274,27.000 L10.228,27.000 C8.445,27.000 7.001,25.556 7.001,23.772 L7.001,10.866 C7.001,9.083 8.445,7.438 10.228,7.438 L20.557,7.438 L18.623,9.438 L10.939,9.438 L10.939,9.438 ZM18.089,18.933 L13.757,20.161 L14.995,15.855 L18.089,18.933 ZM18.523,18.500 L15.423,15.427 L22.234,8.660 L25.335,11.733 L18.523,18.500 ZM26.734,10.344 L25.807,11.266 L22.707,8.188 L23.635,7.266 C23.979,6.927 24.518,6.910 24.834,7.227 L26.773,9.149 C27.090,9.466 27.074,10.005 26.734,10.344 Z"/>
</svg>
