<svg width="24" height="24" xmlns="http://www.w3.org/2000/svg"><path d="M20.78 10.104h-1.49V3.928A.927.927 0 0018.362 3H5.364a.927.927 0 00-.927.928v6.176h-1.49a.927.927 0 00-.927.928v9.79c0 .513.415.928.927.928H20.78a.927.927 0 00.928-.928v-9.79a.927.927 0 00-.928-.928zM5.9 4.464h11.924v5.64h-1.347a.927.927 0 00-.928.928v4.163H8.177v-4.163a.927.927 0 00-.928-.928H5.901v-5.64zm14.341 15.821H3.484V11.57h3.228v4.163c0 .513.415.928.928.928h8.447a.927.927 0 00.928-.928v-4.163h3.227v8.716z"></path></svg>