<?xml version="1.0" encoding="utf-8"?>
<!-- Generator: Adobe Illustrator 26.0.0, SVG Export Plug-In . SVG Version: 6.00 Build 0)  -->
<svg version="1.1" id="加密" xmlns="http://www.w3.org/2000/svg" xmlns:xlink="http://www.w3.org/1999/xlink" x="0px" y="0px"
	 viewBox="0 0 26 26" style="enable-background:new 0 0 26 26;" xml:space="preserve">
<style type="text/css">
	.st0{fill:#C83D3D;}
	.st1{enable-background:new    ;}
</style>
<path class="st0" d="M19,26H7c-3.9,0-7-3.1-7-7V7c0-3.9,3.1-7,7-7h12c3.9,0,7,3.1,7,7v12C26,22.9,22.9,26,19,26z M7,2
	C4.2,2,2,4.2,2,7v12c0,2.8,2.2,5,5,5h12c2.8,0,5-2.2,5-5V7c0-2.8-2.2-5-5-5H7z"/>
<g class="st1">
	<path class="st0" d="M16.3,8.8l1.6,1.1c-1.7,2-3.6,3.5-5.9,4.5c0.1,0.1,0.3,0.2,0.6,0.2h2.2c0.4,0,0.7-0.1,0.8-0.4
		c0.1-0.3,0.2-0.8,0.3-1.7c0.8,0.3,1.4,0.6,2,0.8c-0.2,0.7-0.3,1.3-0.4,1.7c-0.1,0.4-0.3,0.7-0.5,0.8s-0.4,0.3-0.8,0.4
		s-0.7,0.1-1.1,0.1h-0.6v2.1h3.2V16h2.1v4.8h-2.1v-0.6H6.9v-3.9H9v2h3.2v-2.1h-0.4c-1,0-1.6-0.4-1.8-1.1c-1.1,0.3-2.2,0.6-3.5,0.9
		c-0.3-0.8-0.6-1.4-0.9-2c1.5-0.2,2.9-0.6,4.2-0.9V9.8h2.1v2.6C13.6,11.6,15,10.4,16.3,8.8z M11.6,5.7l2.7-0.3
		c0.1,0.3,0.2,0.8,0.4,1.4h6v3.5h-2.1V8.6h-5c0.3,0.4,0.7,0.9,1.1,1.4l-1.6,1c-0.5-0.8-1-1.4-1.4-2l0.7-0.4H8.2v1.2l1.4,1
		c-0.8,1-1.6,1.9-2.4,2.7l-1.4-1.3c0.7-0.7,1.2-1.3,1.8-1.9H6.1V6.8h5.8C11.8,6.3,11.7,6,11.6,5.7z M18.5,10.4
		c0.8,0.8,1.6,1.8,2.6,3l-1.7,1.2c-0.8-1.1-1.6-2.2-2.4-3.1L18.5,10.4z"/>
</g>
</svg>
