<svg t="1732756751441" class="icon" viewBox="0 0 1097 1024" version="1.1" xmlns="http://www.w3.org/2000/svg" p-id="10035" width="200" height="200"><path d="M503.003429 47.104c-29.403429 0-49.152 6.802286-59.392 20.48-10.24 13.677714-15.36 35.474286-15.36 65.536 0 13.677714-0.219429 35.108571-0.512 64.512l-1.024 93.696c-0.365714 33.133714-0.877714 65.389714-1.536 96.768-0.731429 31.451429-1.024 56.32-1.024 74.752 0 26.624-2.56 47.469714-7.68 62.464-5.12 14.994286-16.896 22.162286-35.328 21.504-13.677714 0-29.915429 0.365714-48.64 1.024a599.771429 599.771429 0 0 1-49.737143 0c-23.844571 0-39.058286 6.509714-45.494857 19.456-6.509714 12.946286-1.901714 29.696 13.824 50.176 16.384 20.48 35.474286 44.690286 57.344 72.704 21.796571 28.013714 44.324571 56.685714 67.584 86.016 23.186286 29.330286 45.860571 58.368 68.022857 87.04 22.235429 28.672 41.837714 53.906286 58.953143 75.776 15.652571 19.748571 30.866286 29.988571 45.568 30.72 14.628571 0.731429 30.208-8.192 46.592-26.624 16.384-19.748571 35.328-43.008 56.832-69.632 21.504-26.624 43.885714-54.125714 67.072-82.432l68.608-83.968c22.528-27.648 42.642286-52.077714 60.416-73.216 19.748571-23.917714 27.428571-43.52 23.04-58.88-4.388571-15.36-19.017143-23.04-43.52-23.04a683.154286 683.154286 0 0 1-25.088-0.512 7910.692571 7910.692571 0 0 0-86.528-2.56c-17.115429-0.731429-27.794286-6.144-32.256-16.384-4.388571-10.24-6.363429-24.210286-5.632-41.984 0-19.748571 0.146286-45.714286 0.512-77.824l1.024-100.352c0.292571-34.816 0.804571-68.608 1.462857-101.376 0.731429-32.768 1.097143-59.392 1.097143-79.872 0-8.850286-0.731429-18.066286-2.048-27.648a63.634286 63.634286 0 0 0-9.728-26.112 64 64 0 0 0-21.504-19.968 70.802286 70.802286 0 0 0-36.352-8.192c-18.432 0-36.059429-0.146286-52.736-0.512a4851.419429 4851.419429 0 0 1-56.832-1.536z"  p-id="10036"></path></svg>