<svg id="图层_1" data-name="图层 1" xmlns="http://www.w3.org/2000/svg" viewBox="0 0 133.32 175.16"><defs><style>.cls-1{fill:#91b4ff;}.cls-2{fill:#4564e3;}</style></defs><path class="cls-1" d="M157.05,178.24V67.5l-45.39-.2A4.73,4.73,0,0,1,107,62.58V17.27H56.84v161H157.05Z" transform="translate(-33.14 -12.54)"/><path class="cls-1" d="M116.43,27.89v30l33.45.14Z" transform="translate(-33.14 -12.54)"/><path class="cls-2" d="M37.91,71.19a4.73,4.73,0,0,1-4.73-4.73V17.27a4.72,4.72,0,0,1,4.73-4.73h73.77a4.73,4.73,0,1,1,0,9.45h-69V66.45A4.74,4.74,0,0,1,37.91,71.19Zm0,29.44a4.73,4.73,0,0,1-4.73-4.73V84.41a4.73,4.73,0,0,1,9.46,0V95.9A4.72,4.72,0,0,1,37.91,100.63Z" transform="translate(-33.14 -12.54)"/><path class="cls-2" d="M166.46,62.17V62a.57.57,0,0,0,0-.13.18.18,0,0,0,0-.1c0-.06,0-.1,0-.16a.12.12,0,0,0,0-.08s0-.11,0-.15,0-.06,0-.08,0-.12,0-.16,0-.05,0-.07l-.06-.16s0-.06,0-.08l-.06-.14a.79.79,0,0,1,0-.09l-.05-.12-.06-.12s0,0,0-.06l-.18-.33s0,0,0,0a.73.73,0,0,0-.1-.13s0,0,0-.06a.85.85,0,0,1-.1-.14.28.28,0,0,1-.06-.08,1.09,1.09,0,0,0-.1-.11s0-.06-.08-.08-.06-.06-.08-.1l-.11-.12L165,59l-.2-.17-50-45.08a4.75,4.75,0,0,0-7.91,3.52V62.56a4.73,4.73,0,0,0,4.71,4.73l45.39.19V178.22H42.6V112.91a4.73,4.73,0,0,0-9.46,0V183a4.72,4.72,0,0,0,4.73,4.73H161.74a4.72,4.72,0,0,0,4.72-4.73V62.17Zm-50.09-4.32v-30L149.84,58l-33.47-.14Z" transform="translate(-33.14 -12.54)"/><path class="cls-2" d="M105.57,92.29h-43a4.73,4.73,0,0,1,0-9.46h43a4.73,4.73,0,0,1,0,9.46Zm22.09,25.35H62.6a4.73,4.73,0,0,1,0-9.46h65.06a4.73,4.73,0,0,1,0,9.46ZM137.11,143H62.6a4.73,4.73,0,1,1,0-9.45h74.51a4.73,4.73,0,1,1,0,9.45Z" transform="translate(-33.14 -12.54)"/></svg>