<svg xmlns="http://www.w3.org/2000/svg" xmlns:xlink="http://www.w3.org/1999/xlink" fill="none" version="1.1" width="12" height="12.01416015625" viewBox="0 0 12 12.01416015625"><g style="mix-blend-mode:passthrough"><g><path d="M12,1.40443L12,4.98979C12,5.28247,11.7073,5.57516,11.4146,5.57516C11.122,5.57516,10.8293,5.35564,10.8293,4.98979L10.8293,1.4776C10.8293,1.40443,10.7561,1.33125,10.7561,1.25808C10.6829,1.18491,10.5366,1.11174,10.3902,1.11174L1.68293,1.11174C1.53659,1.11174,1.39024,1.18491,1.31707,1.25808C1.2439,1.25808,1.2439,1.33125,1.2439,1.4776L1.2439,10.4776C1.2439,10.6239,1.46342,10.8434,1.7561,10.8434L4.53659,10.8434C4.90244,10.8434,5.12195,11.063,5.12195,11.4288C5.12195,11.7215,4.82927,12.0142,4.53659,12.0142L1.68293,12.0142C0.804878,12.0142,3.76818e-7,11.3556,3.76818e-7,10.5508L3.76818e-7,1.4776C3.76818e-7,1.11174,0.146342,0.745889,0.439025,0.453206C0.731708,0.160523,1.2439,-0.0589892,1.68293,0.0141815L10.2439,0.0141815C10.6829,0.0141815,11.122,0.160523,11.4878,0.453206C11.7805,0.672718,11.9268,1.03857,12,1.40443Z" fill="#FFFFFF" fill-opacity="1"/></g><g><path d="M11.268299650726318,10.331252973327636C11.48780965072632,10.550772973327636,11.48780965072632,10.989792973327637,11.268299650726318,11.209302973327636C11.048789650726318,11.428812973327638,10.682929650726319,11.428812973327638,10.390249650726318,11.209302973327636L8.926839650726318,9.745892973327637L7.463419650726318,11.209302973327636C7.317080650726318,11.355642973327637,7.170739650726318,11.355642973327637,7.024397650726319,11.355642973327637C6.878056650726318,11.355642973327637,6.7317156507263185,11.282472973327636,6.585373650726319,11.209302973327636C6.439032350726318,11.062962973327636,6.439032350726318,10.916622973327637,6.439032350726318,10.770282973327637C6.439032350726318,10.623942973327637,6.512203350726319,10.477592973327637,6.585373650726319,10.331252973327636L8.048789650726318,8.867842973327637L6.585373650726319,7.4044229733276365C6.365861450726318,7.184913973327637,6.365861450726318,6.745889973327637,6.585373650726319,6.526377973327636C6.804885650726319,6.306865273327637,7.170739650726318,6.306865273327637,7.463419650726318,6.526377973327636L8.926839650726318,7.989792973327637L10.390249650726318,6.526376973327637C10.609759650726318,6.306864773327637,11.048789650726318,6.306864773327637,11.268299650726318,6.526376973327637C11.48780965072632,6.745888973327637,11.48780965072632,7.184913973327637,11.268299650726318,7.4044229733276365L9.804889650726318,8.867842973327637L11.268299650726318,10.331252973327636Z" fill="#FFFFFF" fill-opacity="1"/></g></g></svg>