<svg width="24" height="24" xmlns="http://www.w3.org/2000/svg"><path d="M11.035 19.297a5.86 5.86 0 01-.433-5.364.786.786 0 00-.103-.791l-3.79-4.846a.788.788 0 00-.793-.282A2.767 2.767 0 013.98 7.75l3.754-3.753c.32.592.413 1.28.262 1.935a.787.787 0 00.283.793l4.975 3.89a.786.786 0 00.748.122 5.833 5.833 0 015.039.552l-4.003 4.003h-.001v.001l-4.003 4.003zm10.142 1.023l-4.47-4.47 4.093-4.093a.787.787 0 00-.044-1.153 7.403 7.403 0 00-6.86-1.484l-4.28-3.347A4.312 4.312 0 008.372 2.25a.787.787 0 00-1.113 0L2.233 7.275a.787.787 0 000 1.113 4.309 4.309 0 003.524 1.244l3.227 4.128a7.445 7.445 0 001.364 7.252.792.792 0 00.567.274h.03a.783.783 0 00.556-.23l4.093-4.094 4.471 4.47a.785.785 0 001.342-.556.787.787 0 00-.23-.556z"></path></svg>