<svg xmlns="http://www.w3.org/2000/svg" xmlns:xlink="http://www.w3.org/1999/xlink" fill="none" version="1.1" width="11.488250732421875" height="10" viewBox="0 0 11.488250732421875 10"><g><path d="M5.74413,1.85379C7.70352,1.84727,9.49352,2.96349,10.3499,4.72585C10.047,5.34977,9.61856,5.90443,9.09138,6.35509L9.82768,7.09138C10.5535,6.44909,11.1279,5.64491,11.4883,4.72585C10.5849,2.43342,8.35509,0.8094,5.74413,0.8094C5.08094,0.8094,4.44386,0.913838,3.84334,1.10705L4.70496,1.96867C5.04439,1.90078,5.38903,1.85379,5.74413,1.85379ZM5.18538,2.44909L6.26632,3.53003C6.56397,3.66057,6.80418,3.90078,6.93473,4.19843L8.01567,5.27937C8.05744,5.10183,8.08877,4.91384,8.08877,4.72063C8.094,3.42559,7.03917,2.37598,5.74413,2.37598C5.55091,2.37598,5.36815,2.40209,5.18538,2.44909ZM0.527415,0.741514L1.92689,2.14099C1.06544,2.81523,0.40013,3.70772,0,4.72585C0.903394,7.01828,3.13316,8.6423,5.74413,8.6423C6.53786,8.6423,7.30026,8.49086,8,8.2141L9.7859,10L10.5222,9.26371L1.26371,0L0.527415,0.741514ZM4.44386,4.65796L5.80679,6.02089C5.7859,6.02611,5.76501,6.03133,5.74413,6.03133C5.02313,6.03133,4.43864,5.44685,4.43864,4.72585C4.43864,4.69974,4.44386,4.68407,4.44386,4.65796ZM2.66841,2.88251L3.58225,3.79634C3.45844,4.09061,3.39453,4.4066,3.39426,4.72585C3.3972,6.41069,5.11782,7.54679,6.66841,6.88773L7.18016,7.39948C6.72063,7.52481,6.24021,7.59791,5.74413,7.59791C3.78474,7.60443,1.99473,6.48821,1.13838,4.72585C1.50392,3.97911,2.03655,3.36293,2.66841,2.88251Z" fill="#FFFFFF" fill-opacity="1"/></g></svg>