<svg xmlns="http://www.w3.org/2000/svg" xmlns:xlink="http://www.w3.org/1999/xlink" fill="none" version="1.1" width="58" height="58" viewBox="0 0 58 58"><g transform="matrix(1,-7.63568266393122e-8,7.63568266393122e-8,1,0,0)"><g><g><path d="M25.8848,0.999036L3.49984,17.0128C1.30292,18.5844,0.000117331,21.1146,0,23.8099L0,49.6329C0,54.2538,3.75855,58,8.39474,58L49.6053,58C54.2414,58,58,54.2538,58,49.6329L58,23.8092C58,21.1148,56.6972,18.585,54.5002,17.0128L32.1152,0.999036C30.2534,-0.333013,27.7466,-0.333013,25.8848,0.999036ZM21.0909,45.7946L21.0909,46.174Q21.0909,46.2723,21.1006,46.37Q21.1102,46.4678,21.1294,46.5642Q21.1485,46.6605,21.1771,46.7546Q21.2056,46.8486,21.2432,46.9394Q21.2808,47.0301,21.3271,47.1168Q21.3734,47.2034,21.428,47.2851Q21.4826,47.3668,21.5449,47.4428Q21.6073,47.5187,21.6767,47.5882Q21.7462,47.6577,21.8222,47.72Q21.8981,47.7824,21.9798,47.8369Q22.0615,47.8915,22.1481,47.9378Q22.2348,47.9842,22.3256,48.0218Q22.4163,48.0594,22.5104,48.0879Q22.6044,48.1164,22.7008,48.1356Q22.7971,48.1548,22.8949,48.1644Q22.9927,48.174,23.0909,48.174L34.9091,48.174Q35.0074,48.174,35.1052,48.1644Q35.2029,48.1547,35.2993,48.1356Q35.3957,48.1164,35.4897,48.0879Q35.5837,48.0594,35.6745,48.0218Q35.7653,47.9842,35.8519,47.9378Q35.9386,47.8915,36.0203,47.8369Q36.102,47.7824,36.1779,47.72Q36.2539,47.6577,36.3233,47.5882Q36.3928,47.5187,36.4551,47.4428Q36.5175,47.3668,36.5721,47.2851Q36.6266,47.2034,36.673,47.1168Q36.7193,47.0301,36.7569,46.9394Q36.7945,46.8486,36.823,46.7546Q36.8515,46.6605,36.8707,46.5642Q36.8899,46.4678,36.8995,46.37Q36.9091,46.2723,36.9091,46.174L36.9091,45.7946Q36.9091,45.6963,36.8995,45.5985Q36.8899,45.5007,36.8707,45.4044Q36.8515,45.308,36.823,45.214Q36.7945,45.12,36.7569,45.0292Q36.7193,44.9384,36.673,44.8518Q36.6266,44.7651,36.5721,44.6834Q36.5175,44.6017,36.4551,44.5258Q36.3928,44.4498,36.3233,44.3803Q36.2539,44.3109,36.1779,44.2485Q36.102,44.1862,36.0203,44.1316Q35.9386,44.077,35.8519,44.0307Q35.7653,43.9844,35.6745,43.9468Q35.5837,43.9092,35.4897,43.8807Q35.3957,43.8522,35.2993,43.833Q35.2029,43.8138,35.1052,43.8042Q35.0074,43.7946,34.9091,43.7946L23.0909,43.7946Q22.9927,43.7946,22.8949,43.8042Q22.7971,43.8138,22.7008,43.833Q22.6044,43.8522,22.5104,43.8807Q22.4163,43.9092,22.3256,43.9468Q22.2348,43.9844,22.1481,44.0307Q22.0615,44.077,21.9798,44.1316Q21.8981,44.1862,21.8222,44.2485Q21.7462,44.3109,21.6767,44.3803Q21.6073,44.4498,21.5449,44.5258Q21.4826,44.6017,21.428,44.6834Q21.3734,44.7651,21.3271,44.8518Q21.2808,44.9384,21.2432,45.0292Q21.2056,45.12,21.1771,45.214Q21.1485,45.308,21.1294,45.4044Q21.1102,45.5007,21.1006,45.5985Q21.0909,45.6963,21.0909,45.7946Z" fill-rule="evenodd" fill="#FFFFFF" fill-opacity="1"/></g></g></g></svg>