<svg xmlns="http://www.w3.org/2000/svg" xmlns:xlink="http://www.w3.org/1999/xlink" fill="" version="1.1" width="21" height="21" viewBox="0 0 21 21"><g><g><path d="M14.4375,21L1.3125,21L1.3125,2.49375C1.3125,1.18125,2.49375,0,3.80625,0L11.9438,0C13.2563,0,14.4375,1.18125,14.4375,2.49375L14.4375,21ZM2.625,19.6875L13.125,19.6875L13.125,2.49375C13.125,1.8375,12.6,1.3125,11.9438,1.3125L3.80625,1.3125C3.15,1.3125,2.625,1.8375,2.625,2.49375L2.625,19.6875Z" fill="" fill-opacity="1"/></g><g><path d="M19.6875,20.99991795654297L7.21875,20.99991795654297C6.825,20.99991795654297,6.5625,20.737517956542966,6.5625,20.343717956542967C6.5625,19.95001795654297,6.825,19.68741795654297,7.21875,19.68741795654297L18.375,19.68741795654297L18.375,9.187467956542969C18.375,8.531217956542969,17.85,8.006217956542969,17.1938,8.006217956542969L16.40625,8.006217956542969C16.0125,8.006217956542969,15.75,7.743717956542969,15.75,7.349967956542969C15.75,6.956217956542969,16.0125,6.693717956542969,16.40625,6.693717956542969L17.1938,6.693717956542969C18.5063,6.693717956542969,19.6875,7.743717956542969,19.6875,9.187467956542969L19.6875,20.99991795654297Z" fill="" fill-opacity="1"/></g><g><path d="M20.3438,21L0.65625,21C0.2625,21,0,20.7375,0,20.34375C0,19.95,0.2625,19.6875,0.65625,19.6875L20.3438,19.6875C20.7375,19.6875,21,19.95,21,20.34375C21,20.7375,20.7375,21,20.3438,21Z" fill="" fill-opacity="1"/></g><g><path d="M10.36871795654297,5.25L5.381217956542969,5.25C4.987467956542969,5.25,4.724967956542969,4.9875,4.724967956542969,4.59375C4.724967956542969,4.2,4.987467956542969,3.9375,5.381217956542969,3.9375L10.499967956542969,3.9375C10.893717956542968,3.9375,11.156217956542969,4.2,11.156217956542969,4.59375C11.156217956542969,4.9875,10.762467956542968,5.25,10.36871795654297,5.25Z" fill="" fill-opacity="1"/></g><g><path d="M10.36871795654297,8.53125L5.381217956542969,8.53125C4.987467956542969,8.53125,4.724967956542969,8.26875,4.724967956542969,7.875C4.724967956542969,7.48125,4.987467956542969,7.21875,5.381217956542969,7.21875L10.499967956542969,7.21875C10.893717956542968,7.21875,11.156217956542969,7.48125,11.156217956542969,7.875C11.156217956542969,8.26875,10.762467956542968,8.53125,10.36871795654297,8.53125Z" fill="" fill-opacity="1"/></g><g><path d="M10.36875,11.8125L5.25,11.8125C4.85625,11.8125,4.59375,11.55,4.59375,11.15625C4.59375,10.7625,4.85625,10.5,5.25,10.5L10.36875,10.5C10.7625,10.5,11.025,10.7625,11.025,11.15625C11.025,11.55,10.7625,11.8125,10.36875,11.8125Z" fill="" fill-opacity="1"/></g><g><path d="M10.36875,15.09375L5.25,15.09375C4.85625,15.09375,4.59375,14.83125,4.59375,14.4375C4.59375,14.04375,4.85625,13.78125,5.25,13.78125L10.36875,13.78125C10.7625,13.78125,11.025,14.04375,11.025,14.4375C11.025,14.83125,10.7625,15.09375,10.36875,15.09375Z" fill="" fill-opacity="1"/></g></g></svg>