<?xml version="1.0" encoding="UTF-8"?>
<svg width="20px" height="20px" viewBox="0 0 20 20" version="1.1" xmlns="http://www.w3.org/2000/svg" xmlns:xlink="http://www.w3.org/1999/xlink">
    <title>密码</title>
    <g id="后台" stroke="none" stroke-width="1" fill="none" fill-rule="evenodd">
        <g id="web--登录" transform="translate(-1027.000000, -455.000000)" fill="#999999" fill-rule="nonzero">
            <g id="编组-2备份" transform="translate(1007.000000, 440.000000)">
                <g id="密码" transform="translate(20.000000, 15.000000)">
                    <rect id="矩形" opacity="0" x="0" y="0" width="20" height="20"></rect>
                    <g id="编组-2" transform="translate(1.000000, 1.000000)">
                        <path d="M14.1666724,17 L2.83334477,17 C1.24668405,17 0,15.7533172 0,14.1666409 L0,7.36666838 C0,5.78000926 1.2466669,4.53336078 2.83334477,4.53336078 L14.1666724,4.53336078 C15.7533331,4.53336078 17,5.78000926 17,7.36666838 L17,14.1666581 C17,15.7533172 15.7533331,17 14.1666724,17 L14.1666724,17 Z M2.83334477,5.66666667 C1.87000892,5.66666667 1.13334134,6.4033335 1.13334134,7.36665123 L1.13334134,14.1666409 C1.13334134,15.1299758 1.87000892,15.8666426 2.83334477,15.8666426 L14.1666724,15.8666426 C15.1300082,15.8666426 15.8666587,15.1299758 15.8666587,14.1666409 L15.8666587,7.36666838 C15.8666587,6.40335066 15.1300082,5.66666667 14.1666724,5.66666667 L2.83334477,5.66666667 L2.83334477,5.66666667 Z" id="形状"></path>
                        <path d="M8.5,12.1833256 C8.32999451,12.1833256 8.21666895,12.069983 8.21666895,11.8999777 L8.21666895,9.0666701 C8.21666895,8.89666478 8.32999451,8.78332218 8.5,8.78332218 C8.67000549,8.78332218 8.78333105,8.89664762 8.78333105,9.06665294 L8.78333105,11.8999777 C8.78333105,12.069983 8.67000549,12.1833256 8.5,12.1833256 Z" id="路径"></path>
                        <path d="M8.5,12.4666564 C8.15998902,12.4666564 7.93333791,12.2399883 7.93333791,11.8999777 L7.93333791,9.0666701 C7.93333791,8.72665946 8.16000618,8.49999142 8.5,8.49999142 C8.83999382,8.49999142 9.06666209,8.72665946 9.06666209,9.06665294 L9.06666209,11.8999777 C9.06666209,12.2399883 8.83999382,12.4666564 8.5,12.4666564 L8.5,12.4666564 Z M8.54142253,11.8999777 L8.54142253,12.1833256 L8.54142253,11.8999777 Z M13.033331,5.66666667 L3.96668611,5.66666667 L3.96668611,4.53332647 C3.96668611,2.0399952 6.00666621,0 8.5,0 C10.9933338,0 13.033331,2.0399952 13.033331,4.53332647 L13.033331,5.66666667 Z M5.09999314,4.53332647 L11.8999897,4.53332647 C11.8999897,2.66333659 10.3699918,1.1333402 8.49998285,1.1333402 C6.62997392,1.1333402 5.09999314,2.66333659 5.09999314,4.53332647 L5.09999314,4.53332647 Z" id="形状"></path>
                    </g>
                </g>
            </g>
        </g>
    </g>
</svg>