<?xml version="1.0" encoding="UTF-8"?>
<svg width="20px" height="20px" viewBox="0 0 20 20" version="1.1" xmlns="http://www.w3.org/2000/svg" xmlns:xlink="http://www.w3.org/1999/xlink">
    <title>数码手机</title>
    <g id="后台" stroke="none" stroke-width="1" fill="none" fill-rule="evenodd">
        <g id="web--登录" transform="translate(-1027.000000, -380.000000)" fill="#999999" fill-rule="nonzero">
            <g id="编组-2" transform="translate(1007.000000, 365.000000)">
                <g id="数码手机" transform="translate(20.000000, 15.000000)">
                    <rect id="矩形" opacity="0" x="0" y="0" width="20" height="20"></rect>
                    <path d="M14.6681055,15.3019531 L4.98259766,15.3019531 L4.98259766,1.94300781 L14.6681055,1.94300781 L14.6681055,15.3019531 L14.6681055,15.3019531 Z M5.98457031,14.3000586 L13.6661523,14.3000586 L13.6661523,2.94492188 L5.98457031,2.94492188 L5.98457031,14.3000586 L5.98457031,14.3000586 Z M10.7111914,16.9516016 C10.7111914,17.4042578 10.344082,17.7708789 9.89158203,17.7708789 C9.43904297,17.7708789 9.07193359,17.4042578 9.07193359,16.9516016 C9.07193359,16.4989258 9.43902344,16.1316797 9.89158203,16.1316797 C10.344082,16.1316406 10.7111914,16.4989063 10.7111914,16.9516016 M14.6346289,19.6435938 L5.01601562,19.6435938 C4.07683594,19.6435938 3.31265625,18.8790625 3.31265625,17.9401172 L3.31265625,1.97642578 C3.31265625,1.03730469 4.07683594,0.273144531 5.01601562,0.273144531 L14.6346289,0.273144531 C15.5738281,0.273144531 16.3380273,1.03732422 16.3380273,1.97642578 L16.3380273,17.9401172 C16.3380273,18.8790625 15.5738281,19.6435938 14.6346289,19.6435938 L14.6346289,19.6435938 Z M5.01601562,1.27505859 C4.62919922,1.27505859 4.31464844,1.58960937 4.31464844,1.97640625 L4.31464844,17.9400977 C4.31464844,18.3268945 4.62921875,18.6416211 5.01601562,18.6416211 L14.6346289,18.6416211 C15.0214648,18.6416211 15.3360742,18.3269141 15.3360742,17.9400977 L15.3360742,1.97642578 C15.3360742,1.58962891 15.0214844,1.27505859 14.6346289,1.27505859 L5.01601562,1.27505859 Z" id="形状"></path>
                </g>
            </g>
        </g>
    </g>
</svg>