<?xml version="1.0" standalone="no"?><!DOCTYPE svg PUBLIC "-//W3C//DTD SVG 1.1//EN" "http://www.w3.org/Graphics/SVG/1.1/DTD/svg11.dtd"><svg t="1700183945420" class="icon" viewBox="0 0 1024 1024" version="1.1" xmlns="http://www.w3.org/2000/svg" p-id="4231" xmlns:xlink="http://www.w3.org/1999/xlink" width="128" height="128"><path d="M825.6 961.28h-614.4c-73.4208 0-133.12-59.6992-133.12-133.12v-614.4c0-73.4208 59.6992-133.12 133.12-133.12h614.4c73.4208 0 133.12 59.6992 133.12 133.12v614.4c0 73.4208-59.7504 133.12-133.12 133.12z m-614.4-819.2c-39.5264 0-71.68 32.1536-71.68 71.68v614.4c0 39.5264 32.1536 71.68 71.68 71.68h614.4c39.5264 0 71.68-32.1536 71.68-71.68v-614.4c0-39.5264-32.1536-71.68-71.68-71.68h-614.4z" fill="" p-id="4232"></path><path d="M789.76 695.04h-542.72c-16.9472 0-30.72-13.7728-30.72-30.72s13.7728-30.72 30.72-30.72h542.72c16.9472 0 30.72 13.7728 30.72 30.72 0 16.9984-13.7728 30.72-30.72 30.72zM789.76 823.04h-542.72c-16.9472 0-30.72-13.7728-30.72-30.72s13.7728-30.72 30.72-30.72h542.72c16.9472 0 30.72 13.7728 30.72 30.72s-13.7728 30.72-30.72 30.72zM349.952 428.288a30.72 30.72 0 0 1-21.7088-52.4288l162.7648-162.816a30.72 30.72 0 0 1 43.4176 0l158.72 158.72a30.72 30.72 0 0 1 0 43.4176 30.72 30.72 0 0 1-43.4176 0l-137.0112-137.0112-141.056 141.1072a30.58688 30.58688 0 0 1-21.7088 9.0112z" fill="" p-id="4233"></path><path d="M513.28 567.04c-16.9472 0-30.72-13.7728-30.72-30.72v-291.84c0-16.9472 13.7728-30.72 30.72-30.72s30.72 13.7728 30.72 30.72v291.84c0 16.9984-13.7728 30.72-30.72 30.72z" fill="" p-id="4234"></path></svg>