<?xml version="1.0" standalone="no"?><!DOCTYPE svg PUBLIC "-//W3C//DTD SVG 1.1//EN" "http://www.w3.org/Graphics/SVG/1.1/DTD/svg11.dtd"><svg t="1666679710099" class="icon" viewBox="0 0 1024 1024" version="1.1" xmlns="http://www.w3.org/2000/svg" p-id="5885" xmlns:xlink="http://www.w3.org/1999/xlink" width="128" height="128"><path d="M762.414545 954.181818H318.836364a122.298182 122.298182 0 0 1-122.181819-122.181818V196.538182a122.298182 122.298182 0 0 1 122.181819-122.181818h443.578181A122.298182 122.298182 0 0 1 884.363636 196.538182V832A122.298182 122.298182 0 0 1 762.414545 954.181818zM318.836364 132.538182a64.116364 64.116364 0 0 0-64 64V832a64.116364 64.116364 0 0 0 64 64h443.578181A64.116364 64.116364 0 0 0 826.181818 832V196.538182a64.116364 64.116364 0 0 0-64-64z" fill="" p-id="5886"></path><path d="M605.090909 849.454545H477.090909a29.090909 29.090909 0 0 1 0-58.181818h128a29.090909 29.090909 0 0 1 0 58.181818z" fill="" p-id="5887"></path></svg>