<?xml version="1.0" encoding="UTF-8"?>
<svg width="21px" height="20px" viewBox="0 0 21 20" version="1.1" xmlns="http://www.w3.org/2000/svg" xmlns:xlink="http://www.w3.org/1999/xlink">
    <title>退出</title>
    <g id="后台" stroke="none" stroke-width="1" fill="none" fill-rule="evenodd">
        <g id="web--在线咨询" transform="translate(-1404.000000, -20.000000)" fill="#008AFE" fill-rule="nonzero">
            <g id="编组-3" transform="translate(209.000000, 0.000000)">
                <g id="退出" transform="translate(1195.500000, 20.000000)">
                    <rect id="矩形" opacity="0" x="0" y="0" width="20" height="20"></rect>
                    <path d="M10.915286,11.952 L12.8650134,11.952 L12.8650134,14.992 C12.8650134,15.344 12.8126014,15.6506667 12.7077774,15.912 C12.6029533,16.1733333 12.4640614,16.3866667 12.2911017,16.552 C12.118142,16.7173333 11.9163557,16.84 11.6857428,16.92 C11.4551299,17 11.2087933,17.04 10.9467332,17.04 L3.99689827,17.04 C3.74532054,17.04 3.49898401,16.9893333 3.25788868,16.888 C3.01679335,16.7866667 2.80452463,16.6453333 2.62108253,16.464 C2.43764044,16.2826667 2.28826615,16.0693333 2.17295969,15.824 C2.05765323,15.5786667 2,15.3066667 2,15.008 L2,3.968 C2,3.712 2.06027383,3.46666667 2.1808215,3.232 C2.30136916,2.99733333 2.45598464,2.78933333 2.64466795,2.608 C2.83335125,2.42666667 3.04299936,2.28 3.27361228,2.168 C3.50422521,2.056 3.73483813,2 3.96545106,2 L10.8681152,2 C11.1406577,2 11.3974766,2.06133333 11.638572,2.184 C11.8796673,2.30666667 12.091936,2.46133333 12.2753781,2.648 C12.4588202,2.83466667 12.6029533,3.04533333 12.7077774,3.28 C12.8126014,3.51466667 12.8650134,3.744 12.8650134,3.968 L12.8650134,6.912 L10.915286,6.912 L10.9310096,3.856 L3.98117466,3.856 L3.96545106,15.008 L10.915286,15.008 L10.915286,11.952 L10.915286,11.952 Z M17.6764376,8.96 C18.0642866,9.28 18.074769,9.59466667 17.7078848,9.904 C17.4982367,10.064 17.2702444,10.2613333 17.0239079,10.496 C16.7775713,10.7306667 16.5207524,10.9733333 16.2534511,11.224 C15.9861497,11.4746667 15.721469,11.7226667 15.4594088,11.968 C15.1973487,12.2133333 14.9562534,12.4266667 14.7361228,12.608 C14.4950275,12.8 14.288,12.896 14.1150403,12.896 C13.9420806,12.896 13.8556008,12.768 13.8556008,12.512 C13.8765656,12.3626667 13.8791862,12.176 13.8634626,11.952 C13.847739,11.728 13.8398772,11.536 13.8398772,11.376 C13.8398772,11.1946667 13.7769827,11.0826667 13.6511939,11.04 C13.525405,10.9973333 13.3734101,10.976 13.1952092,10.976 L11.6071248,10.976 C11.250723,10.976 10.875977,10.9733333 10.4828868,10.968 C10.0897965,10.9626667 9.71505054,10.96 9.35864875,10.96 L7.75484069,10.96 C7.67098145,10.96 7.5792604,10.952 7.47967754,10.936 C7.38009469,10.92 7.29099424,10.8853333 7.2123762,10.832 C7.13375816,10.7786667 7.07086372,10.704 7.0236929,10.608 C6.97652207,10.512 6.95293666,10.3893333 6.95293666,10.24 C6.95293666,10.0373333 6.95031606,9.79733333 6.94507486,9.52 C6.93983365,9.24266667 6.94245425,8.99733333 6.95293666,8.784 C6.95293666,8.496 7.0210723,8.29866667 7.15734357,8.192 C7.29361484,8.08533333 7.51374536,8.03733333 7.81773512,8.048 L9.24858349,8.048 C9.58402047,8.048 9.94304287,8.05066667 10.3256507,8.056 C10.7082585,8.06133333 11.0725221,8.064 11.4184415,8.064 L12.9593551,8.064 C13.2214152,8.07466667 13.4441663,8.05333333 13.6276084,8 C13.8110505,7.94666667 13.9027716,7.82933333 13.9027716,7.648 C13.9027716,7.49866667 13.9080128,7.33066667 13.9184952,7.144 C13.9289776,6.95733333 13.9342188,6.78933333 13.9342188,6.64 C13.9342188,6.39466667 13.9997338,6.24 14.1307639,6.176 C14.261794,6.112 14.4268919,6.16 14.6260576,6.32 C14.8252233,6.49066667 15.0584568,6.69066667 15.3257582,6.92 C15.5930595,7.14933333 15.8629814,7.384 16.135524,7.624 C16.4080665,7.864 16.6779885,8.10133333 16.9452898,8.336 C17.2125912,8.57066667 17.4563071,8.77866667 17.6764376,8.96 L17.6764376,8.96 Z" id="形状"></path>
                </g>
            </g>
        </g>
    </g>
</svg>