<?xml version="1.0" encoding="UTF-8"?>
<svg width="21px" height="20px" viewBox="0 0 21 20" version="1.1" xmlns="http://www.w3.org/2000/svg" xmlns:xlink="http://www.w3.org/1999/xlink">
    <title>lz-zhinengtongzhi</title>
    <g id="后台" stroke="none" stroke-width="1" fill="none" fill-rule="evenodd">
        <g id="web--在线咨询" transform="translate(-1324.000000, -20.000000)" fill="#008AFE" fill-rule="nonzero">
            <g id="编组-3" transform="translate(209.000000, 0.000000)">
                <g id="编组-18" transform="translate(1115.500000, 17.000000)">
                    <g id="lz-zhinengtongzhi" transform="translate(0.000000, 3.000000)">
                        <rect id="矩形" opacity="0" x="0" y="0" width="20" height="20"></rect>
                        <path d="M13.7912976,11.3353123 L13.6319226,11.3634373 C13.0580846,11.5688297 12.4244184,11.2847486 12.1959851,10.7196873 L10.9178601,7.26031233 C10.4332905,5.95187886 9.43708194,4.89700342 8.15848514,4.33843733 C6.88417888,3.78373249 5.43793564,3.77695322 4.15848514,4.31968733 C1.62879764,5.37749983 0.502235137,8.35874983 1.43348514,10.9446873 L2.63661014,14.2634373 C2.83843924,14.8381816 2.54615229,15.4691612 1.97723514,15.6868748 L1.82411014,15.7259373 C1.16346792,15.9958947 0.835328453,16.7405986 1.08192264,17.4103123 L1.23817264,17.8415623 C1.28427389,17.950398 1.37189025,18.0363443 1.48159293,18.0803427 C1.59129561,18.1243411 1.71401837,18.1227555 1.82254764,18.0759373 L15.1881726,13.1009373 C15.4325308,12.9898397 15.5502739,12.7094341 15.4584851,12.4571873 L15.3053601,12.0243748 C15.2189025,11.7155125 15.0005126,11.4605663 14.7085883,11.3277091 C14.4166639,11.1948518 14.0809796,11.1976343 13.7912976,11.3353123 L13.7912976,11.3353123 Z M10.5256726,16.2728123 L7.61317264,17.3728123 C7.52416296,17.4067762 7.45525681,17.4791277 7.42567264,17.5696873 C7.39490301,17.660425 7.4063682,17.7601722 7.45692264,17.8415623 C7.93570974,18.6167765 8.8961541,18.944781 9.74911014,18.6243748 C10.5897351,18.3071873 11.1037976,17.4493748 10.9928601,16.5509373 C10.9174982,16.3636285 10.7262554,16.2497783 10.5256726,16.2728123 L10.5256726,16.2728123 Z M19.4225476,10.3978123 C20.0728745,8.17551931 19.7491439,5.78161687 18.5319226,3.81187483 C17.3416085,1.83325329 15.3675772,0.452680782 13.1006726,0.013437331 C13.0226903,-0.0123550178 12.9371623,-0.000620010895 12.8690088,0.0452231405 C12.8008553,0.091066292 12.7577436,0.16586022 12.7522351,0.247812331 L12.5569226,1.34624983 C12.5194226,1.50249983 12.6350476,1.61968733 12.7912976,1.66812483 C14.5677383,2.04240289 16.109767,3.13585169 17.0506726,4.68843733 C17.9975476,6.24312483 18.2647351,8.12593733 17.7881726,9.88687483 C17.7448624,10.0386746 17.8320474,10.1970026 17.9834851,10.2415623 L19.0334851,10.5915623 C19.2287976,10.5915623 19.3819226,10.5540623 19.4209851,10.3962498 L19.4209851,10.3993748 L19.4225476,10.3978123 Z M15.1491101,5.84937483 C14.5315099,4.83883898 13.5156983,4.13628326 12.3522351,3.91499983 C12.1923658,3.89394364 12.0417676,3.99501177 12.0006726,4.15093733 L11.8756726,5.29781233 C11.8602392,5.44952331 11.9610735,5.58867477 12.1100476,5.62124983 C12.7725476,5.76343733 13.3491101,6.17437483 13.7053601,6.75718733 C14.0647351,7.33218733 14.1631726,8.03531233 13.9772351,8.68999983 C13.9384111,8.82154026 14.0061153,8.96101102 14.1334851,9.01187483 L15.1881726,9.43062483 C15.3444226,9.50874983 15.5069226,9.39312483 15.5772351,9.23531233 C15.9265107,8.10263999 15.7704859,6.874372 15.1491101,5.86499983 L15.1491101,5.84937483 L15.1491101,5.84937483 Z" id="形状"></path>
                    </g>
                </g>
            </g>
        </g>
    </g>
</svg>