<svg xmlns="http://www.w3.org/2000/svg" xmlns:xlink="http://www.w3.org/1999/xlink" fill="none" version="1.1" width="57" height="60" viewBox="0 0 57 60"><g transform="matrix(1,-2.2348338291067193e-8,2.2348338291067193e-8,1,0,0)"><g><path d="M0,13L0,56Q0,56.1965,0.0192611,56.3921Q0.0385222,56.5876,0.0768589,56.7804Q0.115196,56.9731,0.172239,57.1611Q0.229282,57.3492,0.304482,57.5307Q0.379682,57.7123,0.472315,57.8856Q0.564948,58.0589,0.674121,58.2223Q0.783295,58.3857,0.907958,58.5376Q1.03262,58.6895,1.17157,58.8284Q1.31052,58.9674,1.46243,59.092Q1.61433,59.2167,1.77772,59.3259Q1.94111,59.4351,2.11441,59.5277Q2.28772,59.6203,2.46927,59.6955Q2.65082,59.7707,2.83886,59.8278Q3.02691,59.8848,3.21964,59.9231Q3.41237,59.9615,3.60793,59.9807Q3.80349,60,4,60L42,60Q42.1965,60,42.3921,59.9807Q42.5876,59.9615,42.7804,59.9231Q42.9731,59.8848,43.1611,59.8278Q43.3492,59.7707,43.5307,59.6955Q43.7123,59.6203,43.8856,59.5277Q44.0589,59.4351,44.2223,59.3259Q44.3857,59.2167,44.5376,59.092Q44.6895,58.9674,44.8284,58.8284Q44.9674,58.6895,45.092,58.5376Q45.2167,58.3857,45.3259,58.2223Q45.4351,58.0589,45.5277,57.8856Q45.6203,57.7123,45.6955,57.5307Q45.7707,57.3492,45.8278,57.1611Q45.8848,56.9731,45.9231,56.7804Q45.9615,56.5876,45.9807,56.3921Q46,56.1965,46,56L46,13Q46,12.80349,45.9807,12.60793Q45.9615,12.41237,45.9231,12.21964Q45.8848,12.02691,45.8278,11.83886Q45.7707,11.65082,45.6955,11.46927Q45.6203,11.28772,45.5277,11.11441Q45.4351,10.94111,45.3259,10.77772Q45.2167,10.61433,45.092,10.46243Q44.9674,10.31052,44.8284,10.17157Q44.6895,10.03262,44.5376,9.907958Q44.3857,9.783295,44.2223,9.674121Q44.0589,9.564948,43.8856,9.472315Q43.7123,9.379682,43.5307,9.304482Q43.3492,9.229282,43.1611,9.172239Q42.9731,9.115196,42.7804,9.0768589Q42.5876,9.0385222,42.3921,9.0192611Q42.1965,9,42,9L4,9Q3.80349,9,3.60793,9.0192611Q3.41237,9.0385222,3.21964,9.0768589Q3.02691,9.115196,2.83886,9.172239Q2.65082,9.229282,2.46927,9.304482Q2.28772,9.379682,2.11441,9.472315Q1.94111,9.564948,1.77772,9.674121Q1.61433,9.783295,1.46243,9.907958Q1.31052,10.03262,1.17157,10.17157Q1.03262,10.31052,0.907958,10.46243Q0.783295,10.61433,0.674121,10.77772Q0.564948,10.94111,0.472315,11.11441Q0.379682,11.28772,0.304482,11.46927Q0.229282,11.65082,0.172239,11.83886Q0.115196,12.02691,0.0768589,12.21964Q0.0385222,12.41237,0.0192611,12.60793Q0,12.80349,0,13ZM8,45.3072L10.1742,45.0463C11.385,44.9058,13.0842,44.4442,15.2182,43.6682C16.9642,43.0461,18.5095,42.2098,19.8274,41.1796C17.573,38.5506,15.8939,35.004999999999995,14.8168,30.6233L14.4823,30.6233C12.9571,30.6233,11.6325,30.6968,10.5421,30.844L9.40484,30.9979L9.40484,26.4288L10.4551,26.4756C12.1543,26.5492,13.7398,26.5894,15.1647,26.5894L20.9981,26.5894C20.2489,25.2514,19.5665,24.1008,18.9577,23.1575L18.2219,22.0203L19.5264,21.645699999999998C19.8006,21.5654,20.2957,21.337899999999998,21.0984,20.695700000000002L21.9681,20L22.5702,20.9366C23.4131,22.2411,24.4165,23.8934,25.5404,25.8468L25.9686,26.5894L31.2334,26.5894C32.5847,26.5894,34.2036,26.5492,36.0566,26.4756L37.1002,26.4355L37.1002,30.8975L36.0566,30.8574C34.3976,30.7905,32.5646,30.7504,30.5978,30.7437C30.1898,32.850899999999996,29.5208,34.8512,28.6244,36.6841C27.7948,38.363299999999995,26.9051,39.821600000000004,25.9686,41.0258C27.1861,41.9422,28.718,42.7116,30.5309,43.327C32.772,44.0896,34.7521,44.5445,36.4045,44.6917L38.9533,44.9125L36.933,46.4846C36.3777,46.9194,35.8626,47.6017,35.4077,48.5182L35.0532,49.2273L34.2772,49.0467C32.9459,48.7323,31.2802,48.2038,29.1796,47.4278C27.2396,46.712,25.1591,45.5279,22.985,43.9157C19.9211,46.3106,16.2819,48.1035,12.1476,49.2675L11.1308,49.5551L10.8966,48.5249C10.8231,48.2038,10.5421,47.6352,9.61222,46.7856L8,45.3072ZM26.1692,30.7504L19.1852,30.7504C19.7873,33.6738,20.9981,36.1958,22.7843,38.2696C24.4366,36.0152,25.5672,33.4931,26.1692,30.7504Z" fill-rule="evenodd" fill="#FFFFFF" fill-opacity="1"/></g><g><path d="M52,0L21,0L21,5L52,5L52,46L57,46L57,5C57,2.23858,54.7614,0,52,0Z" fill-rule="evenodd" fill="#FFFFFF" fill-opacity="1"/></g></g></svg>