<?xml version="1.0" standalone="no"?><!DOCTYPE svg PUBLIC "-//W3C//DTD SVG 1.1//EN" "http://www.w3.org/Graphics/SVG/1.1/DTD/svg11.dtd"><svg t="1698040103147" class="icon" viewBox="0 0 1024 1024" version="1.1" xmlns="http://www.w3.org/2000/svg" p-id="1490" xmlns:xlink="http://www.w3.org/1999/xlink" width="128" height="128"><path d="M443.008 854.016H212q-8 0-15.488-2.016t-13.504-8.992q-3.008-4-4.512-12.512t-1.504-17.504V150.976q0-3.008 2.496-11.488t8.512-15.488q10.016-10.016 16.512-12.992t7.488-3.008h358.016v96q0 4.992 3.008 23.488t16 35.488q14.016 15.008 28.992 22.496t18.016 8.512l4 2.016h127.008v114.016l40 31.008 7.008 7.008V242.016l-204.992-180H212.064q-4-0.992-20 4t-36.992 24.992q-16 18.016-20.512 36t-3.488 22.016v664q-0.992 6.016 1.504 24.512t13.504 34.496q15.008 19.008 39.008 24.992 18.016 4 27.008 3.008h315.008q-28.992-8.992-56-24l-28-22.016m173.888-723.008l132.992 118.016h-100.992q-6.016-2.016-12.992-6.496t-11.488-9.504-6.016-12.992-1.504-14.016V131.008m308 767.008q11.008 11.008 11.008 26.016t-11.008 26.016-26.496 11.008-26.496-11.008l-115.008-115.008q-32 23.008-68.992 35.488t-76 12.512q-104.992-3.008-174.016-72.512t-72-172.512q3.008-104 72.512-173.504t173.504-72.512q104 3.008 172.992 72t72 172.992q0 40.992-12.512 78.016t-35.488 67.008l116 116m-312-76q78.016-2.016 130.496-54.016t53.504-131.008q-0.992-78.016-53.504-130.496t-130.496-54.496q-79.008 2.016-131.008 54.496t-54.016 130.496q2.016 79.008 54.016 131.008t131.008 54.016z" p-id="1491"></path></svg>