<svg xmlns="http://www.w3.org/2000/svg" xmlns:xlink="http://www.w3.org/1999/xlink" fill="" version="1.1" width="18.75" height="21" viewBox="0 0 18.75 21"><g><path d="M3.24975,0L18.75,0L18.75,1.5L3.24975,1.5C2.292,1.5,1.5,2.33175,1.5,3.375C1.5,4.41825,2.292,5.25,3.24975,5.25L18.75,5.25L18.75,21L3.6075,21C1.6065,21,0,19.3132,0,17.25L0,3.75L0.036,3.75C0.0232499,3.6255,0,3.50325,0,3.375C0,1.51875,1.44675,0,3.24975,0ZM17.2499,2.625L3.74463,2.625L3.74463,4.125L17.2499,4.125L17.2499,2.625ZM7.125,6.75L3.24975,6.75C2.6025,6.75,2.00475,6.54825,1.5,6.2115L1.5,17.25C1.5,18.5003,2.45175,19.5,3.6075,19.5L17.25,19.5L17.25,6.75L14.25,6.75L14.25,12.3308C14.2502,12.6182,14.0861,12.8804,13.8276,13.0059C13.569,13.1314,13.2615,13.0982,13.0358,12.9203L10.6875,11.0707L8.33925,12.9203C8.11353,13.0982,7.80599,13.1314,7.54745,13.0059C7.2889,12.8804,7.12483,12.6182,7.125,12.3308L7.125,6.75ZM12.75,6.75L8.625,6.75L8.625,10.7858L10.224,9.52725C10.4961,9.31276,10.8797,9.31276,11.1517,9.52725L12.75,10.7858L12.75,6.75Z" fill-rule="evenodd" fill="" fill-opacity="1"/></g></svg>