<svg xmlns="http://www.w3.org/2000/svg" xmlns:xlink="http://www.w3.org/1999/xlink" fill="none" version="1.1" width="12" height="12" viewBox="0 0 12 12"><g><path d="M4.73687,9.1579L4.73687,7.26316L2.84208,7.26316C1.79573,7.26316,0.947354,8.11154,0.947354,9.1579C0.947354,10.2044,1.79573,11.0526,2.84208,11.0526C3.88851,11.0526,4.73687,10.2044,4.73687,9.1579ZM5.68424,9.1579C5.68424,10.7276,4.41175,12,2.84208,12C1.27248,12,0,10.7276,0,9.1579C0,7.58822,1.27248,6.3158,2.84208,6.3158L4.73687,6.3158L5.68424,6.3158L5.68424,7.26316L5.68424,9.1579ZM7.26313,9.1579L7.26313,7.26316L9.15785,7.26316C10.2043,7.26316,11.0526,8.11154,11.0526,9.1579C11.0526,10.2044,10.2043,11.0526,9.15785,11.0526C8.11149,11.0526,7.26313,10.2044,7.26313,9.1579ZM6.31576,9.1579C6.31576,10.7276,7.58823,12,9.15785,12C10.7275,12,12,10.7276,12,9.1579C12,7.58822,10.7275,6.3158,9.15785,6.3158L7.26313,6.3158L6.31576,6.3158L6.31576,7.26316L6.31576,9.1579ZM4.73687,2.8421L4.73687,4.7369L2.84208,4.7369C1.79573,4.7369,0.947354,3.88852,0.947354,2.8421C0.947354,1.79572,1.79573,0.947361,2.84208,0.947361C3.88851,0.94736,4.73687,1.79572,4.73687,2.8421ZM5.68424,2.8421C5.68424,1.27248,4.41175,0,2.84208,0C1.27248,0,0,1.27248,0,2.8421C0,4.41178,1.27248,5.68426,2.84208,5.68426L4.73687,5.68426L5.68424,5.68426L5.68424,4.7369L5.68424,2.8421ZM7.26313,2.8421L7.26313,4.7369L9.15785,4.7369C10.2043,4.7369,11.0526,3.88852,11.0526,2.8421C11.0526,1.79572,10.2043,0.947361,9.15785,0.947361C8.11149,0.94736,7.26313,1.79572,7.26313,2.8421ZM6.31576,2.8421C6.31576,1.27248,7.58823,0,9.15785,0C10.7275,0,12,1.27248,12,2.8421C12,4.41178,10.7275,5.68426,9.15785,5.68426L7.26313,5.68426L6.31576,5.68426L6.31576,4.7369L6.31576,2.8421Z" fill="#FFFFFF" fill-opacity="1"/></g></svg>