<?xml version="1.0" standalone="no"?><!DOCTYPE svg PUBLIC "-//W3C//DTD SVG 1.1//EN" "http://www.w3.org/Graphics/SVG/1.1/DTD/svg11.dtd"><svg t="1735114390958" class="icon" viewBox="0 0 1024 1024" version="1.1" xmlns="http://www.w3.org/2000/svg" p-id="13600" xmlns:xlink="http://www.w3.org/1999/xlink" width="200" height="200"><path d="M530.432 222.003c28.57-14.49 59.443-31.078 91.136-46.08 65.946-31.385 134.093-57.651 203.008-81.817 12.954-4.506 26.266-9.165 39.731-10.752 50.227-6.093 99.43 32.819 106.547 83.046 4.916 34.304-4.761 63.846-29.235 88.371C712.55 483.84 483.533 713.114 254.362 942.08c-28.007 28.006-61.952 37.171-99.84 26.112-37.888-11.11-61.594-37.274-69.632-75.98-7.373-35.534 3.072-66.458 28.62-92.11 61.594-61.747 123.29-123.392 184.986-184.985 1.843-1.843 4.25-3.072 6.758-4.915l-24.576-19.456c-23.398-18.944-41.472-42.906-60.928-65.536-50.073-58.01-99.84-116.276-149.81-174.388-26.113-30.31-24.935-65.28 3.327-93.542 8.346-8.397 16.794-16.742 25.088-25.14 7.936-7.935 17.05-13.67 27.7-17.254 2.355-0.768 4.351-3.584 5.785-5.836 5.632-8.807 9.882-18.688 16.589-26.522 10.393-12.083 22.425-22.886 33.792-34.202 7.68-7.73 16.793-13.21 27.238-16.69 2.304-0.769 4.301-3.585 5.735-5.889 5.427-8.653 9.574-18.33 16.025-26.06 9.011-10.753 19.507-20.225 29.594-30.004a63.13 63.13 0 0 1 86.17-2.97c56.217 47.821 112.127 95.95 168.294 143.873 4.659 3.993 9.881 7.424 15.155 11.366zM178.074 908.8a41.728 41.728 0 0 0 33.638-13.67C439.347 667.29 667.034 439.552 894.72 211.814c1.536-1.536 3.072-3.072 4.608-4.761a35.994 35.994 0 0 0 5.888-39.885 34.56 34.56 0 0 0-35.174-20.48c-7.68 0.87-15.207 3.891-22.528 6.656-51.098 19.763-102.503 38.81-153.19 59.7-50.484 20.786-99.892 44.134-145.409 74.854-30.003 20.224-57.446 43.366-78.899 72.908a26.01 26.01 0 0 0-5.325 16.384c0.205 52.02 0.103 104.09 0 156.16 0 2.458-0.307 5.581-1.792 7.27a336.282 336.282 0 0 1-21.145 23.4c-21.965 21.503-44.544 42.393-66.253 64.102-71.783 71.475-143.258 143.155-214.887 214.784-1.843 1.894-3.788 3.686-5.427 5.734-9.677 11.776-11.93 24.832-5.632 38.758 6.195 13.927 17.562 20.736 28.519 21.402z m228.505-571.802l-177.561-143.36-35.38 35.328 144.487 178.33-23.501 23.757-169.216-154.47-29.696 29.593 2.048 2.765c61.235 71.321 122.368 142.745 183.706 213.862 13.824 16.026 30.617 28.672 48.64 40.346 15.616-15.616 30.72-30.925 46.08-45.978a13.107 13.107 0 0 0 4.198-10.291c-0.102-45.926-0.358-91.853 0.154-137.728 0.153-11.008-3.226-23.142 6.041-32.154z m67.175-78.182c-55.962-47.872-111.975-95.744-166.912-142.848l-29.799 29.798 149.248 163.79 47.463-50.689z m373.35 713.78c-36.608-0.513-67.891-13.825-92.57-41.32C694.067 864 634.061 796.263 573.338 729.14c-17.92-19.814-9.472-47.974 12.8-54.118 13.312-3.635 24.576 0.205 33.792 10.496l78.643 87.91L801.33 888.422a61.44 61.44 0 0 0 88.883 3.124c25.396-24.832 25.088-65.536-1.228-89.293-44.698-40.295-89.652-80.333-134.503-120.474-23.398-20.992-46.95-41.728-70.144-62.925a31.54 31.54 0 0 1 6.656-52.07c12.288-6.144 25.6-4.198 36.557 5.632l136.55 122.112c22.426 20.07 45.261 39.68 67.124 60.365 38.195 36.096 50.688 80.486 34.918 130.355-15.872 50.176-52.224 78.54-104.294 86.528-4.762 0.768-9.677 0.563-14.746 0.82z" fill="#2C2C2C" p-id="13601"></path></svg>