<svg xmlns="http://www.w3.org/2000/svg" xmlns:xlink="http://www.w3.org/1999/xlink" fill="none" version="1.1" width="56" height="51" viewBox="0 0 56 51"><g transform="matrix(1,-7.63568266393122e-8,7.63568266393122e-8,1,0,0)"><g><g><path d="M28,0C31.866,0,35,3.17114,35,7.08295C35,10.9948,31.866,14.1659,28,14.1659C24.134,14.1659,21,10.9948,21,7.08295C21,3.17114,24.134,0,28,0ZM25.2,7.08295C25.2,8.64767,26.4536,9.91613,28,9.91613C29.5464,9.91613,30.8,8.64767,30.8,7.08295C30.8,5.51823,29.5464,4.24977,28,4.24977C26.4536,4.24977,25.2,5.51823,25.2,7.08295ZM7,5.66636C10.866,5.66636,14,8.8375,14,12.7493C14,16.6611,10.866,19.8323,7,19.8323C3.13401,19.8323,0,16.6611,0,12.7493C0,8.8375,3.13401,5.66636,7,5.66636ZM49,5.66636C52.866,5.66636,56,8.8375,56,12.7493C56,16.6611,52.866,19.8323,49,19.8323C45.134,19.8323,42,16.6611,42,12.7493C42,8.8375,45.134,5.66636,49,5.66636ZM4.2,12.7493C4.2,14.314,5.4536,15.5825,7,15.5825C8.5464,15.5825,9.8,14.314,9.8,12.7493C9.8,11.1846,8.5464,9.91613,7,9.91613C5.4536,9.91613,4.2,11.1846,4.2,12.7493ZM46.2,12.7493C46.2,14.314,47.4536,15.5825,49,15.5825C50.5464,15.5825,51.8,14.314,51.8,12.7493C51.8,11.1846,50.5464,9.91613,49,9.91613C47.4536,9.91613,46.2,11.1846,46.2,12.7493ZM42.168,33.321L43.736,24.1131C44.3645,21.5965,46.6027,19.8338,49.168,19.835L50.4,19.835C53.4928,19.835,56,22.3719,56,25.5014L56,47.7702C56,49.554,54.5709,51,52.808,51L3.192,51C1.42911,51,0,49.554,0,47.7702L0,25.5014C0,22.3719,2.50721,19.835,5.6,19.835L6.832,19.835C9.45967,19.7543,11.7891,21.5338,12.432,24.1131L14,33.321L14,25.5014C14,19.2425,19.0144,14.1687,25.2,14.1687L30.8,14.1687C36.9856,14.1687,42,19.2425,42,25.5014L42,34.0009C42.0421,33.771,42.0982,33.5439,42.168,33.321ZM26.04,23.4329L26.04,29.2643Q26.04,29.3716,26.0505,29.4784Q26.061,29.5852,26.0819,29.6904Q26.1029,29.7957,26.134,29.8983Q26.1652,30.001,26.2062,30.1001Q26.2473,30.1993,26.2979,30.2939Q26.3484,30.3885,26.408,30.4777Q26.4677,30.5669,26.5357,30.6499Q26.6038,30.7328,26.6797,30.8087Q26.7555,30.8845,26.8385,30.9526Q26.9214,31.0207,27.0106,31.0803Q27.0998,31.1399,27.1944,31.1905Q27.2891,31.241,27.3882,31.2821Q27.4873,31.3232,27.59,31.3543Q27.6927,31.3855,27.7979,31.4064Q27.9031,31.4273,28.0099,31.4378Q28.1167,31.4483,28.224,31.4483Q28.3313,31.4483,28.438,31.4378Q28.5448,31.4273,28.6501,31.4064Q28.7553,31.3855,28.858,31.3543Q28.9606,31.3232,29.0598,31.2821Q29.1589,31.241,29.2535,31.1905Q29.3481,31.1399,29.4373,31.0803Q29.5266,31.0207,29.6095,30.9526Q29.6924,30.8845,29.7683,30.8087Q29.8442,30.7328,29.9122,30.6499Q29.9803,30.5669,30.0399,30.4777Q30.0995,30.3885,30.1501,30.2939Q30.2007,30.1993,30.2417,30.1001Q30.2828,30.001,30.3139,29.8983Q30.3451,29.7957,30.366,29.6904Q30.3869,29.5852,30.3975,29.4784Q30.408,29.3716,30.408,29.2643L30.408,23.4329Q30.408,23.3256,30.3975,23.2188Q30.3869,23.1121,30.366,23.0068Q30.3451,22.9016,30.3139,22.7989Q30.2828,22.6962,30.2417,22.5971Q30.2007,22.498,30.1501,22.4034Q30.0995,22.3087,30.0399,22.2195Q29.9803,22.1303,29.9122,22.0474Q29.8442,21.9644,29.7683,21.8886Q29.6924,21.8127,29.6095,21.7446Q29.5266,21.6766,29.4373,21.617Q29.3481,21.5574,29.2535,21.5068Q29.1589,21.4562,29.0598,21.4151Q28.9606,21.3741,28.858,21.3429Q28.7553,21.3118,28.6501,21.2909Q28.5448,21.2699,28.438,21.2594Q28.3313,21.2489,28.224,21.2489Q28.1167,21.2489,28.0099,21.2594Q27.9031,21.2699,27.7979,21.2909Q27.6927,21.3118,27.59,21.3429Q27.4873,21.3741,27.3882,21.4151Q27.2891,21.4562,27.1944,21.5068Q27.0998,21.5574,27.0106,21.617Q26.9214,21.6766,26.8385,21.7446Q26.7555,21.8127,26.6797,21.8886Q26.6038,21.9644,26.5357,22.0474Q26.4677,22.1303,26.408,22.2195Q26.3484,22.3087,26.2979,22.4034Q26.2473,22.498,26.2062,22.5971Q26.1652,22.6962,26.134,22.7989Q26.1029,22.9016,26.0819,23.0068Q26.061,23.1121,26.0505,23.2188Q26.04,23.3256,26.04,23.4329Z" fill-rule="evenodd" fill="#FFFFFF" fill-opacity="1"/></g></g></g></svg>