<svg xmlns="http://www.w3.org/2000/svg" xmlns:xlink="http://www.w3.org/1999/xlink" fill="" version="1.1" width="16" height="16" viewBox="0 0 16 16"><defs><clipPath id="master_svg0_365_09697"><rect x="0" y="0" width="16" height="16" rx="0"/></clipPath></defs><g clip-path="url(#master_svg0_365_09697)"><g><path d="M13.454555932617188,6.54546373046875L12.727255932617188,6.54546373046875L12.727255932617188,2.90909673046875L3.2727289326171873,2.90909673046875L3.2727289326171873,6.54546373046875L2.5454559326171875,6.54546373046875L2.5454559326171875,2.18182373046875L13.454555932617188,2.18182373046875L13.454555932617188,6.54546373046875Z" fill="" fill-opacity="1"/></g><g><path d="M14.909111865234374,13.81817626953125L11.272711865234376,13.81817626953125L11.272711865234376,12.727266269531249L4.727271865234375,12.727266269531249L4.727271865234375,13.81817626953125L1.090911865234375,13.81817626953125L1.090911865234375,5.81817626953125L4.727271865234375,5.81817626953125L4.727271865234375,8.727266269531249L11.272711865234376,8.727266269531249L11.272711865234376,5.81817626953125L14.909111865234374,5.81817626953125L14.909111865234374,13.81817626953125ZM12.000011865234375,13.09090626953125L14.181811865234375,13.09090626953125L14.181811865234375,6.54544926953125L12.000011865234375,6.54544926953125L12.000011865234375,9.45453626953125L4.000001865234375,9.45453626953125L4.000001865234375,6.54544926953125L1.8181848652343748,6.54544926953125L1.8181848652343748,13.09090626953125L4.000001865234375,13.09090626953125L4.000001865234375,11.99999626953125L12.000011865234375,11.99999626953125L12.000011865234375,13.09090626953125Z" fill="" fill-opacity="1"/></g><g><path d="M7.890911694335937,7.89091322265625L6.0363616943359375,6.65455322265625L6.436361694335938,6.03637322265625L7.672721694335937,6.87273322265625L9.709091694335937,3.85455322265625L10.327271694335938,4.25455322265625L7.890911694335937,7.89091322265625Z" fill="#B5C0FD" fill-opacity="1"/></g></g></svg>