<?xml version="1.0" standalone="no"?><!DOCTYPE svg PUBLIC "-//W3C//DTD SVG 1.1//EN" "http://www.w3.org/Graphics/SVG/1.1/DTD/svg11.dtd"><svg t="1679029860940" class="icon" viewBox="0 0 1072 1024" version="1.1" xmlns="http://www.w3.org/2000/svg" p-id="4412" xmlns:xlink="http://www.w3.org/1999/xlink" width="134" height="128"><path d="M146.32932 1024a48.760187 48.760187 0 0 1-48.760187-48.760187v-438.841678h-48.760186C6.095023 536.398135-15.115658 485.785061 12.433848 455.261184l3.852054-3.900815 487.504345-438.841679a48.760187 48.760187 0 0 1 65.24113 0l487.504345 438.841679c33.205687 29.938755 12.043766 85.037765-32.620565 85.037766h-48.760186v438.841678a48.760187 48.760187 0 0 1-43.055245 48.418866L926.443544 1024zM536.362052 114.37872L194.796945 421.811696 195.040746 926.479627H341.321306v-243.800933a48.760187 48.760187 0 0 1 43.104005-48.418865L390.130253 633.918508h292.463598a48.760187 48.760187 0 0 1 48.760187 48.760186v243.800933h146.28056V421.811696L536.362052 114.37872zM633.882425 731.438881H438.841679v195.040746h195.040746v-195.040746z" fill="" p-id="4413"></path></svg>