<svg xmlns="http://www.w3.org/2000/svg" xmlns:xlink="http://www.w3.org/1999/xlink" fill="" version="1.1" width="27.9998779296875" height="27.51483154296875" viewBox="0 0 27.9998779296875 27.51483154296875"><g><path d="M15.2222,27.5148C15.823,27.5148,16.3101,27.0213,16.3101,26.4125C16.3101,25.8125,15.837,25.3249,15.2482,25.3108L2.85535,25.3101C2.47099,25.3101,2.15831,24.9933,2.15831,24.6039L2.15831,2.89319C2.15831,2.50372,2.47099,2.18695,2.85535,2.18695L22.1581,2.18695C22.5425,2.18695,22.8552,2.50372,22.8552,2.89319L22.8552,13.2282C22.8552,13.8321,23.3383,14.3217,23.9343,14.3217C24.5303,14.3217,25.0135,13.8321,25.0135,13.2282L25.0135,2.89319C25.0135,1.29785,23.7326,0,22.1581,0L2.85535,0C1.28088,0,0,1.29785,0,2.89319L0,24.6039C0,26.1992,1.28088,27.4971,2.85535,27.4971L15.0285,27.4971C15.0914,27.5085,15.156,27.5148,15.2222,27.5148ZM22.5121,8.7547C22.5121,8.06396,21.9935,7.50403,21.3536,7.50403L6.16119,7.50403C5.52136,7.50403,5.00269,8.06396,5.00269,8.7547C5.00269,9.44543,5.52136,10.0054,6.16119,10.0054L21.3536,10.0054C21.9935,10.0054,22.5121,9.44543,22.5121,8.7547ZM17.5094,13.7574C17.5094,13.0667,16.9531,12.5067,16.2668,12.5067L6.24529,12.5067C5.55901,12.5067,5.00269,13.0667,5.00269,13.7574C5.00269,14.4481,5.55901,15.0081,6.24529,15.0081L16.2668,15.0081C16.9531,15.0081,17.5094,14.4481,17.5094,13.7574ZM5.93501,17.5095C5.42009,17.5095,5.00269,18.0694,5.00269,18.7601C5.00269,19.4509,5.42009,20.0108,5.93501,20.0108L11.5744,20.0108C12.0893,20.0108,12.5067,19.4509,12.5067,18.7601C12.5067,18.0694,12.0893,17.5095,11.5744,17.5095L5.93501,17.5095ZM18.9634,21.518L26.8414,21.5233C27.4812,21.5233,27.9999,21.9686,27.9999,22.5176C27.9999,23.0666,27.4812,23.5116,26.8414,23.5116L18.9633,23.5063L21.6573,25.8179C22.1098,26.2061,22.1098,26.8355,21.6573,27.2237C21.4311,27.4178,21.1347,27.5148,20.8382,27.5148C20.5417,27.5148,20.2452,27.4178,20.019,27.2237L15.3481,23.2158C15.3342,23.2039,15.3207,23.1917,15.3075,23.1791C15.3027,23.1746,15.2982,23.17,15.2936,23.1654C15.2858,23.1578,15.2781,23.1502,15.2706,23.1424C15.264,23.1356,15.2578,23.1286,15.2515,23.1216C15.2463,23.1159,15.2411,23.1102,15.236,23.1044C15.2291,23.0964,15.2226,23.0884,15.216,23.0803C15.2118,23.0751,15.2076,23.0701,15.2035,23.0649C15.1969,23.0565,15.1906,23.0479,15.1843,23.0392C15.1806,23.0341,15.1768,23.0291,15.1732,23.024C15.1672,23.0154,15.1615,23.0068,15.1559,22.9981C15.1522,22.9926,15.1486,22.9871,15.1451,22.9814C15.14,22.9733,15.1351,22.9649,15.1302,22.9566C15.1266,22.9503,15.1228,22.9439,15.1193,22.9375C15.1151,22.9299,15.1111,22.9222,15.1072,22.9146C15.1033,22.9072,15.0995,22.8998,15.0959,22.8923C15.0926,22.8856,15.0896,22.8787,15.0865,22.8718C15.0826,22.8633,15.0788,22.8549,15.0752,22.8462C15.0727,22.8403,15.0705,22.8342,15.0681,22.8282C15.0644,22.8187,15.0607,22.8091,15.052,22.7835C15.0486,22.7732,15.0452,22.7628,15.0422,22.7523C15.0408,22.7474,15.0396,22.7424,15.0382,22.7375C15.0353,22.7267,15.0325,22.7159,15.03,22.705C15.0288,22.7,15.0279,22.6949,15.0268,22.6899C15.0245,22.6791,15.0223,22.6683,15.0204,22.6573C15.0194,22.6516,15.0187,22.6458,15.0178,22.64C15.0163,22.6299,15.0147,22.6198,15.0136,22.6096C15.0127,22.6017,15.0122,22.594,15.0115,22.5862C15.0108,22.5779,15.0099,22.5696,15.0094,22.5612C15.0086,22.5466,15.0082,22.5321,15.0081,22.5067C15.0082,22.4922,15.0086,22.4777,15.0094,22.4631C15.0099,22.4548,15.0108,22.4465,15.0115,22.438C15.0122,22.4303,15.0127,22.4225,15.0136,22.4147C15.0147,22.4045,15.0163,22.3944,15.0178,22.3843C15.0187,22.3785,15.0194,22.3727,15.0204,22.3669C15.0223,22.356,15.0245,22.3452,15.0268,22.3345C15.0279,22.3294,15.0288,22.3243,15.03,22.3193C15.0325,22.3084,15.0353,22.2976,15.0382,22.2868C15.0396,22.2819,15.0408,22.2769,15.0422,22.272C15.0452,22.2615,15.0486,22.2511,15.0573,22.2249C15.0607,22.2152,15.0644,22.2056,15.0681,22.1961C15.0705,22.1901,15.0727,22.1841,15.0752,22.1781C15.0788,22.1694,15.0826,22.161,15.0865,22.1525C15.0896,22.1456,15.0926,22.1388,15.0959,22.132C15.0995,22.1245,15.1033,22.1171,15.1072,22.1097C15.1111,22.1021,15.1151,22.0944,15.1193,22.0868C15.1228,22.0804,15.1266,22.074,15.1302,22.0677C15.1351,22.0594,15.1399,22.0511,15.1451,22.0428C15.1486,22.0372,15.1522,22.0317,15.1559,22.0262C15.1615,22.0175,15.1672,22.0089,15.1732,22.0004C15.1768,21.9952,15.1806,21.9902,15.1843,21.9851C15.1906,21.9764,15.1969,21.9678,15.2035,21.9594C15.2076,21.9542,15.2118,21.9492,15.2159,21.9441C15.2225,21.936,15.2291,21.9279,15.236,21.9199C15.2411,21.9141,15.2463,21.9084,15.2515,21.9026C15.2578,21.8958,15.264,21.8887,15.2706,21.8819C15.2781,21.8741,15.2858,21.8665,15.2936,21.8589C15.2982,21.8543,15.3027,21.8497,15.3075,21.8452C15.3207,21.8326,15.3342,21.8204,15.3481,21.8085L20.019,17.8006C20.4715,17.4124,21.205,17.4124,21.6574,17.8006C22.1098,18.1888,22.1098,18.8182,21.6574,19.2064L18.9634,21.518Z" fill-rule="evenodd" fill="" fill-opacity="1"/></g></svg>