<svg xmlns="http://www.w3.org/2000/svg" xmlns:xlink="http://www.w3.org/1999/xlink" fill="" version="1.1" width="28" height="27.8056640625" viewBox="0 0 28 27.8056640625"><g><path d="M15.3831,27.8057C15.9902,27.8057,16.4825,27.3069,16.4825,26.6917C16.4825,26.0853,16.0044,25.5925,15.4094,25.5783L2.88551,25.5776C2.4971,25.5776,2.18112,25.2574,2.18112,24.8639L2.18112,2.92377C2.18112,2.53021,2.4971,2.21002,2.88551,2.21002L22.3923,2.21002C22.7807,2.21002,23.0967,2.53021,23.0967,2.92377L23.0967,13.368C23.0967,13.9783,23.585,14.473,24.1873,14.473C24.7896,14.473,25.2778,13.9783,25.2778,13.368L25.2778,2.92377C25.2778,1.31158,23.9834,0,22.3923,0L2.88551,0C1.29443,0,0,1.31158,0,2.92377L0,24.8639C0,26.4761,1.29443,27.7877,2.88551,27.7877L15.1873,27.7877C15.2509,27.7993,15.3162,27.8057,15.3831,27.8057ZM22.7502,8.84729C22.7502,8.14923,22.226,7.58337,21.5794,7.58337L6.22642,7.58337C5.57982,7.58337,5.05566,8.14923,5.05566,8.84729C5.05566,9.54529,5.57982,10.1111,6.22642,10.1111L21.5794,10.1111C22.226,10.1111,22.7502,9.54529,22.7502,8.84729ZM17.6946,13.9028C17.6946,13.2048,17.1324,12.6389,16.4389,12.6389L6.31139,12.6389C5.61787,12.6389,5.05566,13.2048,5.05566,13.9028C5.05566,14.6008,5.61787,15.1667,6.31139,15.1667L16.4389,15.1667C17.1324,15.1667,17.6946,14.6008,17.6946,13.9028ZM5.99784,17.6945C5.47749,17.6945,5.05566,18.2604,5.05566,18.9584C5.05566,19.6564,5.47749,20.2223,5.99784,20.2223L11.6968,20.2223C12.2172,20.2223,12.639,19.6564,12.639,18.9584C12.639,18.2604,12.2172,17.6945,11.6968,17.6945L5.99784,17.6945ZM24.0029,21.7454L15.806,21.7454C15.1594,21.7454,14.6353,22.1954,14.6353,22.7502C14.6353,23.305,15.1594,23.7548,15.806,23.7548L24.0029,23.7548L21.2804,26.0908C20.8232,26.4831,20.8232,27.1191,21.2804,27.5114C21.509,27.7076,21.8086,27.8057,22.1083,27.8057C22.4079,27.8057,22.7075,27.7076,22.9361,27.5114L27.6564,23.4612C27.6704,23.4492,27.6841,23.4368,27.6974,23.4241C27.7023,23.4196,27.7068,23.4149,27.7115,23.4102C27.7193,23.4025,27.7271,23.3949,27.7347,23.387C27.7413,23.3801,27.7476,23.373,27.754,23.366C27.7592,23.3602,27.7645,23.3545,27.7697,23.3486C27.7766,23.3406,27.7832,23.3324,27.7899,23.3242C27.7941,23.319,27.7984,23.314,27.8025,23.3087C27.8091,23.3001,27.8155,23.2915,27.8219,23.2828C27.8256,23.2776,27.8295,23.2725,27.8331,23.2673C27.8392,23.2587,27.8449,23.2499,27.8506,23.2411C27.8543,23.2356,27.858,23.23,27.8616,23.2243C27.8667,23.2161,27.8716,23.2076,27.8765,23.1993C27.8802,23.1928,27.884,23.1864,27.8876,23.1799C27.8918,23.1722,27.8959,23.1645,27.8998,23.1567C27.9037,23.1493,27.9076,23.1418,27.9112,23.1343C27.9145,23.1274,27.9176,23.1205,27.9207,23.1135C27.9247,23.105,27.9285,23.0964,27.9321,23.0877C27.9346,23.0817,27.9369,23.0756,27.9393,23.0695C27.9431,23.0598,27.9468,23.0502,27.9556,23.0244C27.959,23.0139,27.9624,23.0034,27.9655,22.9928C27.9669,22.9879,27.9681,22.9828,27.9695,22.9778C27.9724,22.9669,27.9753,22.956,27.9779,22.9449C27.979,22.9398,27.98,22.9348,27.981,22.9297C27.9834,22.9188,27.9856,22.9078,27.9875,22.8969C27.9885,22.891,27.9892,22.8851,27.9901,22.8793C27.9916,22.869,27.9932,22.8588,27.9944,22.8485C27.9953,22.8406,27.9958,22.8328,27.9965,22.825C27.9973,22.8165,27.9981,22.8081,27.9986,22.7996C27.9994,22.7849,27.9998,22.7703,28,22.7446C27.9998,22.7299,27.9994,22.7153,27.9986,22.7006C27.9981,22.6921,27.9973,22.6837,27.9965,22.6752C27.9958,22.6674,27.9953,22.6595,27.9944,22.6517C27.9932,22.6414,27.9916,22.6311,27.9901,22.6209C27.9892,22.615,27.9885,22.6092,27.9875,22.6033C27.9856,22.5923,27.9834,22.5814,27.981,22.5705C27.98,22.5654,27.979,22.5603,27.9779,22.5552C27.9753,22.5442,27.9724,22.5333,27.9695,22.5223C27.9681,22.5173,27.9669,22.5123,27.9655,22.5074C27.9624,22.4968,27.959,22.4863,27.9502,22.4597C27.9468,22.45,27.9431,22.4403,27.9393,22.4307C27.9369,22.4246,27.9346,22.4185,27.9321,22.4125C27.9285,22.4037,27.9247,22.3952,27.9207,22.3866C27.9176,22.3797,27.9145,22.3727,27.9112,22.3659C27.9076,22.3583,27.9037,22.3508,27.8998,22.3434C27.8959,22.3356,27.8918,22.3279,27.8876,22.3203C27.884,22.3137,27.8802,22.3073,27.8765,22.3009C27.8716,22.2925,27.8667,22.2841,27.8616,22.2758C27.858,22.2701,27.8543,22.2646,27.8506,22.259C27.8449,22.2502,27.8392,22.2415,27.8331,22.2328C27.8295,22.2277,27.8256,22.2226,27.8219,22.2175C27.8155,22.2087,27.8091,22.2,27.8025,22.1915C27.7984,22.1862,27.7941,22.1812,27.79,22.176C27.7833,22.1678,27.7767,22.1596,27.7697,22.1516C27.7645,22.1456,27.7592,22.14,27.754,22.1342C27.7476,22.1271,27.7413,22.1201,27.7347,22.1132C27.7271,22.1052,27.7193,22.0976,27.7115,22.0899C27.7068,22.0853,27.7023,22.0806,27.6974,22.076C27.6841,22.0634,27.6704,22.051,27.6564,22.039L22.9361,17.9888C22.4789,17.5964,21.7375,17.5964,21.2804,17.9888C20.8232,18.381,20.8232,19.0172,21.2804,19.4094L24.0029,21.7454Z" fill-rule="evenodd" fill="" fill-opacity="1"/></g></svg>