<svg xmlns="http://www.w3.org/2000/svg" xmlns:xlink="http://www.w3.org/1999/xlink" fill="none" version="1.1" width="61.597412109375" height="60" viewBox="0 0 61.597412109375 60"><g><g><path d="M45.0576,0C47.8685,0,50.5803,0.702744,52.9944,2.02556C54.2026,2.68831,54.4362,4.32534,53.4616,5.29952L48.501,10.2559C47.8572,10.9013,47.8572,11.9461,48.501,12.5915C49.088,13.1785,50.0181,13.2405,50.5596,12.8313L50.8407,12.5915L55.9294,7.50696C56.8718,6.5595,58.452,6.74184,59.1538,7.879C62.332,13.056,62.4156,19.5588,59.3715,24.8158C56.3275,30.0728,50.646,33.2373,44.5739,33.0579L52.2628,40.755C56.1713,44.6931,56.2727,51.0149,52.4923,55.0763C48.7119,59.1376,42.3991,59.489,38.1914,55.8723L37.654,55.368L28.7374,46.4555L16.8858,58.303C14.9445,60.246,11.9048,60.5569,9.61033,59.047L9.14321,58.6998L8.70503,58.303L5.19544,54.7975C2.93508,52.5374,2.93508,48.8727,5.19544,46.6126L20.259,31.5491L14.1658,25.4559L13.74,25.708C11.8919,26.6768,9.66567,26.5774,7.91134,25.4476L7.39875,25.0756L6.95643,24.6787L1.69825,19.4164C-0.402282,17.3191,-0.575498,13.9726,1.29727,11.6697L1.69825,11.2315L8.12629,4.79933C10.2247,2.70004,13.5711,2.52861,15.873,4.40249L16.3112,4.79933L21.5735,10.0616C23.0601,11.5483,23.6234,13.7243,23.0451,15.7456L22.8467,16.3243L22.764,16.5062L29.0309,22.773L29.5476,22.2563L29.345,21.6983C28.9101,20.3688,28.6462,18.9895,28.5596,17.5934L28.5224,16.5352C28.5224,7.40304,35.9254,0.00000110877,45.0576,0ZM38.9685,30.3792L38.9933,30.3544L40.2086,29.1432C40.6278,28.7228,41.2076,28.5029,41.8001,28.5397L42.1515,28.5934C51.3809,30.8231,59.5899,22.278,56.9918,13.1454L56.781,12.4923L53.66,15.6092L53.1722,16.0308C50.7486,17.8637,47.3203,17.5102,45.3218,15.2212C43.3233,12.9323,43.4354,9.48755,45.5784,7.33335L48.3357,4.57197L47.7156,4.41902C47.1368,4.29312,46.5496,4.20885,45.9587,4.16686L45.0576,4.13379C35.9479,4.13353,29.947,13.6266,33.855,21.8553C34.232,22.646,34.0697,23.5885,33.4499,24.2075L8.11803,49.5311C7.47142,50.1769,7.47142,51.2249,8.11803,51.8708L11.6276,55.3762C12.273,56.0201,13.3178,56.0201,13.9632,55.3762L38.9685,30.3751L38.9685,30.3792ZM40.4277,34.761L31.66,43.5329L40.5724,52.4454C42.6535,54.5268,45.9109,54.8584,48.3687,53.2391L48.8731,52.8712L49.3402,52.4454C51.5875,50.1977,51.7714,46.6148,49.766,44.1489L49.3402,43.6776L40.4277,34.761ZM11.3093,7.5111L11.0489,7.72192L4.62084,14.1541C4.0646,14.7083,3.97477,15.5772,4.40589,16.2334L4.62084,16.4938L9.88316,21.752C10.4356,22.3074,11.302,22.3989,11.9583,21.9711L12.2146,21.7603L12.7933,21.1733C13.4982,20.4596,14.6137,20.355,15.439,20.9252L15.7283,21.1691L23.1774,28.6224L26.1041,25.6956L18.6551,18.2424C18.0443,17.6331,17.8762,16.7086,18.2334,15.9234L18.4153,15.6092L18.6509,15.3198C19.2037,14.7653,19.2917,13.899,18.8617,13.2447L18.6509,12.9842L13.3886,7.72192C12.8324,7.16833,11.9636,7.08197,11.3093,7.51523L11.3093,7.5111Z" fill="#FFFFFF" fill-opacity="1"/></g><g><path d="M9,57L6,52L6,49L32,21.5L31,12L36.5,5.5L44,2.5L50.5,3.5L48,7.5L47,12L48,14.5L53.5,14.5L58,10.5L59,17.5L58,24L51.5,30L43,31.5L38,35L31,42.5L14.5,57L9,57ZM13,53Q13.09825,53,13.19603,52.9904Q13.29381,52.9807,13.39018,52.9616Q13.486550000000001,52.9424,13.58057,52.9139Q13.67459,52.8854,13.76537,52.8478Q13.85614,52.8102,13.942789999999999,52.7638Q14.02944,52.7175,14.11114,52.6629Q14.19283,52.6084,14.26879,52.546Q14.34474,52.4837,14.41421,52.4142Q14.48369,52.3447,14.54602,52.2688Q14.60835,52.1928,14.66294,52.1111Q14.71753,52.0294,14.76384,51.9428Q14.81016,51.8561,14.84776,51.7654Q14.88536,51.6746,14.91388,51.5806Q14.9424,51.4865,14.96157,51.3902Q14.98074,51.2938,14.99037,51.196Q15,51.0983,15,51Q15,50.9017,14.99037,50.804Q14.98074,50.7062,14.96157,50.6098Q14.9424,50.5135,14.91388,50.4194Q14.88536,50.3254,14.84776,50.2346Q14.81016,50.1439,14.76384,50.0572Q14.71753,49.9706,14.66294,49.8889Q14.60835,49.8072,14.54602,49.7312Q14.48369,49.6553,14.41421,49.5858Q14.34474,49.5163,14.26879,49.454Q14.19283,49.3916,14.11114,49.3371Q14.02944,49.2825,13.942789999999999,49.2362Q13.85614,49.1898,13.76537,49.1522Q13.67459,49.1146,13.58057,49.0861Q13.486550000000001,49.0576,13.39018,49.0384Q13.29381,49.0193,13.19603,49.0096Q13.09825,49,13,49Q12.90175,49,12.80397,49.0096Q12.70619,49.0193,12.60982,49.0384Q12.513449999999999,49.0576,12.41943,49.0861Q12.32541,49.1146,12.23463,49.1522Q12.14386,49.1898,12.057210000000001,49.2362Q11.97055,49.2825,11.888860000000001,49.3371Q11.80716,49.3916,11.73121,49.454Q11.65526,49.5163,11.58579,49.5858Q11.51631,49.6553,11.45398,49.7312Q11.39165,49.8072,11.337060000000001,49.8889Q11.28247,49.9706,11.23616,50.0572Q11.18984,50.1439,11.152239999999999,50.2346Q11.11464,50.3254,11.086120000000001,50.4194Q11.0576,50.5135,11.03843,50.6098Q11.01926,50.7062,11.00963,50.804Q11,50.9017,11,51Q11,51.0983,11.00963,51.196Q11.01926,51.2938,11.03843,51.3902Q11.0576,51.4865,11.086120000000001,51.5806Q11.11464,51.6746,11.152239999999999,51.7654Q11.18984,51.8561,11.23616,51.9428Q11.28247,52.0294,11.337060000000001,52.1111Q11.39165,52.1928,11.45398,52.2688Q11.51631,52.3447,11.58579,52.4142Q11.65526,52.4837,11.73121,52.546Q11.80716,52.6084,11.888860000000001,52.6629Q11.97055,52.7175,12.057210000000001,52.7638Q12.14386,52.8102,12.23463,52.8478Q12.32541,52.8854,12.41943,52.9139Q12.513449999999999,52.9424,12.60982,52.9616Q12.70619,52.9807,12.80397,52.9904Q12.90175,53,13,53Z" fill-rule="evenodd" fill="#FFFFFF" fill-opacity="1"/></g><g><path d="M8.5,24L2.5,15.5L5,11.5L10,7L12.5,5.5L21,14L21,16.5L25.5,22L45,37L52.5,45L52.5,52.5L45,55.5Q40.5,55,39.5,54.5Q38.5,54,27.5,42.5L21,29.5L14,22L8.5,24ZM45.5,51Q45.6228,51,45.745,50.988Q45.8673,50.9759,45.9877,50.952Q46.1082,50.928,46.2257,50.8923Q46.3432,50.8567,46.4567,50.8097Q46.5702,50.7627,46.6785,50.7048Q46.7868,50.6469,46.8889,50.5787Q46.991,50.5104,47.086,50.4325Q47.1809,50.3546,47.2678,50.2678Q47.3546,50.1809,47.4325,50.086Q47.5104,49.991,47.5787,49.8889Q47.6469,49.7868,47.7048,49.6785Q47.7627,49.5702,47.8097,49.4567Q47.8567,49.3432,47.8923,49.2257Q47.928,49.1082,47.952,48.9877Q47.9759,48.8673,47.988,48.745Q48,48.6228,48,48.5Q48,48.3772,47.988,48.255Q47.9759,48.1327,47.952,48.0123Q47.928,47.8918,47.8923,47.7743Q47.8567,47.6568,47.8097,47.5433Q47.7627,47.4298,47.7048,47.3215Q47.6469,47.2132,47.5787,47.1111Q47.5104,47.009,47.4325,46.914Q47.3546,46.8191,47.2678,46.7322Q47.1809,46.6454,47.086,46.5675Q46.991,46.4896,46.8889,46.4213Q46.7868,46.3531,46.6785,46.2952Q46.5702,46.2373,46.4567,46.1903Q46.3432,46.1433,46.2257,46.1076Q46.1082,46.072,45.9877,46.048Q45.8673,46.0241,45.745,46.012Q45.6228,46,45.5,46Q45.3772,46,45.255,46.012Q45.1327,46.0241,45.0123,46.048Q44.8918,46.072,44.7743,46.1076Q44.6568,46.1433,44.5433,46.1903Q44.4298,46.2373,44.3215,46.2952Q44.2132,46.3531,44.1111,46.4213Q44.009,46.4896,43.914,46.5675Q43.8191,46.6454,43.7322,46.7322Q43.6454,46.8191,43.5675,46.914Q43.4896,47.009,43.4213,47.1111Q43.3531,47.2132,43.2952,47.3215Q43.2373,47.4298,43.1903,47.5433Q43.1433,47.6568,43.1076,47.7743Q43.072,47.8918,43.048,48.0123Q43.0241,48.1327,43.012,48.255Q43,48.3772,43,48.5Q43,48.6228,43.012,48.745Q43.0241,48.8673,43.048,48.9877Q43.072,49.1082,43.1076,49.2257Q43.1433,49.3432,43.1903,49.4567Q43.2373,49.5702,43.2952,49.6785Q43.3531,49.7868,43.4213,49.8889Q43.4896,49.991,43.5675,50.086Q43.6454,50.1809,43.7322,50.2678Q43.8191,50.3546,43.914,50.4325Q44.009,50.5104,44.1111,50.5787Q44.2132,50.6469,44.3215,50.7048Q44.4298,50.7627,44.5433,50.8097Q44.6568,50.8567,44.7743,50.8923Q44.8918,50.928,45.0123,50.952Q45.1327,50.9759,45.255,50.988Q45.3772,51,45.5,51Z" fill-rule="evenodd" fill="#FFFFFF" fill-opacity="1"/></g><g><path d="M19,31L20,32L29.5,22.5L28.5,21.5L19,31Z" fill="#4363EC" fill-opacity="1"/></g><g><path d="M28.5,46.5L29.5,47.5L45.5,33.5L44.5,33L28.5,46.5Z" fill="#4363EC" fill-opacity="1"/></g></g></svg>