<svg xmlns="http://www.w3.org/2000/svg" xmlns:xlink="http://www.w3.org/1999/xlink"  version="1.1" width="21" height="18.2503662109375" viewBox="0 0 21 18.2503662109375"><g><g><path d="M10.7797,0.218601L4.4329,3.84459L1.63858,3.84532C0.733615,3.84532,0,4.57893,0,5.4839L0,12.7665L0.00364145,12.8786C0.0624933,13.738,0.776953,14.405,1.63858,14.405L4.43144,14.4043L10.7797,18.0318C11.8721,18.6564,13.2317,17.8678,13.2317,16.6095L13.2317,1.64089C13.2316,0.382544,11.872,-0.406094,10.7797,0.218601ZM11.4103,1.95476L11.4103,16.2949L4.91646,12.5844L1.81991,12.5837L1.81991,5.66523L4.91646,5.66596L11.4103,1.95476ZM14.5382,5.11467C14.8437,4.71557,15.4149,4.63961,15.8141,4.94499C17.0128,5.86186,17.6151,7.20622,17.6151,8.88849C17.6151,10.5708,17.0128,11.9151,15.8141,12.832C15.4147,13.137,14.8437,13.0607,14.5384,12.6615C14.2331,12.2624,14.3089,11.6913,14.7079,11.3857C15.4347,10.83,15.7944,10.0268,15.7944,8.88776C15.7944,7.7495,15.4347,6.94696,14.7079,6.39057C14.3088,6.08504,14.2328,5.51388,14.5382,5.11467Z"/></g><g><path d="M16.528505405151368,2.004965775260925C16.834033405151366,1.6058687752609253,17.405198405151367,1.5299087752609253,17.804408405151367,1.8352817752609254C19.933108405151366,3.4629357752609256,20.999998405151366,5.843605775260925,20.999998405151366,8.888445775260926C20.999998405151366,11.932555775260925,19.933108405151366,14.313955775260926,17.804408405151367,15.941655775260925C17.405018405151367,16.247055775260925,16.833616405151368,16.170955775260925,16.52814040515137,15.771555775260925C16.222665405151368,15.372155775260925,16.298798205151368,14.800755775260924,16.698188405151367,14.495255775260926C18.354968405151368,13.228155775260925,19.17935840515137,11.388545775260924,19.17935840515137,8.887715775260926C19.17935840515137,6.387615775260925,18.354968405151368,4.548035775260925,16.698188405151367,3.280865775260925C16.299091705151366,2.9753457752609256,16.223132405151368,2.404178775260925,16.528505405151368,2.004965775260925Z" /></g></g></svg>