<svg xmlns="http://www.w3.org/2000/svg" xmlns:xlink="http://www.w3.org/1999/xlink" fill="none" version="1.1" width="13" height="13" viewBox="0 0 13 13"><defs><clipPath id="master_svg0_6_0506"><rect x="0" y="0" width="13" height="13" rx="0"/></clipPath></defs><g clip-path="url(#master_svg0_6_0506)"><g><path d="M6.5,0C2.91606,0,0,2.91606,0,6.5C0,10.0839,2.91606,13,6.5,13C10.0839,13,13,10.0839,13,6.5C13,2.91606,10.0839,0,6.5,0ZM6.5,12.1867C3.36375,12.1867,0.813312,9.63544,0.813312,6.5C0.813312,3.36456,3.36375,0.813313,6.5,0.813313C9.63625,0.813313,12.1867,3.36375,12.1867,6.5C12.1867,9.63625,9.63625,12.1867,6.5,12.1867Z" fill="#FFFFFF" fill-opacity="1"/></g><g><path d="M9.98238916015625,6.4999481249999995Q9.98238916015625,6.671028124999999,9.965619160156251,6.841288125Q9.94884916015625,7.0115381249999995,9.91547916015625,7.179328125Q9.882099160156251,7.347118125,9.83243916015625,7.510828125Q9.782779160156249,7.674548125,9.717309160156251,7.832598125Q9.65183916015625,7.990658125,9.571199160156251,8.141528125Q9.490549160156249,8.292408125,9.39549916015625,8.434658125Q9.300459160156251,8.576898125,9.19192916015625,8.709148124999999Q9.083399160156251,8.841388125,8.962429160156251,8.962358125Q8.841459160156251,9.083328125000001,8.709209160156249,9.191868125Q8.57695916015625,9.300398125000001,8.43471916015625,9.395438125Q8.29246916015625,9.490488124999999,8.14158916015625,9.571128125000001Q7.99071916015625,9.651778125,7.83265916015625,9.717248125000001Q7.67460916015625,9.782718124999999,7.51089916015625,9.832378125Q7.34717916015625,9.882038125000001,7.17938916015625,9.915418125Q7.0115991601562495,9.948788125,6.84134916015625,9.965558125000001Q6.671089160156249,9.982328125,6.50001916015625,9.982328125Q6.32893916015625,9.982328125,6.15867916015625,9.965558125000001Q5.98842916015625,9.948788125,5.82063916015625,9.915418125Q5.65284916015625,9.882038125000001,5.48913916015625,9.832378125Q5.32541916015625,9.782718124999999,5.16736916015625,9.717248125000001Q5.00930916015625,9.651778125,4.85843916015625,9.571128125000001Q4.70755916015625,9.490488124999999,4.56530916015625,9.395438125Q4.42306916015625,9.300398125000001,4.29081916015625,9.191868125Q4.15856916015625,9.083328125000001,4.03759916015625,8.962358125Q3.91663316015625,8.841388125,3.80810216015625,8.709148124999999Q3.6995711601562498,8.576898125,3.60452516015625,8.434658125Q3.50948016015625,8.292408125,3.42883416015625,8.141528125Q3.34818816015625,7.990658125,3.28272016015625,7.832598125Q3.21725116015625,7.674548125,3.16758916015625,7.510828125Q3.11792816015625,7.347118125,3.08455256015625,7.179328125Q3.05117686015625,7.0115381249999995,3.03440836015625,6.841288125Q3.01763974130125,6.671028124999999,3.01763974130125,6.4999481249999995Q3.01763974130125,6.328878125,3.03440836015625,6.158618125Q3.05117696015625,5.988368125,3.08455256015625,5.820578125Q3.11792816015625,5.652788125,3.16758916015625,5.489068125Q3.21725116015625,5.325358125,3.28272016015625,5.167308125Q3.34818816015625,5.009248125,3.42883416015625,4.858368125Q3.50948016015625,4.707498125,3.60452516015625,4.565248125Q3.6995711601562498,4.4229981249999994,3.80810216015625,4.290758125Q3.91663316015625,4.158508125,4.03759916015625,4.037538125Q4.15856916015625,3.916571125,4.29081916015625,3.808041125Q4.42306916015625,3.6995101249999998,4.56530916015625,3.604464125Q4.70755916015625,3.509418125,4.85843916015625,3.428772125Q5.00930916015625,3.348127125,5.16736916015625,3.282658125Q5.32541916015625,3.217189125,5.48913916015625,3.167528125Q5.65284916015625,3.117867125,5.82063916015625,3.084490925Q5.98842916015625,3.051115325,6.15867916015625,3.034346725Q6.32893916015625,3.017578125,6.50001916015625,3.017578125Q6.671089160156249,3.017578125,6.84134916015625,3.034346725Q7.0115991601562495,3.051115325,7.17938916015625,3.084490925Q7.34717916015625,3.117867125,7.51089916015625,3.167528125Q7.67460916015625,3.217189125,7.83265916015625,3.282658125Q7.99071916015625,3.348127125,8.14158916015625,3.428772125Q8.29246916015625,3.509418125,8.43471916015625,3.604464125Q8.57695916015625,3.6995101249999998,8.709209160156249,3.8080401249999998Q8.84144916015625,3.916571125,8.962429160156251,4.037538125Q9.083399160156251,4.158508125,9.19192916015625,4.290758125Q9.300459160156251,4.4229981249999994,9.39549916015625,4.565248125Q9.490549160156249,4.707498125,9.571199160156251,4.858368125Q9.65183916015625,5.009248125,9.717309160156251,5.167308125Q9.782779160156249,5.325358125,9.83243916015625,5.489068125Q9.882099160156251,5.652788125,9.91547916015625,5.820578125Q9.94884916015625,5.988368125,9.965619160156251,6.158618125Q9.98238916015625,6.328878125,9.98238916015625,6.4999481249999995Z" fill="#FFFFFF" fill-opacity="1"/></g></g></svg>