<svg xmlns="http://www.w3.org/2000/svg" xmlns:xlink="http://www.w3.org/1999/xlink" fill="" version="1.1" width="19.8032169342041" height="17.5953369140625" viewBox="0 0 19.8032169342041 17.5953369140625"><g><path d="M4.60278,8.14414C4.57934,8.15586,4.55591,8.16758,4.53247,8.17734C3.85083,8.45273,2.23755,9.4332,1.19458,11.6793C1.05591,11.9781,0.710202,12.1207,0.401608,12.0016C0.0656708,11.8727,-0.0944854,11.484,0.0578584,11.1578C0.524655,10.15,1.13794,9.16367,1.88794,8.44687C2.35669,7.99961,2.81958,7.67148,3.22973,7.42929L3.22973,7.42343C3.10083,7.32187,2.97583,7.2125,2.85864,7.09531C2.06762,6.30429,1.63208,5.25351,1.63208,4.13437C1.63208,3.01523,2.06762,1.96445,2.85864,1.17343C3.47387,0.556247,4.24731,0.155857,5.08716,0.00937238C5.46997,-0.0570339,5.81958,0.237888,5.81958,0.62656C5.81958,0.929294,5.60083,1.18906,5.302,1.24179C3.92895,1.48789,2.88208,2.69101,2.88208,4.13437C2.88208,5.32187,3.59106,6.34726,4.60864,6.81015C5.18676,7.06211,5.19067,7.88047,4.6145,8.13633L4.61059,8.14023L4.61059,8.14609C4.60864,8.14609,4.60473,8.14414,4.60278,8.14414ZM17.9172,8.44687C18.6653,9.16172,19.2786,10.148,19.7454,11.1559C19.8977,11.482,19.7375,11.8707,19.4016,11.9996C19.093,12.1187,18.7473,11.9762,18.6086,11.6773C17.5657,9.43125,15.9524,8.45078,15.2708,8.17539C15.2473,8.16562,15.2239,8.1539,15.2004,8.14219C15.1985,8.14219,15.1946,8.14414,15.1926,8.14414L15.1926,8.13828L15.1887,8.13633C14.6125,7.88047,14.6165,7.06211,15.1946,6.81015C16.2122,6.34726,16.9211,5.32187,16.9211,4.13437C16.9211,2.69101,15.8743,1.48789,14.5012,1.24179C14.2024,1.18906,13.9836,0.929295,13.9836,0.62656C13.9836,0.237889,14.3333,-0.0570333,14.7161,0.00937298C15.5559,0.155857,16.3293,0.556248,16.9446,1.17344C17.7356,1.96445,18.1711,3.01523,18.1711,4.13437C18.1711,5.25351,17.7375,6.3043,16.9465,7.09531C16.8293,7.2125,16.7043,7.32187,16.5754,7.42344L16.5754,7.42929C16.9856,7.67148,17.4485,7.99961,17.9172,8.44687ZM13.2886,8.25745C14.3276,8.6969,15.2612,9.32581,16.062,10.1266C16.8628,10.9274,17.4917,11.861,17.9312,12.9C18.3862,13.9762,18.6167,15.1188,18.6206,16.2965C18.6206,17.0133,18.0366,17.5953,17.3218,17.5953L2.46631,17.5953C1.74951,17.5953,1.16748,17.0114,1.16748,16.2965C1.16748,15.1188,1.39795,13.9762,1.85303,12.9C2.29248,11.861,2.92139,10.9274,3.72217,10.1266C4.52295,9.32581,5.45654,8.6969,6.49561,8.25745Q6.89111,8.09045,7.29834,7.96448C7.11865,7.83167,6.94678,7.68518,6.78662,7.52502C5.95654,6.69495,5.49951,5.59338,5.49951,4.41956C5.49951,3.24573,5.95654,2.14417,6.78662,1.31409C7.6167,0.484009,8.71826,0.0269775,9.89209,0.0269775C11.0659,0.0269775,12.1675,0.484009,12.9976,1.31409C13.8276,2.14417,14.2847,3.24573,14.2847,4.41956C14.2847,5.59338,13.8276,6.69495,12.9976,7.52502C12.8355,7.68518,12.6655,7.83167,12.4858,7.96448C12.7573,8.04846,13.0249,8.14612,13.2886,8.25745ZM9.89209,1.27698C8.15967,1.27698,6.74951,2.68713,6.74951,4.41956C6.74951,6.15198,8.15772,7.56213,9.89014,7.56213C11.6226,7.56213,13.0327,6.15198,13.0327,4.41956C13.0327,2.68713,11.6245,1.27698,9.89209,1.27698ZM2.46436,16.3453L17.3179,16.3453C17.3452,16.3453,17.3667,16.3239,17.3647,16.2965C17.3647,14.3004,16.5874,12.4235,15.1753,11.0114C13.7632,9.59924,11.8862,8.8219,9.89014,8.8219C7.89404,8.8219,6.01709,9.59924,4.60498,11.0114C3.19287,12.4235,2.41553,14.3004,2.41553,16.2965C2.41553,16.3239,2.43701,16.3453,2.46436,16.3453Z" fill-rule="evenodd" fill="" fill-opacity="1"/></g></svg>