<svg xmlns="http://www.w3.org/2000/svg" xmlns:xlink="http://www.w3.org/1999/xlink" fill="" version="1.1" width="22.6484375" height="17.240234375" viewBox="0 0 22.6484375 17.240234375"><g><path d="M8.59894,1.57793C9.01804,1.57793,9.35779,1.91806,9.35779,2.33766C9.35779,2.75128,9.02769,3.08765,8.61687,3.0972L8.59894,3.0974L2.23382,3.0974C1.84351,3.0974,1.5274,3.40656,1.5179,3.7898L1.51767,3.80758L1.51767,15.0106C1.51767,15.3961,1.8279,15.7111,2.21584,15.7205L2.23382,15.7208L5.35476,15.7208C5.77385,15.7208,6.11361,16.0609,6.11361,16.4805C6.11361,16.8941,5.78348,17.2305,5.37266,17.24L5.35476,17.2402L2.23382,17.2402C1.01321,17.2402,0.020033,16.2626,0.00030452,15.0475L0,15.0106L0,3.80758C0,2.58771,0.980967,1.59791,2.1969,1.57826L2.23382,1.57795L8.59894,1.57793ZM14.9725,0C17.7622,0,20.0217,2.27754,20.0217,5.0844C20.0217,6.80007,19.1775,8.31797,17.8841,9.23886C20.6814,10.4,22.6484,13.1523,22.6484,16.3636C22.6484,16.7832,22.3087,17.1234,21.8896,17.1234C21.4765,17.1234,21.1405,16.7929,21.131,16.3815L21.1308,16.3636C21.1308,12.943,18.3482,10.1688,14.9141,10.1688C11.5144,10.1688,8.75319,12.8878,8.69829,16.2612L8.69746,16.3636C8.69746,16.7832,8.35773,17.1234,7.93863,17.1234C7.51954,17.1234,7.17978,16.7832,7.17978,16.3636C7.17978,13.1239,9.18178,10.3513,12.0185,9.20819C10.749,8.28463,9.92327,6.78125,9.92327,5.0844C9.92329,2.27754,12.1828,0,14.9725,0ZM7.2754,9.65745C7.6945,9.65745,8.03423,9.99761,8.03423,10.4172C8.03423,10.8308,7.70415,11.1672,7.29333,11.1767L7.2754,11.1769L2.97697,11.1769C2.5579,11.1769,2.21815,10.8368,2.21815,10.4172C2.21815,10.0036,2.54823,9.66718,2.95907,9.65765L2.97697,9.65745L7.2754,9.65745ZM14.9725,1.5195C13.0233,1.5195,11.441,3.11441,11.441,5.0844C11.441,7.0544,13.0232,8.64934,14.9725,8.64934C16.9217,8.64934,18.504,7.0544,18.504,5.0844C18.504,3.11441,16.9217,1.51948,14.9725,1.5195ZM8.11373,5.58116C8.53285,5.58116,8.87258,5.9213,8.87258,6.3409C8.87258,6.75451,8.5425,7.09092,8.13168,7.10044L8.11375,7.10064L2.97698,7.10064C2.5579,7.10064,2.21815,6.76048,2.21815,6.3409C2.21815,5.92729,2.54823,5.59089,2.95908,5.58137L2.97698,5.58116L8.11373,5.58116Z" fill="" fill-opacity="1"/></g></svg>