<?xml version="1.0" standalone="no"?><!DOCTYPE svg PUBLIC "-//W3C//DTD SVG 1.1//EN" "http://www.w3.org/Graphics/SVG/1.1/DTD/svg11.dtd"><svg t="1689573009985" class="icon" viewBox="0 0 1024 1024" version="1.1" xmlns="http://www.w3.org/2000/svg" p-id="4384" xmlns:xlink="http://www.w3.org/1999/xlink" width="200" height="200"><path d="M527.984 1001.6a480 480 0 1 1 480-480 480.384 480.384 0 0 1-480 480z m0-883.696A403.696 403.696 0 1 0 931.68 521.6 403.84 403.84 0 0 0 527.984 117.904z" fill="" p-id="4385"></path><path d="M473.136 729.6a47.088 47.088 0 0 1-18.112-3.888 38.768 38.768 0 0 1-23.056-34.992V384.384a39.632 39.632 0 0 1 23.056-34.992 46.016 46.016 0 0 1 43.632 3.888l211.568 153.168a38.72 38.72 0 0 1 16.464 31.104 37.632 37.632 0 0 1-16.464 31.104l-211.568 153.168a44.56 44.56 0 0 1-25.52 7.776z m41.168-266.704v149.296l102.896-74.64z" fill="" p-id="4386"></path></svg>