<?xml version="1.0" standalone="no"?><!DOCTYPE svg PUBLIC "-//W3C//DTD SVG 1.1//EN" "http://www.w3.org/Graphics/SVG/1.1/DTD/svg11.dtd"><svg t="1735113737383" class="icon" viewBox="0 0 1024 1024" version="1.1" xmlns="http://www.w3.org/2000/svg" p-id="9402" xmlns:xlink="http://www.w3.org/1999/xlink" width="200" height="200"><path d="M512 97.52381c138.435048 0 255.24419 92.40381 255.24419 213.552761v257.706667l83.992381 150.869333c32.743619 37.790476 5.607619 96.158476-44.739047 96.158477H217.502476c-50.322286 0-77.482667-58.368-44.739047-96.158477l83.992381-150.893714v-257.706667C256.75581 189.927619 373.540571 97.52381 512 97.52381z m173.665524 492.275809V311.100952c0-70.607238-74.971429-132.242286-173.665524-132.242285s-173.665524 61.635048-173.665524 132.242285V589.775238l-80.530286 144.700952h508.39162l-80.530286-144.700952zM512 926.47619a81.456762 81.456762 0 0 1-81.432381-76.531809l-0.146286-4.778667h163.157334A81.432381 81.432381 0 0 1 512 926.47619z" p-id="9403"></path></svg>