<svg t="1697005521833" class="icon" viewBox="0 0 1024 1024" version="1.1" xmlns="http://www.w3.org/2000/svg" p-id="9916" width="200" height="200"><path d="M971.64 699.44l-59.87-117.08a25 25 0 0 0-33.64-10.88L761 631.34a25 25 0 0 0 22.76 44.52l61.72-31.55c-63.77 141.46-204.11 233.6-362.61 233.6-174.55 0-327.09-111.74-379.57-278a25 25 0 1 0-47.68 15A448.77 448.77 0 0 0 215.6 839.44c77.71 57.88 170.15 88.47 267.31 88.47s189.59-30.59 267.3-88.47a449.14 449.14 0 0 0 144-181.68l33 64.45a25 25 0 0 0 44.52-22.77zM93.06 461.29a25 25 0 0 0 11.36-2.75L222.86 398a25 25 0 0 0-22.77-44.51L137 385.75c64.39-143.61 206.66-237.21 367.38-237.21C681 148.54 835.42 261.65 888.55 430a25 25 0 1 0 47.68-15 453.55 453.55 0 0 0-161.69-227c-78.55-58.5-172-89.43-270.21-89.43S312.67 129.47 234.12 188A454 454 0 0 0 88.35 372.19l-33.61-65.73a25 25 0 1 0-44.52 22.76l60.56 118.44a25 25 0 0 0 22.28 13.63z" p-id="9917"></path></svg>