<svg xmlns="http://www.w3.org/2000/svg" xmlns:xlink="http://www.w3.org/1999/xlink"  version="1.1" width="16" height="14.923419952392578" viewBox="0 0 16 14.923419952392578"><g><path d="M14.0287,7.01507C13.7466,2.87824,9.75558,0.0297853,5.75165,1.10755C1.74772,2.18532,-0.274117,6.65229,1.55848,10.3718C3.39107,14.0913,8.16496,15.21,11.4593,12.6919C11.6517,12.5446,11.9271,12.5811,12.0744,12.7735C12.2218,12.9659,12.1852,13.2414,11.9928,13.3887C8.28153,16.2257,2.90552,14.9921,0.802385,10.8209C-1.30075,6.64967,0.904063,1.59377,5.39181,0.296777C9.87955,-1.00022,14.4416,2.10001,14.8878,6.75005L15.2564,6.38148C15.4286,6.21519,15.7022,6.21757,15.8715,6.38682C16.0407,6.55607,16.0431,6.82974,15.8768,7.00191L14.636,8.24276C14.465,8.41502,14.1865,8.41502,14.0155,8.24276L12.7747,7.00191C12.6084,6.82974,12.6108,6.55607,12.78,6.38682C12.9493,6.21757,13.223,6.21519,13.3951,6.38148L14.0287,7.01507ZM10.171,6.97119C10.4986,7.21691,10.4986,7.70833,10.171,7.95404L7.12857,10.2357C6.94243,10.3753,6.69339,10.3977,6.48528,10.2937C6.27717,10.1896,6.14572,9.97691,6.14571,9.74424L6.14571,5.181C6.14572,4.94833,6.27717,4.73562,6.48528,4.63157C6.69339,4.52751,6.94243,4.54997,7.12857,4.68957L10.171,6.97119ZM7.02326,5.70753L7.02326,9.21771L9.36368,7.46262L7.02326,5.70753Z" fill="" /></g></svg>