<svg xmlns="http://www.w3.org/2000/svg" xmlns:xlink="http://www.w3.org/1999/xlink" fill="" version="1.1" width="20.920501708984375" height="20" viewBox="0 0 20.920501708984375 20"><g><path d="M19.0377,7.53138L18.4937,7.53138C18.4937,6.19247,17.7824,4.93724,16.6109,4.26778C16.569,4.26778,16.569,4.26778,16.5272,4.22594C16.9874,3.76569,17.2385,3.13808,17.2385,2.51046C17.2385,1.12971,16.1088,0,14.728,0C13.3473,0,12.2176,1.12971,12.2176,2.51046C12.2176,3.17992,12.4686,3.76569,12.9289,4.22594Q12.887,4.22594,12.887,4.26778C11.7155,4.93724,11.0042,6.19247,11.0042,7.53138L10,7.53138C10,6.10879,9.20502,4.8954,8.07531,4.22594C8.53556,3.76569,8.74477,3.13808,8.74477,2.51046C8.74477,1.12971,7.61506,0,6.23431,0C4.85356,0,3.72385,1.12971,3.72385,2.51046C3.72385,3.17992,3.9749,3.76569,4.39331,4.22594C3.22176,4.85356,2.46862,6.10879,2.46862,7.48954L1.88285,7.48954C1.38075,7.48954,0.920502,7.69874,0.543933,8.03347C0.209205,8.3682,0,8.87029,0,9.37239L0,18.1172C0,19.1632,0.83682,20,1.88285,20L19.0377,20C20.0837,20,20.9205,19.1632,20.9205,18.1172L20.9205,9.41423C20.9205,8.3682,20.0837,7.53138,19.0377,7.53138ZM13.5565,2.05021C13.7657,1.58996,14.2259,1.29707,14.728,1.29707C15.4393,1.29707,15.9833,1.841,15.9833,2.5523C15.9833,3.05439,15.6904,3.51464,15.1883,3.72385C14.728,3.93305,14.1841,3.80753,13.8075,3.4728C13.4728,3.05439,13.3891,2.51046,13.5565,2.05021ZM14.728,5.02092C16.1088,5.02092,17.2385,6.15063,17.2385,7.53138L12.2176,7.53138C12.2176,6.15063,13.3473,5.02092,14.728,5.02092ZM5.02092,2.05021C5.23013,1.58996,5.69038,1.29707,6.19247,1.29707C6.90377,1.29707,7.4477,1.841,7.4477,2.5523C7.4477,3.05439,7.15481,3.51464,6.65272,3.72385C6.19247,3.93305,5.64854,3.80753,5.27197,3.4728C4.93724,3.05439,4.85356,2.51046,5.02092,2.05021ZM6.19247,5.02092C7.57322,5.02092,8.70293,6.15063,8.70293,7.53138L3.68201,7.53138C3.68201,6.15063,4.81172,5.02092,6.19247,5.02092ZM3.68201,18.7866C3.68201,17.4059,4.81172,16.2761,6.19247,16.2761C7.57322,16.2761,8.70293,17.4059,8.70293,18.7866L3.68201,18.7866ZM6.65272,14.9372C6.19247,15.1464,5.64854,15.0209,5.27197,14.6862C4.8954,14.3096,4.81172,13.8075,5.02092,13.3054C5.23013,12.8452,5.69038,12.5523,6.19247,12.5523C6.90377,12.5523,7.4477,13.0962,7.4477,13.8075C7.4477,14.3096,7.15481,14.7699,6.65272,14.9372ZM12.2176,18.7866C12.2176,17.4059,13.3473,16.2761,14.728,16.2761C16.1088,16.2761,17.2385,17.4059,17.2385,18.7866L12.2176,18.7866ZM15.1883,14.9372C14.728,15.1464,14.1841,15.0209,13.8075,14.6862C13.431,14.3096,13.3473,13.8075,13.5565,13.3054C13.7657,12.8452,14.2259,12.5523,14.728,12.5523C15.4393,12.5523,15.9833,13.0962,15.9833,13.8075C15.9833,14.3096,15.6904,14.7699,15.1883,14.9372ZM19.6653,18.159C19.6653,18.3264,19.5816,18.4937,19.4979,18.6192C19.3724,18.7448,19.205,18.7866,19.0377,18.7866L18.4937,18.7866C18.4937,17.4477,17.7824,16.1925,16.6109,15.523C16.569,15.523,16.569,15.523,16.5272,15.4812C16.9874,15.0209,17.2385,14.3933,17.2385,13.7657C17.2385,12.3849,16.1088,11.2552,14.728,11.2552C13.3473,11.2552,12.2176,12.3849,12.2176,13.7657C12.2176,14.4351,12.4686,15.0209,12.9289,15.4812Q12.887,15.4812,12.887,15.523C11.7155,16.1925,11.0042,17.4477,11.0042,18.7866L10,18.7866C10,17.364,9.20502,16.1506,8.07531,15.4812C8.53556,15.0209,8.74477,14.3933,8.74477,13.7657C8.74477,12.3849,7.61506,11.2552,6.23431,11.2552C4.85355,11.2552,3.72385,12.3849,3.72385,13.7657C3.72385,14.4351,3.97489,15.0209,4.3933,15.4812C3.22176,16.1088,2.46862,17.364,2.46862,18.7448L1.88285,18.7448C1.71548,18.7448,1.54812,18.6611,1.42259,18.5774C1.33891,18.4937,1.25523,18.3264,1.25523,18.159L1.25523,9.41423C1.25523,9.24686,1.33891,9.0795,1.42259,8.95397C1.54812,8.87029,1.71548,8.78661,1.88285,8.78661L19.0377,8.78661C19.205,8.78661,19.3724,8.87029,19.4979,8.95397C19.6234,9.0795,19.6653,9.24686,19.6653,9.41423L19.6653,18.159Z" fill="" fill-opacity="1"/></g></svg>