<svg xmlns="http://www.w3.org/2000/svg" xmlns:xlink="http://www.w3.org/1999/xlink" fill="none" version="1.1" width="14" height="14" viewBox="0 0 14 14"><defs><clipPath id="master_svg0_34_21669"><rect x="0" y="0" width="14" height="14" rx="0"/></clipPath></defs><g clip-path="url(#master_svg0_34_21669)"><g><path d="M11.20840859375,1.14422607421875L2.8298185937499998,1.14422607421875C1.90418959375,1.14422607421875,1.15380859375,1.89460707421875,1.15380859375,2.8202360742187498L1.15380859375,11.19882607421875C1.15380859375,12.12442607421875,1.90418959375,12.87482607421875,2.8298185937499998,12.87482607421875L11.20840859375,12.87482607421875C12.13400859375,12.87482607421875,12.88440859375,12.12442607421875,12.88440859375,11.19882607421875L12.88440859375,2.8202360742187498C12.88440859375,1.89460707421875,12.13400859375,1.14422594070475,11.20840859375,1.14422607421875ZM9.50711859375,2.00983307421875L9.50711859375,5.30669607421875L4.53580859375,5.30669607421875L4.53580859375,2.00983307421875L9.50711859375,2.00983307421875ZM12.04720859375,11.20112607421875C12.04750859375,11.66272607421875,11.67360859375,12.03722607421875,11.21200859375,12.03762607421875L2.83175859375,12.03762607421875C2.60768859375,12.03762607421875,2.39611859375,11.95152607421875,2.23765859375,11.79302607421875C2.07920359375,11.63462607421875,1.99103359375,11.42512607421875,1.99103359375,11.20112607421875L1.99103359375,2.8210360742187497C1.9918675937499999,2.35724607421875,2.3679685937499997,1.98165607421875,2.83175859375,1.98145107421875L3.67020859375,1.98145107421875L3.67020859375,5.33507607421875C3.66952859375,5.79679607421875,4.04325859375,6.17161607421875,4.50497859375,6.17230607421875L9.53469859375,6.17230607421875C9.99752859375,6.17230607421875,10.37276859375,5.79787607421875,10.37276859375,5.33507607421875L10.37276859375,1.98145007421875L11.20960859375,1.98145007421875C11.67270859375,1.98194307421875,12.04770859375,2.35775607421875,12.04720859375,2.8208460742187498L12.04720859375,11.20112607421875Z" fill="#FFFFFF" fill-opacity="1"/></g><g><path d="M7.858822390625,4.51088201171875C8.097848390625,4.51088201171875,8.291619390625,4.31711201171875,8.291619390625,4.07808201171875L8.291619390625,3.24010901171875C8.291619390625,3.00108301171875,8.097848390625,2.80731201171875,7.858822390625,2.80731201171875C7.619797390625,2.80731201171875,7.426025390625,3.00108401171875,7.426025390625,3.24010901171875L7.426025390625,4.07808201171875C7.426025390625,4.31711201171875,7.619797390625,4.51088201171875,7.858822390625,4.51088201171875Z" fill="#FFFFFF" fill-opacity="1"/></g></g></svg>