<svg xmlns="http://www.w3.org/2000/svg" xmlns:xlink="http://www.w3.org/1999/xlink" fill="none" version="1.1" width="11.8125" height="11.8125" viewBox="0 0 11.8125 11.8125"><g><path d="M11.5561,3.78612L8.02637,0.256375C7.8622,0.0922197,7.63968,0,7.40775,0L0.875,0C0.391751,-1.04308e-7,0,0.391751,0,0.875L0,10.9375C0,11.4207,0.391751,11.8125,0.875,11.8125L10.9375,11.8125C11.4207,11.8125,11.8125,11.4207,11.8125,10.9375L11.8125,4.40475C11.8125,4.1727,11.7202,3.95018,11.5561,3.78612ZM2.84375,0.875L5.46875,0.875L5.46875,2.40625L2.84375,2.40625L2.84375,0.875ZM8.96875,10.9375L2.84375,10.9375L2.84375,8.96875L8.96875,8.96875L8.96875,10.9375ZM10.9375,10.9375L9.84375,10.9375L9.84375,8.53125C9.84375,8.28963,9.64787,8.09375,9.40625,8.09375L2.40625,8.09375C2.16463,8.09375,1.96875,8.28963,1.96875,8.53125L1.96875,10.9375L0.875,10.9375L0.875,0.875L1.96875,0.875L1.96875,2.84375C1.96875,3.08537,2.16463,3.28125,2.40625,3.28125L5.90625,3.28125C6.14787,3.28125,6.34375,3.08537,6.34375,2.84375L6.34375,0.875L7.40775,0.875L10.9375,4.40475L10.9375,10.9375Z" fill="#FFFFFF" fill-opacity="1"/></g></svg>