<?xml version="1.0" encoding="UTF-8"?>
<svg width="27px" height="27px" viewBox="0 0 27 27" version="1.1" xmlns="http://www.w3.org/2000/svg" xmlns:xlink="http://www.w3.org/1999/xlink">
    <title>路径备份</title>
    <g id="页面-1" stroke="none" stroke-width="1" fill-rule="evenodd">
        <path d="M20.6052647,2.13157916 L23.0935287,2.13157916 C25.2521076,2.13157916 27,3.8808949 27,6.04267168 L27,23.0885544 C27,25.248909 25.2513962,27 23.0935287,27 L3.90647435,27 C1.747895,27 0,25.2506866 0,23.0889091 L0,6.04302645 C0,3.88267112 1.74860549,2.13157916 3.90647435,2.13157916 L6.39473724,2.13157916 L6.39473724,1.06578958 C6.39473724,0.477170289 6.87190723,0 7.46052694,0 C8.04914665,0 8.52631664,0.477170289 8.52631664,1.06578958 L8.52631664,2.13157916 L18.4736843,2.13157916 L18.4736843,1.06578958 C18.4736843,0.477170289 18.9508553,0 19.5394745,0 C20.1280937,0 20.6052647,0.477170289 20.6052647,1.06578958 L20.6052647,2.13157916 Z M20.6052647,4.26315832 L20.6052647,5.3289485 C20.6052647,5.91756821 20.1280937,6.3947382 19.5394745,6.3947382 C18.9508553,6.3947382 18.4736843,5.91756821 18.4736843,5.3289485 L18.4736843,4.2631588 L8.52631664,4.2631588 L8.52631664,5.3289485 C8.52631664,5.91756821 8.04914665,6.3947382 7.46052694,6.3947382 C6.87190723,6.3947382 6.39473724,5.91756821 6.39473724,5.3289485 L6.39473724,4.2631588 L3.90647364,4.2631588 C2.92491007,4.26433516 2.13020468,5.06110859 2.1315794,6.04267168 L2.1315794,23.0885544 C2.12921715,24.0708542 2.92455626,24.8684216 3.90647435,24.8684216 L23.0935287,24.8684216 C24.0750904,24.8672428 24.8697948,24.0704727 24.8684216,23.0889091 L24.8684216,6.04302645 C24.8707867,5.06072617 24.0754471,4.26315784 23.0935287,4.26315832 L20.6052647,4.26315832 Z M20.25,11.7236853 C20.8386192,11.7236853 21.3157902,12.2008562 21.3157902,12.7894745 C21.3157902,13.3780956 20.8386192,13.8552647 20.25,13.8552647 L6.75000143,13.8552647 C6.16138172,13.8552647 5.68421173,13.3780956 5.68421173,12.7894745 C5.68421173,12.2008562 6.16138172,11.7236853 6.75000143,11.7236853 L20.25,11.7236853 Z M15.986845,17.0526333 C16.5754642,17.0526333 17.0526333,17.5298042 17.0526333,18.1184235 C17.0526333,18.7070408 16.5754642,19.1842117 15.986845,19.1842117 L6.75000143,19.1842117 C6.16138172,19.1842117 5.68421173,18.7070408 5.68421173,18.1184235 C5.68421173,17.5298042 6.16138172,17.0526333 6.75000143,17.0526333 L15.986845,17.0526333 Z" id="路径备份"  fill-rule="nonzero"></path>
    </g>
</svg>