<?xml version="1.0" encoding="UTF-8"?>
<svg width="27px" height="27px" viewBox="0 0 27 27" version="1.1" xmlns="http://www.w3.org/2000/svg" xmlns:xlink="http://www.w3.org/1999/xlink">
    <title>形状结合</title>
    <g id="页面-1" stroke="none" stroke-width="1" fill-rule="evenodd">
        <path d="M8.04255295,14.4551888 C10.5319147,14.4551888 12.5744677,16.4929237 12.5744677,18.9764156 L12.5744677,22.4787731 C12.638298,24.9622631 10.5957441,27 8.04255295,27 L4.53191471,27 C2.04255295,27 0,24.9622631 0,22.4787731 L0,18.9764156 C0,16.4929237 2.04255295,14.4551888 4.53191471,14.4551888 L8.04255295,14.4551888 Z M20.0425544,24.4523897 C20.5531926,24.4523897 21.000001,24.8981438 21.000001,25.4075785 C21.000001,25.9170122 20.5531926,26.3627672 20.0425544,26.3627672 L16.2765959,26.3627672 C15.7659581,26.3627672 15.319149,25.9170122 15.319149,25.4075785 C15.319149,24.8981438 15.7659581,24.4523897 16.2765959,24.4523897 L20.0425544,24.4523897 Z M8.04255295,16.3018856 L4.53191471,16.3018856 C3.06382966,16.3018856 1.91489339,17.5117912 1.91489339,18.9127369 L1.91489339,22.4150925 C1.91489339,23.8797169 3.12765932,25.0259438 4.53191471,25.0259438 L8.04255295,25.0259438 C9.51063633,25.0259438 10.6595745,23.8160381 10.6595745,22.4150925 L10.6595745,18.9127369 C10.6595745,17.4481144 9.44680882,16.3018856 8.04255295,16.3018856 Z M23.8085136,20.1221991 C24.319149,20.1221991 24.7659597,20.5679541 24.7659597,21.0773878 C24.7659597,21.5868211 24.319149,22.0325766 23.8085136,22.0325766 L16.2765977,22.0325766 C15.7659599,22.0325766 15.319149,21.5868211 15.319149,21.0773878 C15.319149,20.5679541 15.7659599,20.1221991 16.2765977,20.1221991 L23.8085136,20.1221991 Z M25.4042587,15.855691 C25.914897,15.855691 26.3617058,16.3014462 26.3617058,16.8108797 C26.3617058,17.3203132 25.8510685,17.7660685 25.3404284,17.7660685 L16.2765977,17.7660685 C15.7659599,17.7660685 15.319149,17.3203132 15.319149,16.8108797 C15.319149,16.3014462 15.7659599,15.855691 16.2765977,15.855691 L25.4042587,15.855691 Z M8.04255295,0 C10.5319147,0 12.5744677,2.0377357 12.5744677,4.52122641 L12.5744677,8.02358437 C12.638298,10.5707541 10.5957441,12.60849 8.04255295,12.60849 L4.53191471,12.60849 C2.04255295,12.60849 0,10.5707541 0,8.08726406 L0,4.52122641 C0,2.0377357 2.04255295,0 4.53191471,0 L8.04255295,0 Z M22.4680843,0 C24.9574471,0 27,2.0377357 27,4.52122641 L27,8.02358437 C27,10.5707541 24.9574471,12.60849 22.4680843,12.60849 L18.957449,12.60849 C16.4680843,12.60849 14.4255333,10.5707541 14.4255333,8.08726406 L14.4255333,4.52122641 C14.4255333,2.0377357 16.4680843,0 18.957449,0 L22.4680843,0 Z M8.04255295,1.91037726 L4.53191471,1.91037726 C3.06382966,1.91037726 1.91489339,3.12028265 1.91489339,4.52122641 L1.91489339,8.02358437 C1.91489339,9.48820686 3.12765932,10.6344337 4.53191471,10.6344337 L8.04255295,10.6344337 C9.51063633,10.6344337 10.6595745,9.42452717 10.6595745,8.02358437 L10.6595745,4.52122641 C10.6595745,3.05660343 9.44680882,1.91037726 8.04255295,1.91037726 Z M22.4680843,1.91037726 L18.9574471,1.91037726 C17.4893608,1.91037726 16.3404236,3.12028265 16.3404236,4.52122641 L16.3404236,8.02358437 C16.3404236,9.48820686 17.5531902,10.6344337 18.9574471,10.6344337 L22.4680843,10.6344337 C23.9361706,10.6344337 25.0851059,9.42452717 25.0851059,8.02358437 L25.0851059,4.52122641 C25.0851059,3.05660343 23.8723412,1.91037726 22.4680843,1.91037726 Z" id="形状结合" fill-rule="nonzero"></path>
    </g>
</svg>