<?xml version="1.0" encoding="UTF-8"?>
<svg width="27px" height="27px" viewBox="0 0 27 27" version="1.1" xmlns="http://www.w3.org/2000/svg" xmlns:xlink="http://www.w3.org/1999/xlink">
    <title>形状结合</title>
    <g id="页面-1" stroke="none" stroke-width="1" fill-rule="evenodd">
        <path d="M13.4975386,0 C16.3336182,0 19.0003529,1.10418594 21.006031,3.10949516 L23.8899307,5.99342775 C25.8956108,7.99817514 27,10.6644211 27,13.499979 C27,16.335537 25.8956108,19.0017834 23.8899307,21.0070934 L21.006031,23.8904629 C19.0190277,25.8880024 16.3152943,27.0077 13.4975386,27 C10.6799402,27.00774 7.97636366,25.8880234 5.98960733,23.8904629 L3.10514402,21.0070934 C-1.03504813,16.8676605 -1.03504813,10.1322966 3.10514402,5.99342871 L5.98960733,3.10949564 C7.99472284,1.10418594 10.6614599,0 13.4975386,0 Z M13.4975386,2.24999642 C11.2770967,2.24389601 9.14649582,3.12619996 7.58064795,4.70024204 L4.69618416,7.58417416 C1.43365204,10.8461075 1.43365204,16.1538486 4.69618416,19.4163437 L7.58064651,22.299715 C9.16099834,23.879776 11.2623196,24.7499619 13.4975386,24.7499619 C15.7327595,24.7499619 17.8340797,23.879776 19.4149914,22.2997169 L22.2988911,19.4163456 C23.8792439,17.835722 24.749588,15.7347879 24.749588,13.499979 C24.749588,11.2651701 23.8792439,9.16423607 22.2988949,7.58417559 L19.4149952,4.70024204 C17.8488655,3.12627339 15.7181253,2.24399686 13.4975386,2.24999642 Z M15.7507281,16.8749733 C16.3721614,16.8749733 16.8759332,17.3786535 16.8759332,17.9999714 C16.8759332,18.6212912 16.3721614,19.1249704 15.7507281,19.1249704 L11.249907,19.1249704 C10.6284728,19.1249704 10.124702,18.6212912 10.124702,17.9999714 C10.124702,17.3786535 10.6284728,16.8749733 11.249907,16.8749733 L15.7507281,16.8749733 Z M17.9988875,12.3749876 C18.6203198,12.3749876 19.1240916,12.8786588 19.1240916,13.499979 C19.1240916,14.1212978 18.6203198,14.6249771 17.9988875,14.6249771 L8.99724543,14.6249771 C8.37581128,14.6249771 7.87204027,14.1212978 7.87204027,13.499979 C7.87204027,12.8786588 8.37581128,12.3749876 8.99724543,12.3749876 L17.9988875,12.3749876 Z M15.7484765,7.8749876 C16.3699098,7.8749876 16.8736815,8.37866598 16.8736815,8.99998581 C16.8736815,9.6213057 16.3699098,10.124984 15.7484765,10.124984 L11.2476559,10.124984 C10.6262214,10.124984 10.1224506,9.6213057 10.1224506,8.99998581 C10.1224506,8.37866598 10.6262214,7.8749876 11.2476559,7.8749876 L15.7484765,7.8749876 Z" id="形状结合" fill-rule="nonzero"></path>
    </g>
</svg>