<?xml version="1.0" encoding="UTF-8"?>
<svg width="285px" height="36px" viewBox="0 0 285 36" version="1.1" xmlns="http://www.w3.org/2000/svg" xmlns:xlink="http://www.w3.org/1999/xlink">
    <title>历史材料搜索</title>
    <g id="页面-1" stroke="none" stroke-width="1" fill="" fill-rule="evenodd">
        <g id="历史材料搜索" transform="translate(0.184000, 0.872000)" fill="" fill-rule="nonzero">
            <path d="M32.064,7.296 L29.808,12.768 L42.288,12.768 L39.648,31.392 C39.52,32.32 39.104,33.08 38.4,33.672 C37.696,34.264 36.88,34.56 35.952,34.56 L27.36,34.56 L31.632,30.096 L33.408,17.328 L27.984,17.328 L20.976,34.56 L11.856,34.56 L18.864,17.328 L13.344,17.328 L14.016,12.768 L20.688,12.768 L22.368,8.736 L21.168,7.296 L32.064,7.296 Z M44.832,0.912 L44.208,5.472 L13.872,5.472 L8.208,34.56 L-2.27373675e-13,34.56 L6.192,2.64 L4.704,0.912 L44.832,0.912 Z" id="形状"></path>
            <path d="M71.632,34.56 L64,29.808 L58.864,34.56 L48.832,34.56 L58,26.064 L49.84,20.976 L61.264,20.976 L62.608,21.84 L65.488,19.152 L51.04,19.152 L53.056,4.56 L68.56,4.56 L68.944,1.776 L67.456,-4.54747351e-13 L78.352,-4.54747351e-13 L77.68,4.56 L92.272,4.56 L90.256,19.152 L75.52,19.152 L69.328,24.912 L76.144,29.184 L88.816,29.184 L88.048,34.56 L71.632,34.56 Z M60.784,14.592 L67.168,14.592 L67.936,9.12 L61.552,9.12 L60.784,14.592 Z M77.056,9.12 L76.288,14.592 L81.76,14.592 L82.528,9.12 L77.056,9.12 Z" id="形状"></path>
            <path d="M126.896,30.048 L129.632,10.464 L129.152,10.464 L120.704,32.64 L114.464,32.64 L122.912,10.464 L118.544,10.464 L119.168,5.904 L130.304,5.904 L130.928,1.392 L129.776,0.048 L138.992,0.048 L138.176,5.904 L140.528,5.904 L139.904,10.464 L137.504,10.464 L134.576,31.344 C134.448,32.272 134.024,33.032 133.304,33.624 C132.584,34.216 131.76,34.512 130.832,34.512 L122.096,34.512 L126.896,30.048 Z M105.056,10.224 L99.92,10.224 L100.544,5.664 L105.68,5.664 L106.304,1.392 L105.152,-4.54747351e-13 L114.512,-4.54747351e-13 L113.696,5.664 L117.728,5.664 L117.104,10.224 L113.072,10.224 L109.616,34.56 L101.6,34.56 L105.056,10.224 Z M96.944,32.832 L100.784,11.856 L104.096,11.856 L100.304,32.832 L96.944,32.832 Z M111.488,30.96 L113.312,11.856 L116.624,11.856 L114.848,30.96 L111.488,30.96 Z" id="形状"></path>
            <path d="M186.768,24.768 L184.32,25.104 L182.976,34.56 L175.44,34.56 L176.592,26.112 L166.224,27.504 L166.896,22.656 L177.264,21.264 L180.048,1.776 L178.416,-4.54747351e-13 L187.872,-4.54747351e-13 L184.992,20.256 L187.44,19.92 L186.768,24.768 Z M154.128,15.936 L148.176,15.936 L148.8,11.376 L154.752,11.376 L156.096,1.968 L154.464,0.048 L163.44,0.048 L161.808,11.376 L166.848,11.376 L166.224,15.936 L161.184,15.936 L158.544,34.512 L151.488,34.512 L154.128,15.936 Z M164.736,32.736 L160.704,32.736 L161.808,17.28 L166.032,17.28 L164.736,32.736 Z M148.992,17.328 L153.168,17.328 L149.904,32.688 L145.872,32.688 L148.992,17.328 Z M176.352,19.536 L169.2,19.536 L168.336,13.2 L175.488,13.2 L176.352,19.536 Z M177.84,9.888 L170.688,9.888 L169.728,3.552 L176.88,3.552 L177.84,9.888 Z M154.176,1.92 L153.984,10.08 L150,10.08 L150.192,1.92 L154.176,1.92 Z M169.056,1.92 L166.944,10.08 L162.96,10.08 L165.072,1.92 L169.056,1.92 Z" id="形状"></path>
            <path d="M229.552,7.344 L229.84,5.52 L227.248,5.52 L227.776,1.776 L235.984,1.776 L233.776,17.328 L224.704,17.328 L224.464,19.104 L233.488,19.104 L232.48,26.304 L224.608,30 L232.432,34.56 L222.256,34.56 L218.944,32.688 L214.96,34.56 L204.832,34.56 L214.144,29.952 L207.808,26.304 L208.048,24.48 L215.152,24.48 L219.76,27.168 L225.856,24.144 L225.952,23.52 L208.192,23.52 L208.816,19.104 L218.224,19.104 L218.464,17.328 L209.056,17.328 L211.12,2.544 L219.52,1.536 L219.04,5.088 L216.256,5.616 L216.016,7.344 L218.704,7.344 L218.176,11.04 L215.488,11.04 L215.152,13.68 L218.944,13.68 L220.624,1.776 L219.568,0.096 L227.104,0.096 L225.184,13.68 L228.688,13.68 L229.072,11.04 L226.432,11.04 L226.96,7.344 L229.552,7.344 Z M199.504,18.048 L200.608,10.032 L197.392,10.032 L198.064,5.472 L201.28,5.472 L201.856,1.392 L200.656,0.048 L208.816,0.048 L208.048,5.472 L209.728,5.472 L209.056,10.032 L207.424,10.032 L206.56,15.984 L208.144,15.504 L207.472,20.544 L205.84,21.024 L204.4,31.344 C204.272,32.24 203.856,32.992 203.152,33.6 C202.448,34.208 201.632,34.512 200.704,34.512 L194.08,34.512 L197.776,30.192 L198.784,23.04 L195.424,24 L196.144,19.008 L199.504,18.048 Z" id="形状"></path>
            <path d="M245.648,21.792 L252.224,19.104 L245.936,19.104 L246.272,16.416 L249.776,14.976 L244.784,14.976 L245.792,7.776 L261.056,7.776 L261.296,6.336 L246.848,6.336 L247.472,1.776 L261.824,1.776 L260.336,0.048 L270.56,0.048 L270.32,1.776 L284,1.776 L283.376,6.336 L269.648,6.336 L269.456,7.776 L284.192,7.776 L283.184,15.024 L275.264,15.024 L275.696,11.856 L252.992,11.856 L252.704,13.776 L255.152,12.768 L265.232,12.768 L258.464,15.456 L281.216,15.456 L280.736,19.104 L262.256,19.104 L255.632,21.792 L271.616,21.792 L271.328,20.016 L280.448,20.016 L281.456,26.4 L272.336,26.4 L272.192,25.44 L266.96,25.44 L266,32.256 C265.904,32.896 265.52,33.416 264.848,33.816 C264.176,34.216 263.376,34.416 262.448,34.416 L253.856,34.416 L257.936,31.344 L258.752,25.44 L245.12,25.44 L245.648,21.792 Z M280.448,33.648 L272.24,33.648 L269.456,27.264 L277.664,27.264 L280.448,33.648 Z M250.4,33.696 L242.192,33.696 L247.664,27.312 L255.824,27.312 L250.4,33.696 Z" id="形状"></path>
        </g>
    </g>
</svg>