<svg xmlns="http://www.w3.org/2000/svg" xmlns:xlink="http://www.w3.org/1999/xlink" fill="none" version="1.1" width="62.1588134765625" height="79.422607421875" viewBox="0 0 62.1588134765625 79.422607421875"><g><path d="M7.42798,0L7.42798,72.9829L14.6029,72.9829L14.6029,72.2452L42.5851,14.7439L42.5851,71.373L39.2894,71.373L45.8138,79.4226L52.3381,71.373L49.76,71.373L49.76,0L42.5851,0L14.6029,58.6877L14.6029,0L7.42798,0ZM1.24475,1.67499C1.51562,1.50055,1.73962,1.3078,1.93225,1.09167L2.44531,1.09167L2.44531,6.80261L1.78906,6.80261L1.78906,1.89117C1.42969,2.25836,0.981812,2.51617,0.445312,2.67499L0.445312,2.01874C0.700562,1.94843,0.971313,1.83649,1.24475,1.67499ZM0.127563,69.2427L0.432251,66.0917L3.75256,66.0917L3.75256,66.675L0.96875,66.675L0.776001,68.5865L0.807251,68.5865C0.96875,68.3964,1.17712,68.2505,1.42444,68.1568C1.64844,68.0604,1.88806,68.0187,2.15369,68.0187C2.69788,68.0187,3.13806,68.188,3.474,68.5318C3.80994,68.8834,3.98438,69.3625,3.98438,69.9797C3.98438,70.5552,3.776,71.0266,3.36975,71.3964C2.98438,71.7401,2.50525,71.9172,1.94531,71.9172C1.44006,71.9172,1.00781,71.7792,0.65625,71.5084C0.255249,71.2037,0.041626,70.787,0,70.2687L0.648438,70.2687C0.679688,70.6281,0.825562,70.9068,1.08069,71.0995C1.30469,71.2687,1.60156,71.3547,1.95312,71.3547C2.35156,71.3547,2.67969,71.2271,2.94531,70.9719C3.20056,70.7167,3.33594,70.3885,3.33594,69.9875C3.33594,69.5318,3.20837,69.1802,2.96875,68.9328C2.73694,68.675,2.40881,68.5552,1.99219,68.5552C1.72131,68.5552,1.48181,68.6125,1.26562,68.7323C1.04163,68.8443,0.864624,69.0187,0.752563,69.2427L0.127563,69.2427ZM56.4323,66.0917C56.2396,66.3078,56.0156,66.5005,55.7448,66.675C55.4713,66.8365,55.2006,66.9484,54.9453,67.0187L54.9453,67.675C55.4818,67.5162,55.9297,67.2584,56.2891,66.8912L56.2891,71.8026L56.9453,71.8026L56.9453,66.0917L56.4323,66.0917ZM60.1588,65.9797C59.4713,65.9797,58.9584,66.2766,58.6146,66.8834C58.3099,67.3964,58.1588,68.0839,58.1588,68.9484C58.1588,69.813,58.3099,70.5005,58.6146,71.0109C58.9584,71.6125,59.4713,71.9172,60.1588,71.9172C60.8385,71.9172,61.3516,71.6125,61.7031,71.0109C62.0078,70.5005,62.1588,69.813,62.1588,68.9484C62.1588,68.0839,62.0078,67.3964,61.7031,66.8834C61.3516,66.2766,60.8385,65.9797,60.1588,65.9797ZM60.1588,66.5396C60.6719,66.5396,61.0391,66.8104,61.2631,67.3625C61.4244,67.7479,61.5104,68.2766,61.5104,68.9484C61.5104,69.6125,61.4244,70.1385,61.2631,70.5318C61.0391,71.076,60.6719,71.3547,60.1588,71.3547C59.6484,71.3547,59.2787,71.076,59.0547,70.5318C58.8959,70.1385,58.8151,69.6125,58.8151,68.9484C58.8151,68.2766,58.8959,67.7479,59.0547,67.3625C59.2787,66.8104,59.6484,66.5396,60.1588,66.5396ZM58.5728,0.979675C57.9243,0.979675,57.4114,1.27655,57.0364,1.87555C56.677,2.44324,56.4999,3.18805,56.4999,4.09949C56.4999,4.97186,56.6614,5.65155,56.9973,6.14117C57.3489,6.65155,57.8696,6.91718,58.5649,6.91718C59.1249,6.91718,59.5806,6.72449,59.9478,6.35468C60.3098,5.98749,60.4921,5.51617,60.4921,4.95624C60.4921,4.39636,60.3254,3.94843,59.9973,3.59686C59.6614,3.24274,59.2212,3.06824,58.677,3.06824C58.3411,3.06824,58.0442,3.14636,57.7889,3.31561C57.5155,3.47449,57.3176,3.70886,57.1718,4.00311L57.1405,4.00311C57.1327,3.89899,57.1327,3.82867,57.1327,3.7948C57.1327,3.14636,57.2524,2.61249,57.5077,2.19586C57.7655,1.74792,58.1171,1.5318,58.5649,1.5318C59.229,1.5318,59.6196,1.85211,59.7499,2.50836L60.3958,2.50836C60.2368,1.4823,59.6274,0.979675,58.5728,0.979675ZM58.5493,3.61249C58.9399,3.61249,59.2524,3.7323,59.4921,3.98749C59.7239,4.22711,59.8436,4.54742,59.8436,4.95624C59.8436,5.36249,59.7239,5.70105,59.4843,5.97186C59.2446,6.22711,58.9321,6.36511,58.5493,6.36511C58.1483,6.36511,57.8358,6.22711,57.5962,5.95624C57.3567,5.70105,57.2446,5.37292,57.2446,4.97186C57.2446,4.57086,57.3645,4.25055,57.6118,3.9953C57.8593,3.74011,58.1718,3.61249,58.5493,3.61249Z" fill-rule="evenodd" fill="#999999" fill-opacity="1"/></g></svg>