<svg xmlns="http://www.w3.org/2000/svg" xmlns:xlink="http://www.w3.org/1999/xlink" fill="none" version="1.1" width="96.046875" height="44.9100341796875" viewBox="0 0 96.046875 44.9100341796875"><g><path d="M15.106,0L88.29,0L88.29,7.17493L29.4407,7.17493L88.29,35.157L88.29,42.3319L16.7202,42.3319L16.7202,44.91L8.64844,38.3857L16.7202,31.8614L16.7202,35.157L73.5054,35.157L15.8455,7.17493L15.106,7.17493L15.106,0ZM7.48694,0.834839L7.18225,3.9859L7.80725,3.9859C7.91931,3.7619,8.09631,3.58746,8.32031,3.47546C8.5365,3.35565,8.776,3.2984,9.04688,3.2984C9.4635,3.2984,9.79163,3.41815,10.0234,3.67596C10.2631,3.9234,10.3906,4.27496,10.3906,4.73065C10.3906,5.13171,10.2552,5.45984,10,5.71503C9.73438,5.97028,9.40625,6.09784,9.00781,6.09784C8.65625,6.09784,8.35938,6.0119,8.13538,5.84265C7.88025,5.64996,7.73438,5.37128,7.70312,5.0119L7.05469,5.0119C7.09631,5.53015,7.30994,5.94684,7.71094,6.25153C8.0625,6.52234,8.49475,6.66034,9,6.66034C9.55994,6.66034,10.0391,6.48328,10.4244,6.13953C10.8307,5.76971,11.0391,5.2984,11.0391,4.72284C11.0391,4.10565,10.8646,3.62653,10.5287,3.27496C10.1927,2.93121,9.75256,2.7619,9.20837,2.7619C8.94275,2.7619,8.70312,2.80359,8.47913,2.89996C8.23181,2.99371,8.02344,3.13953,7.86194,3.32965L7.83069,3.32965L8.02344,1.41815L10.8073,1.41815L10.8073,0.834839L7.48694,0.834839ZM93.4869,0.834839C93.2943,1.05096,93.0703,1.24371,92.7994,1.41815C92.526,1.57965,92.2552,1.69159,92,1.7619L92,2.41815C92.5365,2.25934,92.9844,2.00153,93.3438,1.63434L93.3438,6.54578L94,6.54578L94,0.834839L93.4869,0.834839ZM3.66931,36.6265C4.01306,36.0197,4.526,35.7228,5.2135,35.7228C5.89319,35.7228,6.40625,36.0197,6.75781,36.6265C7.0625,37.1395,7.2135,37.827,7.2135,38.6916C7.2135,39.5562,7.0625,40.2437,6.75781,40.7541C6.40625,41.3557,5.89319,41.6603,5.2135,41.6603C4.526,41.6603,4.01306,41.3557,3.66931,40.7541C3.36462,40.2437,3.2135,39.5562,3.2135,38.6916C3.2135,37.827,3.36462,37.1395,3.66931,36.6265ZM92.5912,36.6187C92.9662,36.0197,93.4791,35.7228,94.1276,35.7228C95.1823,35.7228,95.7916,36.2255,95.9506,37.2515L95.3047,37.2515C95.1744,36.5953,94.7838,36.275,94.1198,36.275C93.6719,36.275,93.3203,36.4911,93.0625,36.939C92.8073,37.3557,92.6875,37.8895,92.6875,38.538C92.6875,38.5718,92.6875,38.6422,92.6953,38.7463L92.7266,38.7463C92.8724,38.452,93.0703,38.2177,93.3438,38.0588C93.599,37.8895,93.8959,37.8114,94.2318,37.8114C94.776,37.8114,95.2162,37.9859,95.5521,38.34C95.8802,38.6916,96.0469,39.1395,96.0469,39.6994C96.0469,40.2593,95.8646,40.7307,95.5026,41.0978C95.1354,41.4677,94.6797,41.6603,94.1198,41.6603C93.4244,41.6603,92.9037,41.3947,92.5521,40.8843C92.2162,40.3947,92.0547,39.715,92.0547,38.8427C92.0547,37.9312,92.2318,37.1864,92.5912,36.6187ZM0.799438,36.4182C1.07031,36.2437,1.29431,36.051,1.48694,35.8348L2,35.8348L2,41.5458L1.34375,41.5458L1.34375,36.6343C0.984375,37.0015,0.536499,37.2593,0,37.4182L0,36.7619C0.255249,36.6916,0.526001,36.5797,0.799438,36.4182ZM6.31775,37.1057C6.09375,36.5536,5.72656,36.2828,5.2135,36.2828C4.70312,36.2828,4.33337,36.5536,4.10938,37.1057C3.95056,37.4911,3.86975,38.0197,3.86975,38.6916C3.86975,39.3557,3.95056,39.8817,4.10938,40.275C4.33337,40.8192,4.70312,41.0978,5.2135,41.0978C5.72656,41.0978,6.09375,40.8192,6.31775,40.275C6.47913,39.8817,6.56506,39.3557,6.56506,38.6916C6.56506,38.0197,6.47913,37.4911,6.31775,37.1057ZM95.0469,38.7307C94.8073,38.4755,94.4948,38.3557,94.1041,38.3557C93.7266,38.3557,93.4141,38.4833,93.1666,38.7385C92.9193,38.9937,92.7994,39.314,92.7994,39.715C92.7994,40.1161,92.9115,40.4442,93.151,40.6994C93.3906,40.9703,93.7031,41.1083,94.1041,41.1083C94.4869,41.1083,94.7994,40.9703,95.0391,40.715C95.2787,40.4442,95.3984,40.1057,95.3984,39.6994C95.3984,39.2906,95.2787,38.9703,95.0469,38.7307Z" fill-rule="evenodd" fill="#999999" fill-opacity="1"/></g></svg>