<svg xmlns="http://www.w3.org/2000/svg" xmlns:xlink="http://www.w3.org/1999/xlink" fill="none" version="1.1" width="73.5650634765625" height="54.32159423828125" viewBox="0 0 73.5650634765625 54.32159423828125"><g><path d="M8.8385,0L8.53381,3.15106L9.15881,3.15106C9.27087,2.92706,9.44788,2.75262,9.67188,2.64062C9.88806,2.52081,10.1276,2.46356,10.3984,2.46356C10.8151,2.46356,11.1432,2.58331,11.375,2.84113C11.6146,3.08856,11.7422,3.44012,11.7422,3.89581C11.7422,4.29688,11.6068,4.625,11.3516,4.88019C11.0859,5.13544,10.7578,5.263,10.3594,5.263C10.0078,5.263,9.71094,5.17706,9.48694,5.00781C9.23181,4.81512,9.08594,4.53644,9.05469,4.17706L8.40625,4.17706C8.44788,4.69531,8.6615,5.112,9.0625,5.41669C9.41406,5.6875,9.84631,5.8255,10.3516,5.8255C10.9115,5.8255,11.3906,5.64844,11.776,5.30469C12.1823,4.93488,12.3906,4.46356,12.3906,3.888C12.3906,3.27081,12.2162,2.79169,11.8802,2.44012C11.5443,2.09637,11.1041,1.92706,10.5599,1.92706C10.2943,1.92706,10.0547,1.96875,9.83069,2.06512C9.58337,2.15887,9.375,2.30469,9.2135,2.49481L9.18225,2.49481L9.375,0.583313L12.1588,0.583313L12.1588,0L8.8385,0ZM69.8385,0C69.6459,0.216125,69.4219,0.408875,69.151,0.583313C68.8776,0.744812,68.6068,0.85675,68.3516,0.927063L68.3516,1.58331C68.8881,1.4245,69.3359,1.16669,69.6953,0.7995L69.6953,5.71094L70.3516,5.71094L70.3516,0L69.8385,0ZM73,8.33093L0,8.33093L0,33.3309L66,33.3309L66,44.3309L12.0718,44.3309L12.0718,41.2729L4,47.7972L12.0718,54.3216L12.0718,51.3309L73,51.3309L73,26.3309L7,26.3309L7,15.3309L73,15.3309L73,8.33093ZM8.94275,20.7839C9.31775,20.1849,9.83069,19.888,10.4791,19.888C11.5338,19.888,12.1432,20.3906,12.3021,21.4167L11.6562,21.4167C11.526,20.7604,11.1354,20.4401,10.4713,20.4401C10.0234,20.4401,9.67188,20.6562,9.41406,21.1042C9.15881,21.5208,9.03906,22.0547,9.03906,22.7031C9.03906,22.737,9.03906,22.8073,9.04688,22.9114L9.07812,22.9114C9.224,22.6172,9.42188,22.3828,9.69531,22.2239C9.95056,22.0547,10.2474,21.9766,10.5834,21.9766C11.1276,21.9766,11.5677,22.1511,11.9037,22.5052C12.2318,22.8568,12.3984,23.3047,12.3984,23.8646C12.3984,24.4245,12.2162,24.8958,11.8541,25.263C11.4869,25.6328,11.0312,25.8255,10.4713,25.8255C9.776,25.8255,9.25525,25.5599,8.90369,25.0495C8.56775,24.5599,8.40625,23.8802,8.40625,23.0078C8.40625,22.0964,8.58337,21.3516,8.94275,20.7839ZM70.0209,20.7917C70.3646,20.1849,70.8776,19.888,71.5651,19.888C72.2448,19.888,72.7578,20.1849,73.1094,20.7917C73.4141,21.3047,73.5651,21.9922,73.5651,22.8568C73.5651,23.7214,73.4141,24.4089,73.1094,24.9193C72.7578,25.5208,72.2448,25.8255,71.5651,25.8255C70.8776,25.8255,70.3646,25.5208,70.0209,24.9193C69.7162,24.4089,69.5651,23.7214,69.5651,22.8568C69.5651,21.9922,69.7162,21.3047,70.0209,20.7917ZM67.151,20.5833C67.4219,20.4089,67.6459,20.2161,67.8385,20L68.3516,20L68.3516,25.7109L67.6953,25.7109L67.6953,20.7995C67.3359,21.1667,66.8881,21.4245,66.3516,21.5833L66.3516,20.9271C66.6068,20.8568,66.8776,20.7448,67.151,20.5833ZM72.6693,21.2708C72.4453,20.7188,72.0781,20.4479,71.5651,20.4479C71.0547,20.4479,70.6849,20.7188,70.4609,21.2708C70.3021,21.6562,70.2213,22.1849,70.2213,22.8568C70.2213,23.5208,70.3021,24.0469,70.4609,24.4401C70.6849,24.9844,71.0547,25.263,71.5651,25.263C72.0781,25.263,72.4453,24.9844,72.6693,24.4401C72.8307,24.0469,72.9166,23.5208,72.9166,22.8568C72.9166,22.1849,72.8307,21.6562,72.6693,21.2708ZM11.3984,22.8958C11.1588,22.6406,10.8463,22.5208,10.4557,22.5208C10.0781,22.5208,9.76562,22.6484,9.51819,22.9036C9.27087,23.1589,9.151,23.4792,9.151,23.8802C9.151,24.2812,9.26306,24.6094,9.50256,24.8646C9.74219,25.1354,10.0547,25.2734,10.4557,25.2734C10.8385,25.2734,11.151,25.1354,11.3906,24.8802C11.6302,24.6094,11.75,24.2708,11.75,23.8646C11.75,23.4557,11.6302,23.1354,11.3984,22.8958Z" fill-rule="evenodd" fill="#999999" fill-opacity="1"/></g></svg>