<svg xmlns="http://www.w3.org/2000/svg" xmlns:xlink="http://www.w3.org/1999/xlink" fill="none" version="1.1" width="73" height="54.32159423828125" viewBox="0 0 73 54.32159423828125"><g><path d="M3.151,0.583313C3.42188,0.408875,3.64587,0.216125,3.8385,0L4.35156,0L4.35156,5.71094L3.69531,5.71094L3.69531,0.7995C3.33594,1.16669,2.88806,1.4245,2.35156,1.58331L2.35156,0.927063C2.60681,0.85675,2.87756,0.744812,3.151,0.583313ZM66.8385,0L66.5338,3.15106L67.1588,3.15106C67.2709,2.92706,67.4479,2.75262,67.6719,2.64062C67.8881,2.52081,68.1276,2.46356,68.3984,2.46356C68.8151,2.46356,69.1432,2.58331,69.375,2.84113C69.6146,3.08856,69.7422,3.44012,69.7422,3.89581C69.7422,4.29688,69.6068,4.625,69.3516,4.88019C69.0859,5.13544,68.7578,5.263,68.3594,5.263C68.0078,5.263,67.7109,5.17706,67.4869,5.00781C67.2318,4.81512,67.0859,4.53644,67.0547,4.17706L66.4062,4.17706C66.4479,4.69531,66.6615,5.112,67.0625,5.41669C67.4141,5.6875,67.8463,5.8255,68.3516,5.8255C68.9115,5.8255,69.3906,5.64844,69.776,5.30469C70.1823,4.93488,70.3906,4.46356,70.3906,3.888C70.3906,3.27081,70.2162,2.79169,69.8802,2.44012C69.5443,2.09637,69.1041,1.92706,68.5599,1.92706C68.2943,1.92706,68.0547,1.96875,67.8307,2.06512C67.5834,2.15887,67.375,2.30469,67.2135,2.49481L67.1823,2.49481L67.375,0.583313L70.1588,0.583313L70.1588,0L66.8385,0ZM73,8.33093L0,8.33093L0,15.3309L66,15.3309L66,26.3309L0,26.3309L0,51.3309L60.9282,51.3309L60.9282,54.3216L69,47.7972L60.9282,41.2729L60.9282,44.3309L7,44.3309L7,33.3309L73,33.3309L73,8.33093ZM6.02087,20.7917C6.36462,20.1849,6.87756,19.888,7.56506,19.888C8.24475,19.888,8.75781,20.1849,9.10938,20.7917C9.41406,21.3047,9.56506,21.9922,9.56506,22.8568C9.56506,23.7214,9.41406,24.4089,9.10938,24.9193C8.75781,25.5208,8.24475,25.8255,7.56506,25.8255C6.87756,25.8255,6.36462,25.5208,6.02087,24.9193C5.71619,24.4089,5.56506,23.7214,5.56506,22.8568C5.56506,21.9922,5.71619,21.3047,6.02087,20.7917ZM61.9427,20.7839C62.3177,20.1849,62.8307,19.888,63.4791,19.888C64.5338,19.888,65.1432,20.3906,65.3021,21.4167L64.6562,21.4167C64.526,20.7604,64.1354,20.4401,63.4713,20.4401C63.0234,20.4401,62.6719,20.6562,62.4141,21.1042C62.1588,21.5208,62.0391,22.0547,62.0391,22.7031C62.0391,22.737,62.0391,22.8073,62.0469,22.9114L62.0781,22.9114C62.224,22.6172,62.4219,22.3828,62.6953,22.2239C62.9506,22.0547,63.2474,21.9766,63.5834,21.9766C64.1276,21.9766,64.5677,22.1511,64.9037,22.5052C65.2318,22.8568,65.3984,23.3047,65.3984,23.8646C65.3984,24.4245,65.2162,24.8958,64.8541,25.263C64.4869,25.6328,64.0312,25.8255,63.4713,25.8255C62.776,25.8255,62.2552,25.5599,61.9037,25.0495C61.5677,24.5599,61.4062,23.8802,61.4062,23.0078C61.4062,22.0964,61.5834,21.3516,61.9427,20.7839ZM3.151,20.5833C3.42188,20.4089,3.64587,20.2161,3.8385,20L4.35156,20L4.35156,25.7109L3.69531,25.7109L3.69531,20.7995C3.33594,21.1667,2.88806,21.4245,2.35156,21.5833L2.35156,20.9271C2.60681,20.8568,2.87756,20.7448,3.151,20.5833ZM8.66931,21.2708C8.44531,20.7188,8.07812,20.4479,7.56506,20.4479C7.05469,20.4479,6.68494,20.7188,6.46094,21.2708C6.30212,21.6562,6.22131,22.1849,6.22131,22.8568C6.22131,23.5208,6.30212,24.0469,6.46094,24.4401C6.68494,24.9844,7.05469,25.263,7.56506,25.263C8.07812,25.263,8.44531,24.9844,8.66931,24.4401C8.83069,24.0469,8.91663,23.5208,8.91663,22.8568C8.91663,22.1849,8.83069,21.6562,8.66931,21.2708ZM64.3984,22.8958C64.1588,22.6406,63.8463,22.5208,63.4557,22.5208C63.0781,22.5208,62.7656,22.6484,62.5182,22.9036C62.2709,23.1589,62.151,23.4792,62.151,23.8802C62.151,24.2812,62.2631,24.6094,62.5026,24.8646C62.7422,25.1354,63.0547,25.2734,63.4557,25.2734C63.8385,25.2734,64.151,25.1354,64.3906,24.8802C64.6302,24.6094,64.75,24.2708,64.75,23.8646C64.75,23.4557,64.6302,23.1354,64.3984,22.8958Z" fill-rule="evenodd" fill="#999999" fill-opacity="1"/></g></svg>