<svg xmlns="http://www.w3.org/2000/svg" xmlns:xlink="http://www.w3.org/1999/xlink" fill="none" version="1.1" width="77" height="60" viewBox="0 0 77 60"><g style="mix-blend-mode:passthrough"><path d="M5.37305,5.04586L0.332682,11.6813L0.332682,12.775L5.35938,12.775L5.35938,15.04L6.45312,15.04L6.45312,12.775L8.07552,12.775L8.07552,11.8362L6.45312,11.8362L6.45312,5.04586L5.37305,5.04586ZM5.31836,6.54521L5.35938,6.54521L5.35938,11.8362L1.29883,11.8362L5.31836,6.54521ZM22.1302,4.8499C21.123,4.8499,20.2936,5.18713,19.6784,5.85706C19.0632,6.51331,18.7396,7.41109,18.7396,8.53219L19.888,8.53219C19.9017,7.64807,20.1113,6.97815,20.5078,6.53154C20.8678,6.05302,21.401,5.82971,22.0892,5.82971C22.7318,5.82971,23.2513,5.99833,23.6159,6.33557C23.9759,6.66825,24.1582,7.1331,24.1582,7.74833C24.1582,8.39091,23.8939,8.99247,23.388,9.53935C23.1237,9.8219,22.6042,10.2275,21.8203,10.788C20.7585,11.5127,20.043,12.1142,19.651,12.5654C18.9811,13.3082,18.6576,14.1331,18.6576,15.04L25.3203,15.04L25.3203,14.0192L20.0703,14.0192C20.2526,13.3492,20.9818,12.5791,22.2578,11.7223C23.2923,11.025,23.9759,10.4782,24.3268,10.1136C24.974,9.41174,25.3066,8.62789,25.3066,7.762C25.3066,6.89156,25.0013,6.18062,24.4134,5.64742C23.8118,5.11422,23.0553,4.8499,22.1302,4.8499ZM38.8008,5.04586C38.4635,5.42411,38.0716,5.76135,37.5977,6.06669C37.1191,6.34924,36.6452,6.54521,36.1986,6.66825L36.1986,7.81669C37.1374,7.5387,37.9212,7.08753,38.5501,6.44495L38.5501,15.04L39.6986,15.04L39.6986,5.04586L38.8008,5.04586ZM54.7559,4.8499C53.8034,4.8499,53.0332,5.11422,52.4453,5.66109C51.8301,6.20797,51.4655,6.96448,51.3789,7.93062L52.5137,7.93062C52.582,7.25615,52.8099,6.74117,53.2018,6.37659C53.5801,6.012,54.0951,5.84338,54.7695,5.84338C55.4121,5.84338,55.9316,5.99833,56.2962,6.33557C56.6289,6.64091,56.8112,7.07385,56.8112,7.6344C56.8112,8.19495,56.6289,8.62789,56.2826,8.93779C55.9316,9.23401,55.4258,9.3844,54.7559,9.3844L53.9857,9.3844L53.9857,10.2822L54.7969,10.2822C55.4987,10.2822,56.0273,10.4371,56.4193,10.7698C56.8112,11.1071,57.0072,11.5719,57.0072,12.1735C57.0072,12.7614,56.7975,13.249,56.4056,13.6409C55.9727,14.0465,55.3984,14.2561,54.6829,14.2561C54.054,14.2561,53.5345,14.0784,53.1152,13.7412C52.6276,13.3356,52.3587,12.734,52.3314,11.9502L51.1693,11.9502C51.2559,13.0667,51.6478,13.9235,52.3587,14.5114C52.9603,14.9853,53.7305,15.2405,54.6829,15.2405C55.722,15.2405,56.5606,14.9443,57.2031,14.3564C57.8366,13.7822,58.1556,13.0393,58.1556,12.1279C58.1556,11.54,57.987,11.0524,57.6543,10.6604C57.3444,10.2685,56.8978,9.98596,56.3099,9.80367C57.3991,9.44365,57.946,8.68713,57.946,7.56604C57.946,6.7275,57.6543,6.06669,57.0801,5.57906C56.4922,5.08687,55.7083,4.8499,54.7559,4.8499ZM69.7174,5.04586L69.1842,10.5602L70.278,10.5602C70.474,10.1683,70.7839,9.86292,71.1758,9.66695C71.554,9.45732,71.9733,9.35706,72.4473,9.35706C73.1764,9.35706,73.7506,9.56669,74.1562,10.0179C74.5755,10.4508,74.7988,11.066,74.7988,11.8636C74.7988,12.5654,74.5619,13.1396,74.1152,13.5862C73.6504,14.0328,73.0762,14.2561,72.3789,14.2561C71.7637,14.2561,71.2441,14.1058,70.8522,13.8095C70.4056,13.4723,70.1504,12.9847,70.0957,12.3558L68.9609,12.3558C69.0339,13.2627,69.4076,13.9918,70.1094,14.525C70.7246,14.999,71.4811,15.2405,72.3652,15.2405C73.3451,15.2405,74.1836,14.9306,74.8581,14.3291C75.569,13.6819,75.9336,12.8571,75.9336,11.8499C75.9336,10.7698,75.6283,9.93128,75.0404,9.31604C74.4525,8.71448,73.6823,8.41825,72.7298,8.41825C72.265,8.41825,71.8457,8.49117,71.4538,8.65979C71.0208,8.82385,70.6562,9.07906,70.3737,9.41174L70.319,9.41174L70.6562,6.06669L75.528,6.06669L75.528,5.04586L69.7174,5.04586ZM5.37305,25.0459L0.332682,31.6813L0.332682,32.775L5.35938,32.775L5.35938,35.04L6.45312,35.04L6.45312,32.775L8.07552,32.775L8.07552,31.8362L6.45312,31.8362L6.45312,25.0459L5.37305,25.0459ZM5.31836,26.5452L5.35938,26.5452L5.35938,31.8362L1.29883,31.8362L5.31836,26.5452ZM22.1302,24.8499C21.123,24.8499,20.2936,25.1871,19.6784,25.8571C19.0632,26.5133,18.7396,27.4111,18.7396,28.5322L19.888,28.5322C19.9017,27.6481,20.1113,26.9782,20.5078,26.5315C20.8678,26.053,21.401,25.8297,22.0892,25.8297C22.7318,25.8297,23.2513,25.9983,23.6159,26.3356C23.9759,26.6683,24.1582,27.1331,24.1582,27.7483C24.1582,28.3909,23.8939,28.9925,23.388,29.5394C23.1237,29.8219,22.6042,30.2275,21.8203,30.788C20.7585,31.5127,20.043,32.1142,19.651,32.5654C18.9811,33.3082,18.6576,34.1331,18.6576,35.04L25.3203,35.04L25.3203,34.0192L20.0703,34.0192C20.2526,33.3492,20.9818,32.5791,22.2578,31.7223C23.2923,31.025,23.9759,30.4782,24.3268,30.1136C24.974,29.4117,25.3066,28.6279,25.3066,27.762C25.3066,26.8916,25.0013,26.1806,24.4134,25.6474C23.8118,25.1142,23.0553,24.8499,22.1302,24.8499ZM38.8008,25.0459C38.4635,25.4241,38.0716,25.7614,37.5977,26.0667C37.1191,26.3492,36.6452,26.5452,36.1986,26.6683L36.1986,27.8167C37.1374,27.5387,37.9212,27.0875,38.5501,26.445L38.5501,35.04L39.6986,35.04L39.6986,25.0459L38.8008,25.0459ZM54.7559,24.8499C53.8034,24.8499,53.0332,25.1142,52.4453,25.6611C51.8301,26.208,51.4655,26.9645,51.3789,27.9306L52.5137,27.9306C52.582,27.2561,52.8099,26.7412,53.2018,26.3766C53.5801,26.012,54.0951,25.8434,54.7695,25.8434C55.4121,25.8434,55.9316,25.9983,56.2962,26.3356C56.6289,26.6409,56.8112,27.0739,56.8112,27.6344C56.8112,28.195,56.6289,28.6279,56.2826,28.9378C55.9316,29.234,55.4258,29.3844,54.7559,29.3844L53.9857,29.3844L53.9857,30.2822L54.7969,30.2822C55.4987,30.2822,56.0273,30.4371,56.4193,30.7698C56.8112,31.1071,57.0072,31.5719,57.0072,32.1735C57.0072,32.7614,56.7975,33.249,56.4056,33.6409C55.9727,34.0465,55.3984,34.2561,54.6829,34.2561C54.054,34.2561,53.5345,34.0784,53.1152,33.7412C52.6276,33.3356,52.3587,32.734,52.3314,31.9502L51.1693,31.9502C51.2559,33.0667,51.6478,33.9235,52.3587,34.5114C52.9603,34.9853,53.7305,35.2405,54.6829,35.2405C55.722,35.2405,56.5606,34.9443,57.2031,34.3564C57.8366,33.7822,58.1556,33.0393,58.1556,32.1279C58.1556,31.54,57.987,31.0524,57.6543,30.6604C57.3444,30.2685,56.8978,29.986,56.3099,29.8037C57.3991,29.4436,57.946,28.6871,57.946,27.566C57.946,26.7275,57.6543,26.0667,57.0801,25.5791C56.4922,25.0869,55.7083,24.8499,54.7559,24.8499ZM69.7174,25.0459L69.1842,30.5602L70.278,30.5602C70.474,30.1683,70.7839,29.8629,71.1758,29.667C71.554,29.4573,71.9733,29.3571,72.4473,29.3571C73.1764,29.3571,73.7506,29.5667,74.1562,30.0179C74.5755,30.4508,74.7988,31.066,74.7988,31.8636C74.7988,32.5654,74.5619,33.1396,74.1152,33.5862C73.6504,34.0328,73.0762,34.2561,72.3789,34.2561C71.7637,34.2561,71.2441,34.1058,70.8522,33.8095C70.4056,33.4723,70.1504,32.9847,70.0957,32.3558L68.9609,32.3558C69.0339,33.2627,69.4076,33.9918,70.1094,34.525C70.7246,34.999,71.4811,35.2405,72.3652,35.2405C73.3451,35.2405,74.1836,34.9306,74.8581,34.3291C75.569,33.6819,75.9336,32.8571,75.9336,31.8499C75.9336,30.7698,75.6283,29.9313,75.0404,29.316C74.4525,28.7145,73.6823,28.4183,72.7298,28.4183C72.265,28.4183,71.8457,28.4912,71.4538,28.6598C71.0208,28.8239,70.6562,29.0791,70.3737,29.4117L70.319,29.4117L70.6562,26.0667L75.528,26.0667L75.528,25.0459L69.7174,25.0459ZM5.37305,45.0459L0.332682,51.6813L0.332682,52.775L5.35938,52.775L5.35938,55.04L6.45312,55.04L6.45312,52.775L8.07552,52.775L8.07552,51.8362L6.45312,51.8362L6.45312,45.0459L5.37305,45.0459ZM5.31836,46.5452L5.35938,46.5452L5.35938,51.8362L1.29883,51.8362L5.31836,46.5452ZM22.1302,44.8499C21.123,44.8499,20.2936,45.1871,19.6784,45.8571C19.0632,46.5133,18.7396,47.4111,18.7396,48.5322L19.888,48.5322C19.9017,47.6481,20.1113,46.9782,20.5078,46.5315C20.8678,46.053,21.401,45.8297,22.0892,45.8297C22.7318,45.8297,23.2513,45.9983,23.6159,46.3356C23.9759,46.6683,24.1582,47.1331,24.1582,47.7483C24.1582,48.3909,23.8939,48.9925,23.388,49.5393C23.1237,49.8219,22.6042,50.2275,21.8203,50.788C20.7585,51.5127,20.043,52.1142,19.651,52.5654C18.9811,53.3082,18.6576,54.1331,18.6576,55.04L25.3203,55.04L25.3203,54.0192L20.0703,54.0192C20.2526,53.3492,20.9818,52.5791,22.2578,51.7223C23.2923,51.025,23.9759,50.4782,24.3268,50.1136C24.974,49.4117,25.3066,48.6279,25.3066,47.762C25.3066,46.8916,25.0013,46.1806,24.4134,45.6474C23.8118,45.1142,23.0553,44.8499,22.1302,44.8499ZM38.8008,45.0459C38.4635,45.4241,38.0716,45.7614,37.5977,46.0667C37.1191,46.3492,36.6452,46.5452,36.1986,46.6683L36.1986,47.8167C37.1374,47.5387,37.9212,47.0875,38.5501,46.445L38.5501,55.04L39.6986,55.04L39.6986,45.0459L38.8008,45.0459ZM54.7559,44.8499C53.8034,44.8499,53.0332,45.1142,52.4453,45.6611C51.8301,46.208,51.4655,46.9645,51.3789,47.9306L52.5137,47.9306C52.582,47.2561,52.8099,46.7412,53.2018,46.3766C53.5801,46.012,54.0951,45.8434,54.7695,45.8434C55.4121,45.8434,55.9316,45.9983,56.2962,46.3356C56.6289,46.6409,56.8112,47.0739,56.8112,47.6344C56.8112,48.195,56.6289,48.6279,56.2826,48.9378C55.9316,49.234,55.4258,49.3844,54.7559,49.3844L53.9857,49.3844L53.9857,50.2822L54.7969,50.2822C55.4987,50.2822,56.0273,50.4371,56.4193,50.7698C56.8112,51.1071,57.0072,51.5719,57.0072,52.1735C57.0072,52.7614,56.7975,53.249,56.4056,53.6409C55.9727,54.0465,55.3984,54.2561,54.6829,54.2561C54.054,54.2561,53.5345,54.0784,53.1152,53.7412C52.6276,53.3356,52.3587,52.734,52.3314,51.9502L51.1693,51.9502C51.2559,53.0667,51.6478,53.9235,52.3587,54.5114C52.9603,54.9853,53.7305,55.2405,54.6829,55.2405C55.722,55.2405,56.5606,54.9443,57.2031,54.3564C57.8366,53.7822,58.1556,53.0393,58.1556,52.1279C58.1556,51.54,57.987,51.0524,57.6543,50.6604C57.3444,50.2685,56.8978,49.986,56.3099,49.8037C57.3991,49.4436,57.946,48.6871,57.946,47.566C57.946,46.7275,57.6543,46.0667,57.0801,45.5791C56.4922,45.0869,55.7083,44.8499,54.7559,44.8499ZM69.7174,45.0459L69.1842,50.5602L70.278,50.5602C70.474,50.1683,70.7839,49.8629,71.1758,49.667C71.554,49.4573,71.9733,49.3571,72.4473,49.3571C73.1764,49.3571,73.7506,49.5667,74.1562,50.0179C74.5755,50.4508,74.7988,51.066,74.7988,51.8636C74.7988,52.5654,74.5619,53.1396,74.1152,53.5862C73.6504,54.0328,73.0762,54.2561,72.3789,54.2561C71.7637,54.2561,71.2441,54.1058,70.8522,53.8095C70.4056,53.4723,70.1504,52.9847,70.0957,52.3558L68.9609,52.3558C69.0339,53.2627,69.4076,53.9918,70.1094,54.525C70.7246,54.999,71.4811,55.2405,72.3652,55.2405C73.3451,55.2405,74.1836,54.9306,74.8581,54.3291C75.569,53.6819,75.9336,52.8571,75.9336,51.8499C75.9336,50.7698,75.6283,49.9313,75.0404,49.316C74.4525,48.7145,73.6823,48.4183,72.7298,48.4183C72.265,48.4183,71.8457,48.4912,71.4538,48.6598C71.0208,48.8239,70.6562,49.0791,70.3737,49.4117L70.319,49.4117L70.6562,46.0667L75.528,46.0667L75.528,45.0459L69.7174,45.0459Z" fill="#3D3D3D" fill-opacity="1"/></g></svg>