<svg xmlns="http://www.w3.org/2000/svg" xmlns:xlink="http://www.w3.org/1999/xlink" fill="none" version="1.1" width="66.0390625" height="79.641357421875" viewBox="0 0 66.0390625 79.641357421875"><g><path d="M20.6571,71.5696L20.6571,14.7846L48.6393,72.4443L48.6393,73.1841L55.8142,73.1841L55.8142,0L48.6393,0L48.6393,58.8493L20.6571,0L13.4822,0L13.4822,71.5696L10.9042,71.5696L17.4285,79.6414L23.9529,71.5696L20.6571,71.5696ZM63.7994,2.66498C64.0703,2.49054,64.2943,2.29779,64.4869,2.08167L65,2.08167L65,7.7926L64.3438,7.7926L64.3438,2.88116C63.9844,3.24835,63.5365,3.50616,63,3.66498L63,3.00873C63.2552,2.93842,63.526,2.82648,63.7994,2.66498ZM62.1823,70.2327L62.4869,67.0817L65.8073,67.0817L65.8073,67.665L63.0234,67.665L62.8307,69.5765L62.8619,69.5765C63.0234,69.3864,63.2318,69.2405,63.4791,69.1468C63.7031,69.0504,63.9427,69.0087,64.2084,69.0087C64.7526,69.0087,65.1927,69.178,65.5287,69.5218C65.8646,69.8734,66.0391,70.3525,66.0391,70.9697C66.0391,71.5452,65.8307,72.0165,65.4244,72.3864C65.0391,72.7301,64.5599,72.9072,64,72.9072C63.4948,72.9072,63.0625,72.7692,62.7109,72.4984C62.3099,72.1937,62.0963,71.777,62.0547,71.2587L62.7031,71.2587C62.7344,71.6181,62.8802,71.8968,63.1354,72.0895C63.3594,72.2587,63.6562,72.3447,64.0078,72.3447C64.4062,72.3447,64.7344,72.2171,65,71.9619C65.2552,71.7067,65.3906,71.3785,65.3906,70.9775C65.3906,70.5218,65.2631,70.1702,65.0234,69.9228C64.7916,69.665,64.4635,69.5452,64.0469,69.5452C63.776,69.5452,63.5365,69.6025,63.3203,69.7223C63.0963,69.8343,62.9193,70.0087,62.8073,70.2327L62.1823,70.2327ZM1.48694,67.0817C1.29431,67.2978,1.07031,67.4905,0.799438,67.665C0.526001,67.8265,0.255249,67.9384,0,68.0087L0,68.665C0.536499,68.5062,0.984375,68.2484,1.34375,67.8812L1.34375,72.7926L2,72.7926L2,67.0817L1.48694,67.0817ZM5.2135,66.9697C4.526,66.9697,4.01306,67.2665,3.66931,67.8734C3.36462,68.3864,3.2135,69.0739,3.2135,69.9384C3.2135,70.803,3.36462,71.4905,3.66931,72.0009C4.01306,72.6025,4.526,72.9072,5.2135,72.9072C5.89319,72.9072,6.40625,72.6025,6.75781,72.0009C7.0625,71.4905,7.2135,70.803,7.2135,69.9384C7.2135,69.0739,7.0625,68.3864,6.75781,67.8734C6.40625,67.2665,5.89319,66.9697,5.2135,66.9697ZM5.2135,67.5296C5.72656,67.5296,6.09375,67.8004,6.31775,68.3525C6.47913,68.7379,6.56506,69.2665,6.56506,69.9384C6.56506,70.6025,6.47913,71.1285,6.31775,71.5218C6.09375,72.066,5.72656,72.3447,5.2135,72.3447C4.70312,72.3447,4.33337,72.066,4.10938,71.5218C3.95056,71.1285,3.86975,70.6025,3.86975,69.9384C3.86975,69.2665,3.95056,68.7379,4.10938,68.3525C4.33337,67.8004,4.70312,67.5296,5.2135,67.5296ZM5.12756,1.96967C4.47913,1.96967,3.96619,2.26654,3.59119,2.86554C3.23181,3.43323,3.05469,4.17804,3.05469,5.08948C3.05469,5.96185,3.21619,6.64154,3.55212,7.13116C3.90369,7.64154,4.42444,7.90717,5.11975,7.90717C5.67969,7.90717,6.13538,7.71448,6.50256,7.34467C6.86462,6.97748,7.04688,6.50616,7.04688,5.94623C7.04688,5.38635,6.88025,4.93842,6.55212,4.58685C6.21619,4.23273,5.776,4.05823,5.23181,4.05823C4.89587,4.05823,4.599,4.13635,4.34375,4.3056C4.07031,4.46448,3.87244,4.69885,3.72656,4.9931L3.69531,4.9931C3.6875,4.88898,3.6875,4.81866,3.6875,4.78479C3.6875,4.13635,3.80725,3.60248,4.0625,3.18585C4.32031,2.73792,4.67188,2.52179,5.11975,2.52179C5.78381,2.52179,6.17444,2.8421,6.30469,3.49835L6.95056,3.49835C6.79163,2.47229,6.18225,1.96967,5.12756,1.96967ZM5.10413,4.60248C5.49475,4.60248,5.80725,4.72229,6.04688,4.97748C6.27869,5.2171,6.39844,5.53741,6.39844,5.94623C6.39844,6.35248,6.27869,6.69104,6.03906,6.96185C5.79944,7.2171,5.48694,7.3551,5.10413,7.3551C4.70312,7.3551,4.39062,7.2171,4.151,6.94623C3.9115,6.69104,3.79944,6.36292,3.79944,5.96185C3.79944,5.56085,3.91931,5.24054,4.16663,4.98529C4.41406,4.7301,4.72656,4.60248,5.10413,4.60248Z" fill-rule="evenodd" fill="#999999" fill-opacity="1"/></g></svg>