<svg xmlns="http://www.w3.org/2000/svg" xmlns:xlink="http://www.w3.org/1999/xlink" fill="none" version="1.1" width="93.65869140625" height="44.9100341796875" viewBox="0 0 93.65869140625 44.9100341796875"><g><path d="M80.3651,0L7.18103,0L7.18103,7.17493L66.0304,7.17493L7.18103,35.157L7.18103,42.3319L78.7509,42.3319L78.7509,44.91L86.8226,38.3857L78.7509,31.8614L78.7509,35.157L21.9657,35.157L79.6256,7.17493L80.3651,7.17493L80.3651,0ZM2.43225,0.834839C2.23962,1.05096,2.01562,1.24371,1.74475,1.41815C1.47131,1.57965,1.20056,1.69159,0.945312,1.7619L0.945312,2.41815C1.48181,2.25934,1.92969,2.00153,2.28906,1.63434L2.28906,6.54578L2.94531,6.54578L2.94531,0.834839L2.43225,0.834839ZM86.9321,0.834839L86.6274,3.9859L87.2524,3.9859C87.3645,3.7619,87.5415,3.58746,87.7655,3.47546C87.9817,3.35565,88.2212,3.2984,88.4921,3.2984C88.9087,3.2984,89.2368,3.41815,89.4686,3.67596C89.7083,3.9234,89.8358,4.27496,89.8358,4.73065C89.8358,5.13171,89.7004,5.45984,89.4452,5.71503C89.1796,5.97028,88.8514,6.09784,88.453,6.09784C88.1014,6.09784,87.8046,6.0119,87.5806,5.84265C87.3254,5.64996,87.1796,5.37128,87.1483,5.0119L86.4999,5.0119C86.5415,5.53015,86.7551,5.94684,87.1561,6.25153C87.5077,6.52234,87.9399,6.66034,88.4452,6.66034C89.0051,6.66034,89.4843,6.48328,89.8696,6.13953C90.2759,5.76971,90.4843,5.2984,90.4843,4.72284C90.4843,4.10565,90.3098,3.62653,89.9739,3.27496C89.6379,2.93121,89.1978,2.7619,88.6536,2.7619C88.3879,2.7619,88.1483,2.80359,87.9243,2.89996C87.677,2.99371,87.4686,3.13953,87.3071,3.32965L87.2759,3.32965L87.4686,1.41815L90.2524,1.41815L90.2524,0.834839L86.9321,0.834839ZM0.536499,36.6187C0.911499,36.0197,1.42444,35.7228,2.07288,35.7228C3.12756,35.7228,3.73694,36.2255,3.89587,37.2515L3.25,37.2515C3.11975,36.5953,2.72913,36.275,2.06506,36.275C1.61719,36.275,1.26562,36.4911,1.00781,36.939C0.752563,37.3557,0.632812,37.8895,0.632812,38.538C0.632812,38.5718,0.632812,38.6422,0.640625,38.7463L0.671875,38.7463C0.817749,38.452,1.01562,38.2177,1.28906,38.0588C1.54431,37.8895,1.84119,37.8114,2.17712,37.8114C2.72131,37.8114,3.1615,37.9859,3.49744,38.34C3.82556,38.6916,3.99219,39.1395,3.99219,39.6994C3.99219,40.2593,3.80994,40.7307,3.44788,41.0978C3.08069,41.4677,2.625,41.6603,2.06506,41.6603C1.36975,41.6603,0.848999,41.3947,0.497437,40.8843C0.161499,40.3947,0,39.715,0,38.8427C0,37.9312,0.177124,37.1864,0.536499,36.6187ZM90.1145,36.6265C90.4583,36.0197,90.9712,35.7228,91.6587,35.7228C92.3384,35.7228,92.8514,36.0197,93.203,36.6265C93.5077,37.1395,93.6587,37.827,93.6587,38.6916C93.6587,39.5562,93.5077,40.2437,93.203,40.7541C92.8514,41.3557,92.3384,41.6603,91.6587,41.6603C90.9712,41.6603,90.4583,41.3557,90.1145,40.7541C89.8098,40.2437,89.6587,39.5562,89.6587,38.6916C89.6587,37.827,89.8098,37.1395,90.1145,36.6265ZM87.2446,36.4182C87.5155,36.2437,87.7395,36.051,87.9321,35.8348L88.4452,35.8348L88.4452,41.5458L87.7889,41.5458L87.7889,36.6343C87.4296,37.0015,86.9817,37.2593,86.4452,37.4182L86.4452,36.7619C86.7004,36.6916,86.9712,36.5797,87.2446,36.4182ZM92.7629,37.1057C92.5389,36.5536,92.1718,36.2828,91.6587,36.2828C91.1483,36.2828,90.7786,36.5536,90.5546,37.1057C90.3958,37.4911,90.3149,38.0197,90.3149,38.6916C90.3149,39.3557,90.3958,39.8817,90.5546,40.275C90.7786,40.8192,91.1483,41.0978,91.6587,41.0978C92.1718,41.0978,92.5389,40.8192,92.7629,40.275C92.9243,39.8817,93.0103,39.3557,93.0103,38.6916C93.0103,38.0197,92.9243,37.4911,92.7629,37.1057ZM2.99219,38.7307C2.75256,38.4755,2.44006,38.3557,2.04944,38.3557C1.67188,38.3557,1.35938,38.4833,1.11194,38.7385C0.864624,38.9937,0.744751,39.314,0.744751,39.715C0.744751,40.1161,0.856812,40.4442,1.09631,40.6994C1.33594,40.9703,1.64844,41.1083,2.04944,41.1083C2.43225,41.1083,2.74475,40.9703,2.98438,40.715C3.224,40.4442,3.34375,40.1057,3.34375,39.6994C3.34375,39.2906,3.224,38.9703,2.99219,38.7307Z" fill-rule="evenodd" fill="#999999" fill-opacity="1"/></g></svg>