<svg xmlns="http://www.w3.org/2000/svg" xmlns:xlink="http://www.w3.org/1999/xlink" fill="" version="1.1" width="177" height="177" viewBox="0 0 177 177"><g><path d="M159.235,111.574C163.804,111.574,167.534,115.392,167.534,120.119L167.674,158.862C167.698,163.589,163.991,167.454,159.398,167.477L101.416,167.71L101.393,167.71C96.823,167.71,93.0928,163.891,93.0928,159.165L92.9529,120.421C92.9296,115.695,96.6365,111.83,101.229,111.807L159.211,111.574L159.235,111.574ZM159.235,102.26L159.165,102.26L101.159,102.493C91.4375,102.54,83.5574,110.596,83.604,120.445L83.7439,159.188C83.7905,169.014,91.6939,177,101.369,177L101.439,177L159.444,176.767C169.166,176.721,177.046,168.665,177,158.816L176.86,120.072C176.837,110.247,168.91,102.26,159.235,102.26ZM130.092,140.562C129.323,140.562,128.53,140.375,127.831,139.979L90.6681,119.374C88.4066,118.116,87.614,115.299,88.8496,113.041C90.1086,110.782,92.9295,109.991,95.191,111.225L130.092,130.596L165.459,111.225C167.721,109.991,170.542,110.805,171.801,113.064C173.036,115.322,172.22,118.14,169.959,119.397L132.354,140.003C131.631,140.375,130.861,140.562,130.092,140.562ZM76.5631,172.087C76.5631,169.503,74.4649,167.407,71.877,167.407L17.0892,167.407C12.5429,167.407,9.23234,162.681,9.23234,159.491L9.23234,19.2553C9.23234,13.3181,12.6595,9.35991,18.6046,9.35991L94.0253,9.35991L94.0253,45.7984C94.0253,50.8508,98.1286,54.972,103.211,54.972L134.592,54.972L134.592,87.3358C134.592,89.9203,136.69,92.0158,139.278,92.0158C141.866,92.0158,143.964,89.9203,143.964,87.3358L143.964,45.7518L104.353,0L16.5063,0C7.36722,0.0465666,0,7.47396,0,16.601L0,160.189C0,169.316,7.39053,176.744,16.5296,176.79L71.877,176.79C74.4649,176.767,76.5631,174.672,76.5631,172.087ZM103.467,13.3181L132.26,45.7518L103.467,45.7518L103.467,13.3181ZM74.698,37.2999L28.07,37.2999C25.5055,37.2999,23.4072,35.2044,23.4072,32.6432C23.4072,30.0821,25.5055,27.9866,28.07,27.9866L74.698,27.9866C77.2626,27.9866,79.3608,30.0821,79.3608,32.6432C79.3608,35.2044,77.2626,37.2999,74.698,37.2999ZM74.698,68.3599L28.07,68.3599C25.5055,68.3599,23.4072,66.2644,23.4072,63.7032C23.4072,61.1421,25.5055,59.0466,28.07,59.0466L74.698,59.0466C77.2626,59.0466,79.3608,61.1421,79.3608,63.7032C79.3608,66.2644,77.2626,68.3599,74.698,68.3599ZM121.326,99.3966L28.07,99.3966C25.5055,99.3966,23.4072,97.3011,23.4072,94.7399C23.4072,92.1788,25.5055,90.0833,28.07,90.0833L121.326,90.0833C123.891,90.0833,125.989,92.1788,125.989,94.7399C125.989,97.3011,123.891,99.3966,121.326,99.3966ZM71.9703,130.457L28.07,130.457C25.5055,130.457,23.4072,128.361,23.4072,125.8C23.4072,123.239,25.5055,121.143,28.07,121.143L71.9703,121.143C74.5348,121.143,76.6331,123.239,76.6331,125.8C76.6331,128.361,74.5581,130.457,71.9703,130.457Z" fill="" fill-opacity="1"/></g></svg>