<svg xmlns="http://www.w3.org/2000/svg" xmlns:xlink="http://www.w3.org/1999/xlink" fill="none" version="1.1" width="12" height="10.477582931518555" viewBox="0 0 12 10.477582931518555"><g><path d="M10.9065,0L2.61822,0C2.01348,0,1.52359,0.489891,1.52359,1.09464L1.52359,1.47671L1.09464,1.47671C0.489891,1.47671,0,1.9666,0,2.57134L0,9.38177C0,9.98769,0.489891,10.4776,1.09464,10.4776L9.38177,10.4776C9.98652,10.4776,10.4764,9.98769,10.4764,9.38295L10.4764,9.00088L10.9054,9.00088C11.5101,9.00088,12,8.51099,12,7.90624L12,1.09464C12.0012,0.489891,11.5113,0,10.9065,0ZM9.72751,9.38295C9.72751,9.57281,9.57281,9.72751,9.38295,9.72751L8.73952,9.72751C8.56724,8.45239,7.67067,7.40814,6.47876,7.02022C7.23703,6.57603,7.74568,5.75212,7.74568,4.80984C7.74568,3.39642,6.59947,2.25022,5.18605,2.25022C3.77263,2.25022,2.62643,3.39642,2.62643,4.80984C2.62643,5.75212,3.13624,6.57486,3.89335,7.02022C2.70144,7.40814,1.80486,8.45239,1.63258,9.72751L1.09464,9.72751C0.904776,9.72751,0.750073,9.57281,0.750073,9.38295L0.750073,2.57134C0.750073,2.38148,0.904776,2.22678,1.09464,2.22678L1.52359,2.22678L9.38295,2.22678C9.54351,2.22678,9.67829,2.33695,9.71696,2.48579C9.72399,2.51274,9.72751,2.54204,9.72751,2.57134L9.72751,9.00088L9.72751,9.38295ZM5.18605,6.62057C4.70319,6.62057,4.24846,6.43188,3.90624,6.09083C3.56402,5.74861,3.3765,5.29505,3.3765,4.81102C3.3765,4.32816,3.56519,3.87342,3.90624,3.5312C4.24846,3.18898,4.70202,3.00146,5.18605,3.00146C5.66891,3.00146,6.12364,3.19015,6.46586,3.5312C6.80809,3.87342,6.9956,4.32698,6.9956,4.81102C6.9956,5.29388,6.80691,5.74861,6.46586,6.09083C6.12364,6.43188,5.66891,6.62057,5.18605,6.62057ZM5.45209,7.60855C6.13771,7.60855,6.7823,7.87577,7.2675,8.36097C7.64137,8.73484,7.88514,9.20363,7.97773,9.71227L2.39437,9.71227C2.48696,9.20363,2.73073,8.73484,3.1046,8.36097C3.5898,7.87577,4.2344,7.60855,4.92001,7.60855L5.45209,7.60855ZM11.2511,7.90624C11.2511,8.0961,11.0964,8.2508,10.9065,8.2508L10.4776,8.2508L10.4776,2.57134C10.4776,1.9666,9.98769,1.47671,9.38295,1.47671L2.27366,1.47671L2.27366,1.09464C2.27366,0.904776,2.42836,0.750073,2.61822,0.750073L10.9054,0.750073C11.0952,0.750073,11.2499,0.904776,11.2499,1.09464L11.2499,7.90624L11.2511,7.90624Z" fill="#FFFFFF" fill-opacity="1"/></g></svg>