<svg xmlns="http://www.w3.org/2000/svg" xmlns:xlink="http://www.w3.org/1999/xlink" fill="" version="1.1" width="25.99993896484375" height="26" viewBox="0 0 25.99993896484375 26"><g><path d="M9.51395,16.4703C9.66948,16.626,9.88739,16.7143,10.1069,16.7143C10.2138,16.7143,10.7947,16.6705,11.834,16.5838L13.9904,16.4047C15.0864,16.313,16.5558,15.6313,17.3343,14.8524L25.2721,6.91095C26.2426,5.93982,26.2426,4.36078,25.2721,3.38971L22.5876,0.701782C21.6495,-0.235291,20.0042,-0.232849,19.0686,0.702576L11.1316,8.64563C10.3532,9.42462,9.67189,10.895,9.58116,11.9917L9.40054,14.1495C9.2652,15.7872,9.23858,16.1093,9.37945,16.3189C9.41394,16.3703,9.45849,16.4148,9.51395,16.4703ZM19.7941,26L2.49161,26C1.11765,26,0,24.8994,0,23.5464L0,2.45361C0,1.10059,1.11768,0,2.49161,0L14.2067,0C14.6658,0,15.0372,0.365784,15.0372,0.817871C15.0372,1.2699,14.6657,1.63574,14.2067,1.63574L2.49161,1.63574C2.03334,1.63574,1.66106,2.00232,1.66106,2.45361L1.66106,23.5464C1.66106,23.9977,2.03334,24.3643,2.49161,24.3643L19.7941,24.3643C20.2524,24.3643,20.6247,23.9977,20.6247,23.5464L20.6247,17.0354C20.6247,16.5834,20.9962,16.2176,21.4552,16.2176C21.9143,16.2176,22.2857,16.5834,22.2857,17.0354L22.2857,23.5464C22.2857,24.8994,21.1681,26,19.7941,26ZM20.2416,1.87634C20.3971,1.7215,20.6053,1.63556,20.8281,1.63556C21.0508,1.63556,21.2591,1.7215,21.4129,1.87469L24.0991,4.56342C24.4224,4.88684,24.4224,5.41376,24.0991,5.73712L16.1613,13.6786C15.6502,14.1893,14.572,14.6902,13.8526,14.7502L11.6963,14.9293C11.4468,14.9504,11.2094,14.9698,10.9972,14.9869C11.0142,14.7745,11.0336,14.537,11.0539,14.2874L11.2345,12.1296C11.2936,11.4097,11.7943,10.3309,12.3046,9.81934L20.2416,1.87634ZM17.7942,22.2857L4.49165,22.2857C4.06201,22.2857,3.71436,21.8704,3.71436,21.3572C3.71436,20.8439,4.06201,20.4286,4.49165,20.4286L17.7942,20.4286C18.2239,20.4286,18.5715,20.8439,18.5715,21.3572C18.5715,21.8704,18.2239,22.2857,17.7942,22.2857Z" fill-rule="evenodd" fill="" fill-opacity="1"/></g></svg>