<svg xmlns="http://www.w3.org/2000/svg" xmlns:xlink="http://www.w3.org/1999/xlink" fill="" version="1.1" width="194.08135986328125" height="138.12890625" viewBox="0 0 194.08135986328125 138.12890625"><g><g><path d="M86.2737,103.4796296875C86.2737,100.1436296875,83.1684,97.4563296875,79.3423,97.4563296875L23.1049,97.4563296875C19.2787,97.4563296875,16.1734,100.1436296875,16.1734,103.4796296875C16.1734,106.8064296875,19.2787,109.5030296875,23.1049,109.5030296875L79.3423,109.5030296875C83.1684,109.5030296875,86.2737,106.8064296875,86.2737,103.4796296875ZM50.8308,74.9012596875C50.8308,71.5652596875,47.7255,68.8779296875,43.8993,68.8779296875L6.93147,68.8779296875C3.1053,68.8779296875,0,71.5652596875,0,74.9012596875C0,78.2279996875,3.1053,80.9246296875,6.93147,80.9246296875L43.8993,80.9246296875C47.7255,80.9246296875,50.8308,78.2279996875,50.8308,74.9012596875Z" fill="" fill-opacity="1"/></g><g><path d="M115.79271318359375,72.8453L39.74061318359375,36.9555L39.74061318359375,15.2807C39.74061318359375,13.4895,41.18881318359375,12.0374,42.97521318359375,12.0374L178.83201318359374,12.0374C180.61901318359375,12.0374,182.06701318359376,13.4895,182.06701318359376,15.2807L182.06701318359376,122.839C182.06701318359376,124.63,180.61901318359375,126.082,178.83201318359374,126.082L47.47611318359375,126.082C44.15511318359375,126.078,41.46051318359375,128.776,41.46051318359375,132.106C41.46051318359375,135.435,44.15511318359375,138.134,47.47611318359375,138.129L178.83201318359374,138.129C187.25401318359374,138.129,194.08101318359374,131.283,194.08101318359374,122.839L194.08101318359374,15.29C194.08101318359374,6.84556,187.25401318359374,-7.28178e-8,178.83201318359374,0L42.97521318359375,0C34.55333318359375,-0.00000108418,27.72601111785375,6.84556,27.72601318359375,15.29L27.72601318359375,37.8265C27.72601318359375,41.9039,30.03650318359375,45.6105,33.67783318359375,47.399L116.53201318359375,86.6341L164.02601318359376,55.9058C166.83101318359374,54.1288,167.66901318359376,50.4093,165.89901318359375,47.5958C164.12901318359374,44.7824,160.42001318359374,43.9394,157.61301318359375,45.7125L115.79271318359375,72.8545L115.79271318359375,72.8453Z" fill="" fill-opacity="1"/></g></g></svg>