<?xml version="1.0" standalone="no"?><!DOCTYPE svg PUBLIC "-//W3C//DTD SVG 1.1//EN" "http://www.w3.org/Graphics/SVG/1.1/DTD/svg11.dtd"><svg t="1683710414187" class="icon" viewBox="0 0 1092 1024" version="1.1" xmlns="http://www.w3.org/2000/svg" p-id="2427" xmlns:xlink="http://www.w3.org/1999/xlink" width="136.5" height="128"><path d="M553.710009 750.933005h402.091992a45.374999 45.374999 0 0 0 45.441999-45.350999V136.374017a45.510999 45.510999 0 0 0-45.441999-45.351999H136.465017a45.374999 45.374999 0 0 0-45.442999 45.351999v569.207989a45.510999 45.510999 0 0 0 45.442999 45.350999h159.356997v136.533998l257.888995-136.533998z m22.301 91.022999L284.400014 1002.837c-43.963999 24.258-79.598998 3.209-79.598998-47.012999V841.956004h-68.129999A136.692997 136.692997 0 0 1 0.00002 705.286006V136.670017A136.601997 136.601997 0 0 1 136.670017 0.00002h818.926984a136.692997 136.692997 0 0 1 136.669998 136.669997v568.615989a136.601997 136.601997 0 0 1-136.669998 136.669998H576.010009zM295.822014 500.62201a68.266999 68.266999 0 1 1 0-136.532997 68.266999 68.266999 0 0 1 0 136.532997z m250.310995 0a68.266999 68.266999 0 1 1 0-136.532997 68.266999 68.266999 0 0 1 0 136.532997z m250.310995 0a68.266999 68.266999 0 1 1 0-136.532997 68.266999 68.266999 0 0 1 0 136.532997z" p-id="2428"></path></svg>