<svg xmlns="http://www.w3.org/2000/svg" xmlns:xlink="http://www.w3.org/1999/xlink" fill="none" version="1.1" width="27" height="27" viewBox="0 0 27 27"><g><g><path d="M25.0444,13.4846C25.0444,7.128,19.8431,1.92472,13.4846,1.92472C7.12607,1.92472,1.92471,7.128,1.92471,13.4846C1.92471,19.8431,7.12607,25.0464,13.4846,25.0464C19.8431,25.0464,25.0444,19.8431,25.0444,13.4846ZM13.5,0C20.925,0,27,6.075,27,13.5C27,20.925,20.925,27,13.5,27C6.075,27,0,20.925,0,13.5C0,6.075,6.075,5.41019e-7,13.5,0Z" fill="#FFFFFF" fill-opacity="1"/></g><g><path d="M11.19036,12.05881L13.47036,10.157001C13.57751,10.067609,13.72451,10.0500302,13.8484,10.111793C13.97226,10.173515,14.05107,10.303665,14.05107,10.446503L14.05107,17.526690000000002C14.05101,17.66928,13.97236,17.79923,13.84871,17.86102C13.725069999999999,17.92282,13.57828,17.905540000000002,13.471070000000001,17.81657L11.12821,15.873190000000001L9.357143,15.873190000000001C9.159898,15.873190000000001,9,15.70702,9,15.502030000000001L9,12.42997C8.9999999574253,12.22498,9.159898,12.05881,9.357143,12.05881L11.19036,12.05881ZM15.77214,16.27552C15.63086,16.41548,15.40762,16.41164,15.27088,16.26689C15.13414,16.12214,15.134540000000001,15.89011,15.27179,15.74588C15.731819999999999,15.27786,15.990649999999999,14.63671,15.98964,13.96767C15.99073,13.34801,15.76867,12.75036,15.36714,12.29227C15.2316,12.14096,15.24114,11.90373,15.388349999999999,11.76469C15.53556,11.62566,15.76371,11.63842,15.895710000000001,11.79306C16.41673,12.38777,16.705,13.1634,16.70393,13.96767C16.704900000000002,14.835930000000001,16.36899,15.66794,15.77214,16.27552ZM17.47,17.88486C17.33298,18.03433,17.10492,18.03888,16.96248,17.89498C16.82004,17.75108,16.81796,17.51404,16.95786,17.36747C17.81093,16.45805,18.28756,15.23771,18.285719999999998,13.96767C18.285719999999998,12.70685,17.82393,11.52212,17.00857,10.622803C16.87581,10.473223,16.8837,10.240443,17.02626,10.100941C17.16882,9.961439500000001,17.392879999999998,9.9672404,17.528570000000002,10.113946C18.46786,11.14947,19,12.51533,19,13.96767C19,15.45044,18.44464,16.84302,17.47,17.88486Z" fill="#FFFFFF" fill-opacity="1"/></g></g></svg>