<svg xmlns="http://www.w3.org/2000/svg" xmlns:xlink="http://www.w3.org/1999/xlink"  version="1.1" width="15.58251953125" height="15.58251953125" viewBox="0 0 15.58251953125 15.58251953125"><g><g><path d="M7.791,14.5825C4.0465,14.5825,0.9995,11.536,0.9995,7.7915C0.9995,4.0465,4.0465,1.0005,7.791,1.0005C11.536,1.0005,14.5825,4.0465,14.5825,7.7915C14.5825,11.5365,11.5355,14.5825,7.791,14.5825ZM7.791,0C3.495,2.38419e-7,0,3.496,0,7.7915C0,12.0875,3.495,15.5825,7.791,15.5825C12.087,15.5825,15.5825,12.0875,15.5825,7.7915C15.5825,3.496,12.0875,0.000500202,7.791,0.000500202" fill="" /></g><g><path d="M6.291015625,4.79150390625C6.014872625,4.79150390625,5.791015625,5.01536090625,5.791015625,5.29150390625L5.791015625,10.29150390625C5.791015625,10.56764390625,6.014872625,10.79150390625,6.291015625,10.79150390625C6.567158625,10.79150390625,6.791015625,10.56764390625,6.791015625,10.29150390625L6.791015625,5.29150390625C6.791015625,5.01536090625,6.567158625,4.79150390625,6.291015625,4.79150390625ZM9.291015625,4.79150390625C9.014875625,4.79150390625,8.791015625,5.01536090625,8.791015625,5.29150390625L8.791015625,10.29150390625C8.791015625,10.56764390625,9.014875625,10.79150390625,9.291015625,10.79150390625C9.567155625,10.79150390625,9.791015625,10.56764390625,9.791015625,10.29150390625L9.791015625,5.29150390625C9.791015625,5.01536090625,9.567155625,4.79150390625,9.291015625,4.79150390625Z" fill=""/></g></g></svg>