<svg xmlns="http://www.w3.org/2000/svg" xmlns:xlink="http://www.w3.org/1999/xlink" fill="none" version="1.1" width="27" height="27" viewBox="0 0 27 27"><g><path d="M9.63129,17.3379L17.3379,17.3379L17.3379,9.63129L9.63129,9.63129L9.63129,17.3379ZM25.0444,13.4846C25.0444,7.128,19.8431,1.92472,13.4846,1.92472C7.12607,1.92472,1.92471,7.128,1.92471,13.4846C1.92471,19.8431,7.12607,25.0464,13.4846,25.0464C19.8431,25.0464,25.0444,19.8431,25.0444,13.4846ZM13.5,0C20.925,0,27,6.075,27,13.5C27,20.925,20.925,27,13.5,27C6.075,27,0,20.925,0,13.5C0,6.075,6.075,5.41019e-7,13.5,0Z" fill="#FFFFFF" fill-opacity="1"/></g></svg>