<svg xmlns="http://www.w3.org/2000/svg" xmlns:xlink="http://www.w3.org/1999/xlink" fill="" version="1.1" width="21" height="20.511085510253906" viewBox="0 0 21 20.511085510253906"><g><path d="M17.8089,0L3.19111,0C1.44126,0,0,1.45765,0,3.22769L0,17.2834C0,19.0534,1.44124,20.5111,3.19108,20.5111L17.8089,20.5111C19.559,20.5111,21,19.0534,21,17.2834L21,3.22769C21,1.45767,19.662,-6.98555e-7,17.8089,0L17.8089,0ZM19.456,17.3876C19.456,18.3245,18.7356,19.0534,17.809,19.0534L3.19113,19.0534C2.26469,19.0534,1.54409,18.3246,1.54409,17.3876L1.54409,3.22764C1.54409,2.29072,2.26469,1.56187,3.19113,1.56187L17.809,1.56187C18.7356,1.56187,19.456,2.2907,19.456,3.22764L19.456,17.3876ZM7.72065,5.10173L5.45598,7.39225L4.42654,6.35127C4.11752,6.03888,3.60293,6.03888,3.3971,6.35127C3.08808,6.66344,3.08808,7.18415,3.3971,7.39225L5.04414,9.05822C5.14715,9.16228,5.35298,9.26634,5.66174,9.26634C5.97076,9.26634,5.97076,9.16228,6.27935,9.05822L9.05882,6.247C9.36784,5.93462,9.36784,5.41412,9.05882,5.20579C8.44122,4.89362,8.02937,4.89362,7.72058,5.10173L7.72065,5.10173ZM17.1913,6.35127L10.0883,6.35127C9.57371,6.35127,9.3677,6.66344,9.3677,7.08009C9.3677,7.60059,9.67672,7.80892,10.0883,7.80892L17.1915,7.80892C17.7061,7.80892,17.9119,7.49653,17.9119,7.08009C17.9119,6.66344,17.6029,6.35127,17.1913,6.35127ZM5.86757,11.0364C4.52934,11.0364,3.4999,12.0776,3.4999,13.4311C3.4999,14.7845,4.52934,15.8257,5.86757,15.8257C7.20603,15.8257,8.23525,14.7845,8.23525,13.4311C8.23525,11.9735,7.10303,11.0364,5.86757,11.0364ZM5.86757,14.1599C5.35298,14.1599,5.04414,13.8476,5.04414,13.327C5.04414,12.8064,5.35298,12.494,5.86757,12.494C6.38242,12.494,6.69119,12.8063,6.69119,13.327C6.69119,13.8476,6.27935,14.1599,5.86757,14.1599ZM17.1913,12.598L10.0883,12.598C9.57371,12.598,9.3677,12.9104,9.3677,13.327C9.3677,13.7433,9.67672,14.0559,10.0883,14.0559L17.1915,14.0559C17.7061,14.0559,17.9119,13.7435,17.9119,13.327C17.9119,12.9104,17.6029,12.5982,17.1913,12.5982L17.1913,12.598Z" fill="" fill-opacity="1"/></g></svg>