<svg xmlns="http://www.w3.org/2000/svg" xmlns:xlink="http://www.w3.org/1999/xlink" fill="" version="1.1" width="50" height="40" viewBox="0 0 40 40"><g><path d="M20,40C31.0458,40,40,31.0458,40,20C40,8.95418,31.0458,0,20,0C8.95418,0,0,8.95418,0,20C0,31.0458,8.95418,40,20,40ZM20,36.8539C10.6922,36.8539,3.14607,29.3078,3.14607,20C3.14607,10.6922,10.6922,3.14607,20,3.14607C29.3078,3.14607,36.8539,10.6922,36.8539,20C36.8539,29.3078,29.3078,36.8539,20,36.8539ZM21.4175,15.316C21.4174,13.4345,22.9423,11.9092,24.8234,11.9092C26.7043,11.909,28.2292,13.4339,28.2292,15.315C28.2294,17.196,26.7045,18.7209,24.8234,18.7209C24.0787,18.7209,23.4751,19.3246,23.4751,20.0692C23.4751,20.8139,24.0787,21.4175,24.8234,21.4175C28.1933,21.4175,30.9254,18.6854,30.9254,15.3155C30.9254,11.9456,28.1933,9.21348,24.8234,9.21348C21.4535,9.21348,18.7209,11.9456,18.7209,15.3155C18.7209,16.0601,19.3246,16.6638,20.0692,16.6638C20.8139,16.6638,21.4175,16.0601,21.4175,15.3155L21.4175,15.316ZM18.7209,24.6742C18.7209,26.5549,17.1963,28.0796,15.3155,28.0796C13.4348,28.0796,11.9101,26.5549,11.9101,24.6742C11.9098,22.7932,13.4346,21.2683,15.3155,21.2683C16.0601,21.2683,16.6638,20.6646,16.6638,19.92C16.6638,19.1753,16.0601,18.5717,15.3155,18.5717C11.9461,18.5717,9.21348,21.3034,9.21348,24.6742C9.21348,28.0441,11.9456,30.7762,15.3155,30.7762C18.6858,30.7762,21.4175,28.0441,21.4175,24.6742C21.4175,23.9295,20.8139,23.3258,20.0692,23.3258C19.3246,23.3258,18.7209,23.9295,18.7209,24.6742ZM18.7209,15.1789L18.7209,24.7371L21.4175,24.7371L21.4175,15.1789L18.7209,15.1789Z" fill="" fill-opacity="1"/></g></svg>