<svg xmlns="http://www.w3.org/2000/svg" xmlns:xlink="http://www.w3.org/1999/xlink" fill="" version="1.1" width="21" height="21" viewBox="0 0 21 21"><g><path d="M16.8178,21C16.019,21,15.2647,20.6892,14.6434,20.1121L9.27417,14.7844L10.8716,13.186L11.1379,13.4524L11.7591,12.8309L12.7353,13.8076L11.7591,14.7844L15.8415,18.8689C16.3296,19.3573,17.1727,19.3573,17.7052,18.8689L18.8146,17.759C19.3471,17.2262,19.3471,16.4271,18.8146,15.8943L14.7322,11.8097L13.7559,12.7865L12.7797,11.8097L13.401,11.1882L13.1791,10.8774L14.7765,9.27907L20.1014,14.6512C21.2995,15.8499,21.2995,17.8034,20.1014,19.0021L18.9921,20.1121C18.3708,20.7336,17.6165,21,16.8178,21ZM6.70048,10.2114L4.92552,8.47992L2.57369,7.23679L0,3.95137L3.94929,0L7.23296,2.57505L8.47544,4.97252L10.3391,6.79281L9.09667,8.08034L6.38986,5.37209L6.61173,5.1945L5.85737,3.72939L4.08241,2.39746L2.3962,4.08457L3.72742,5.86047L5.19176,6.61522L5.36926,6.39324L7.94295,8.96829L6.70048,10.2114ZM3.5943,21C2.97306,21,2.3962,20.778,1.90808,20.2896L0.798732,19.1797C-0.133122,18.2474,-0.133122,16.7378,0.798732,15.8055L10.206,6.39324C9.93978,4.66173,10.4723,2.93023,11.7147,1.6871C13.401,0,15.9303,-0.399577,18.0602,0.710359L19.1252,1.28753L16.019,4.39535L16.6846,5.06131L19.7908,1.95349L20.3677,3.01903C21.477,5.15011,21.0777,7.68076,19.3914,9.36787C18.149,10.611,16.374,11.1438,14.6878,10.8774L5.28051,20.334C4.83677,20.778,4.21553,21,3.5943,21ZM15.5753,1.90909C14.6434,1.90909,13.7116,2.26427,13.0016,2.97463C12.0697,3.90698,11.7147,5.2389,12.0697,6.48203L12.2029,6.9704L2.08558,17.093C1.86371,17.315,1.86371,17.7146,2.08558,17.9366L3.19493,19.0465C3.4168,19.2685,3.81617,19.2685,4.03804,19.0465L14.1553,8.92389L14.6434,9.05708C15.8859,9.41226,17.2615,9.01268,18.149,8.12474C18.9477,7.32558,19.3471,6.17125,19.2139,5.10571L16.729,7.59197L13.5341,4.43975L16.019,1.95349C15.8859,1.90909,15.7084,1.90909,15.5753,1.90909Z" fill="" fill-opacity="1"/></g></svg>