<svg xmlns="http://www.w3.org/2000/svg" xmlns:xlink="http://www.w3.org/1999/xlink"  version="1.1" width="21" height="17.1488037109375" viewBox="0 0 21 17.1488037109375"><g><g><path d="M5.287748066711426,15.433913230895996C5.840198066711426,15.433913854156996,6.288048066711426,15.625858230895997,6.288048066711426,15.862633230895996L6.288048066711426,16.920213230895996C6.287918066711425,17.046473230895995,6.049068066711426,17.148793230895997,5.7544780667114255,17.148793230895997L4.820775066711426,17.148793230895997C4.526128066711426,17.148853230895995,4.287198066711426,17.046493230895997,4.287198066711426,16.920213230895996L4.287198066711426,15.862633230895996C4.287333308711426,15.625841230895997,4.735254066711426,15.433913854156996,5.287748066711426,15.433913230895996ZM15.290998066711426,15.433913230895996C15.843498066711426,15.433913854156996,16.291398066711427,15.625858230895997,16.291398066711427,15.862633230895996L16.291398066711427,16.920213230895996C16.291198066711424,17.046473230895995,16.052398066711426,17.148793230895997,15.757798066711425,17.148793230895997L14.824098066711425,17.148793230895997C14.529398066711426,17.148853230895995,14.290498066711425,17.046493230895997,14.290498066711425,16.920213230895996L14.290498066711425,15.862633230895996C14.290598066711425,15.625841230895997,14.738598066711425,15.433913854156996,15.290998066711426,15.433913230895996Z" /></g><g><path d="M1.0500773816070557,4.049811157379151C1.0499263816070556,3.38719115737915,1.5872913816070557,2.8499471573791504,2.250221381607056,2.8499471573791504L2.250221381607056,2.2501511573791504C1.2561403816070555,2.2501519750971504,0.45028138160705566,3.0560111573791504,0.45028138160705566,4.050091157379151L1.0500773816070557,4.050091157379151L1.0500773816070557,4.049811157379151ZM19.949981381607056,4.049811157379151C19.950081381607056,3.38719115737915,19.412781381607054,2.8499471573791504,18.749781381607054,2.8499471573791504L18.749781381607054,2.2501511573791504C19.743881381607057,2.2501519750971504,20.549781381607055,3.0560111573791504,20.549781381607055,4.050091157379151L19.949981381607056,4.050091157379151L19.949981381607056,4.049811157379151Z" /></g><g><path d="M0.449984,2.9999921321868896L1.05005,2.9999921321868896C1.29864,2.9999921321868896,1.50004,3.2013881321868896,1.50004,3.4499771321868895L1.50004,5.54981213218689C1.50004,5.798332132186889,1.29857,5.99979213218689,1.05005,5.99979213218689L0.449984,5.99979213218689C0.201465,5.99979213218689,0,5.798332132186889,0,5.54981213218689L0,3.4499771321868895C0,3.2013881321868896,0.201395,2.9999921321868896,0.449984,2.9999921321868896ZM19.9499,2.9999921321868896L20.55,2.9999921321868896C20.7985,2.9999921321868896,21,3.2014571321868894,21,3.4499771321868895L21,5.54981213218689C21.0006,5.79858213218689,20.7988,6.00040213218689,20.55,5.99979213218689L19.9499,5.99979213218689C19.7014,5.99979213218689,19.5,5.798332132186889,19.5,5.54981213218689L19.5,3.4499771321868895C19.5,3.3306211321868897,19.5474,3.2162041321868897,19.6317,3.1316951321868896C19.7162,3.0474606321868896,19.8306,2.9999929499048896,19.9499,2.9999921321868896Z" /></g><g><path d="M16.94984158744812,0L4.04988158744812,0C3.05590858744812,0,2.25009327444812,0.805938,2.24994158744812,1.80021L2.24994158744812,14.6999C2.24994158744812,15.694,3.05580158744812,16.4999,4.04988158744812,16.4999L16.94984158744812,16.4999C17.943941587448123,16.4999,18.74984158744812,15.694,18.74984158744812,14.6999L18.74984158744812,1.79994C18.74984158744812,0.80586,17.943941587448123,0,16.94984158744812,0ZM14.24994158744812,1.57518L6.75003158744812,1.57518C6.34140158744812,1.583,6.01423158744812,1.9165,6.01423158744812,2.3252C6.01423158744812,2.73391,6.34140158744812,3.0674,6.75003158744812,3.07522L14.24994158744812,3.07522C14.66984158744812,3.08326,15.01444158744812,2.74512,15.01444158744812,2.3252C15.01444158744812,1.90528,14.66984158744812,1.56715,14.24994158744812,1.57518ZM16.19994158744812,3.74992L4.80001158744812,3.74992C4.22014158744812,3.75008,3.7501015874481203,4.22011,3.74995158744812,4.79998L3.74995158744812,9.44991C3.74995158744812,10.0298,4.22008158744812,10.5,4.80001158744812,10.5L16.19994158744812,10.5C16.77994158744812,10.5001,17.25014158744812,10.0299,17.25004158744812,9.44991L17.25004158744812,4.79998C17.25004158744812,4.22005,16.77994158744812,3.74992,16.19994158744812,3.74992ZM6.00015158744812,13.5L4.50011158744812,13.5C4.08027158744812,13.492,3.7356015874481203,13.8301,3.7356015874481203,14.2501C3.7356015874481203,14.67,4.08027158744812,15.0081,4.50011158744812,15.0001L6.00015158744812,15.0001C6.40878158744812,14.9923,6.73595158744812,14.6588,6.73595158744812,14.2501C6.73595158744812,13.8414,6.40878158744812,13.5079,6.00015158744812,13.5ZM16.49984158744812,13.5L14.99984158744812,13.5C14.58004158744812,13.492,14.23534158744812,13.8301,14.23534158744812,14.2501C14.23534158744812,14.67,14.58004158744812,15.0081,14.99984158744812,15.0001L16.49984158744812,15.0001C16.919741587448122,15.0081,17.264341587448122,14.67,17.264341587448122,14.2501C17.264341587448122,13.8301,16.919741587448122,13.492,16.49984158744812,13.5Z" fill-rule="evenodd" /></g></g></svg>