<?xml version="1.0" encoding="utf-8"?>
<!-- Generator: Adobe Illustrator 26.0.0, SVG Export Plug-In . SVG Version: 6.00 Build 0)  -->
<svg version="1.1" id="未选中" xmlns="http://www.w3.org/2000/svg" xmlns:xlink="http://www.w3.org/1999/xlink" x="0px" y="0px"
	 viewBox="0 0 16 16" style="enable-background:new 0 0 16 16;" xml:space="preserve">
<style type="text/css">
	.st0{fill:#FFFFFF;}
</style>
<path class="st0" d="M11,0H5C2.2,0,0,2.2,0,5v6c0,2.8,2.2,5,5,5h6c2.8,0,5-2.2,5-5V5C16,2.2,13.8,0,11,0z M12.9,5.6l-6.1,6.3
	l-0.1,0.1C6.5,12,6.2,12,6,11.9L3.1,8.5C3,8.3,3,8,3.1,7.8c0.2-0.1,0.5-0.1,0.8,0l2.5,1.9L12.4,5C12.6,5,12.8,5,12.9,5.1
	c0,0,0,0,0.1,0.1C13,5.3,13,5.5,12.9,5.6z"/>
</svg>
