<svg xmlns="http://www.w3.org/2000/svg" xmlns:xlink="http://www.w3.org/1999/xlink" fill="none" version="1.1" width="14" height="14" viewBox="0 0 14 14"><defs><clipPath id="master_svg0_1_5322"><rect x="0" y="0" width="14" height="14" rx="0"/></clipPath></defs><g clip-path="url(#master_svg0_1_5322)"><g><path d="M11.1667040234375,1.749928458984375L11.1667040234375,6.999935458984375Q11.1667040234375,7.049185458984375,11.1763140234375,7.097485458984375Q11.1859240234375,7.145785458984375,11.2047640234375,7.191275458984375Q11.2236140234375,7.236775458984375,11.2509740234375,7.277725458984375Q11.2783340234375,7.318665458984375,11.3131540234375,7.353495458984375Q11.3479740234375,7.388315458984375,11.3889240234375,7.415675458984375Q11.4298640234375,7.443035458984375,11.4753640234375,7.461875458984375Q11.5208640234375,7.480725458984375,11.5691640234375,7.490325458984375Q11.6174640234375,7.499935458984375,11.6667040234375,7.499935458984375Q11.7159540234375,7.499935458984375,11.7642540234375,7.490325458984375Q11.8125540234375,7.480725458984375,11.8580440234375,7.461875458984375Q11.9035440234375,7.443035458984375,11.9444940234375,7.415675458984375Q11.9854340234375,7.388315458984375,12.0202540234375,7.353495458984375Q12.0550840234375,7.318665458984375,12.0824440234375,7.277725458984375Q12.1097940234375,7.236775458984375,12.1286440234375,7.191275458984375Q12.1474940234375,7.145785458984375,12.1570940234375,7.097485458984375Q12.1667040234375,7.049185458984375,12.1667040234375,6.999935458984375L12.1667040234375,1.749928458984375Q12.1667040234375,1.301198458984375,11.8494140234375,0.983898458984375Q11.5321140234375,0.666595458984375,11.0833740234375,0.666595458984375L2.9167070234375,0.666595458984375Q2.4679760234375,0.666595458984375,2.1506750234375,0.983896458984375Q1.8333740234375,1.301197458984375,1.8333740234375,1.749928458984375L1.8333740234375,12.249895458984374Q1.8333740234375,12.698695458984375,2.1506700234375,13.015995458984374Q2.4679760234375,13.333295458984376,2.9167070234375,13.333295458984376L7.0000440234375,13.333295458984376Q7.0492840234375,13.333295458984376,7.0975840234375,13.323695458984375Q7.1458840234375,13.314095458984376,7.1913840234375,13.295195458984375Q7.2368740234375,13.276395458984375,7.2778240234375,13.248995458984375Q7.3187740234375,13.221595458984375,7.3535940234375,13.186795458984376Q7.3884140234375,13.151995458984375,7.4157740234375,13.111095458984375Q7.4431340234375,13.070095458984374,7.4619840234375,13.024595458984376Q7.4808240234375,12.979095458984375,7.4904340234375,12.930795458984376Q7.5000440234375,12.882495458984375,7.5000440234375,12.833295458984376Q7.5000440234375,12.783995458984375,7.4904340234375,12.735695458984376Q7.4808240234375,12.687395458984374,7.4619840234375,12.641895458984376Q7.4431340234375,12.596395458984375,7.4157740234375,12.555495458984375Q7.3884140234375,12.514495458984374,7.3535940234375,12.479695458984375Q7.3187740234375,12.444895458984375,7.2778240234375,12.417495458984375Q7.2368740234375,12.390195458984374,7.1913840234375,12.371295458984376Q7.1458840234375,12.352495458984375,7.0975840234375,12.342895458984374Q7.0492840234375,12.333295458984376,7.0000440234375,12.333295458984376L2.9167070234375,12.333295458984376Q2.8333740234375,12.333295458984376,2.8333740234375,12.249895458984374L2.8333740234375,1.749928458984375Q2.8333740234375,1.666595458984375,2.9167070234375,1.666595458984375L11.0833740234375,1.666595458984375Q11.1667040234375,1.666595458984375,11.1667040234375,1.749928458984375Z" fill-rule="evenodd" fill="#FFFFFF" fill-opacity="1"/></g><g><path d="M10.8541259765625,12.833265458984375L10.8541259765625,9.041595458984375Q10.8541259765625,8.992349758984375,10.8445189765625,8.944050358984375Q10.834910976562501,8.895750458984375,10.8160659765625,8.850253458984374Q10.7972199765625,8.804756458984375,10.7698609765625,8.763810458984375Q10.7425009765625,8.722864458984375,10.7076789765625,8.688042458984375Q10.6728569765625,8.653220458984375,10.6319109765625,8.625860458984375Q10.5909649765625,8.598501458984375,10.5454679765625,8.579655458984375Q10.4999709765625,8.560810458984374,10.4516710765625,8.551202458984376Q10.4033716765625,8.541595458984375,10.3541259765625,8.541595458984375Q10.3048802765625,8.541595458984375,10.2565808765625,8.551202458984376Q10.2082809765625,8.560810458984374,10.1627839765625,8.579655458984375Q10.1172869765625,8.598501458984375,10.0763409765625,8.625860458984375Q10.0353949765625,8.653220458984375,10.0005729765625,8.688042458984375Q9.9657509765625,8.722864458984375,9.9383909765625,8.763810458984375Q9.9110319765625,8.804756458984375,9.8921859765625,8.850253458984374Q9.873340976562499,8.895750458984375,9.8637329765625,8.944050358984375Q9.8541259765625,8.992349758984375,9.8541259765625,9.041595458984375L9.8541259765625,12.833265458984375Q9.8541259765625,12.882505458984376,9.8637329765625,12.930805458984375Q9.873340976562499,12.979105458984375,9.8921859765625,13.024605458984375Q9.9110319765625,13.070105458984376,9.9383909765625,13.111045458984375Q9.9657509765625,13.151995458984375,10.0005729765625,13.186815458984375Q10.0353949765625,13.221635458984375,10.0763409765625,13.248995458984375Q10.1172869765625,13.276355458984375,10.1627839765625,13.295205458984375Q10.2082809765625,13.314045458984374,10.2565808765625,13.323655458984376Q10.3048802765625,13.333265458984375,10.3541259765625,13.333265458984375Q10.4033716765625,13.333265458984375,10.4516710765625,13.323655458984376Q10.4999709765625,13.314045458984374,10.5454679765625,13.295205458984375Q10.5909649765625,13.276355458984375,10.6319109765625,13.248995458984375Q10.6728569765625,13.221635458984375,10.7076789765625,13.186815458984375Q10.7425009765625,13.151995458984375,10.7698609765625,13.111045458984375Q10.7972199765625,13.070105458984376,10.8160659765625,13.024605458984375Q10.834910976562501,12.979105458984375,10.8445189765625,12.930805458984375Q10.8541259765625,12.882505458984376,10.8541259765625,12.833265458984375Z" fill-rule="evenodd" fill="#FFFFFF" fill-opacity="1"/></g><g><path d="M11.3129159765625,10.41583896484375L11.3130759765625,10.41598896484375Q11.3833959765625,10.48631896484375,11.4752859765625,10.52437896484375Q11.5671659765625,10.56243896484375,11.6666259765625,10.56243896484375Q11.7660859765625,10.56243896484375,11.8579659765625,10.52437896484375Q11.9498559765625,10.48631896484375,12.0201759765625,10.41598896484375Q12.0905059765625,10.34566896484375,12.1285659765625,10.25377896484375Q12.1666259765625,10.16189896484375,12.1666259765625,10.06243896484375Q12.1666259765625,9.96297896484375,12.1285659765625,9.87109896484375Q12.0905059765625,9.77920896484375,12.0201759765625,9.70888596484375L12.0200259765625,9.70872896484375L11.5826759765625,9.27138596484375L10.7076759765625,8.39638596484375Q10.6373559765625,8.32605996484375,10.5454659765625,8.28799896484375Q10.4535859765625,8.24993896484375,10.3541259765625,8.24993896484375Q10.2546659765625,8.24993896484375,10.1627859765625,8.28799896484375Q10.0708959765625,8.32605996484375,10.0005729765625,8.39638596484375L9.1255724765625,9.27138596484375L8.6880729765625,9.70888596484375Q8.6177459765625,9.77920896484375,8.5796859765625,9.87109896484375Q8.5416259765625,9.96297896484375,8.5416259765625,10.06243896484375Q8.5416259765625,10.16189896484375,8.5796859765625,10.25377896484375Q8.6177459765625,10.34566896484375,8.6880729765625,10.41598896484375Q8.7583989765625,10.48631896484375,8.8502839765625,10.52437896484375Q8.9421697765625,10.56243896484375,9.0416259765625,10.56243896484375Q9.1410821765625,10.56243896484375,9.2329679765625,10.52437896484375Q9.3248529765625,10.48631896484375,9.3951789765625,10.41598896484375L9.8326799765625,9.97848896484375L10.3541259765625,9.45704596484375L10.8755759765625,9.97848896484375L11.3129159765625,10.41583896484375Z" fill-rule="evenodd" fill="#FFFFFF" fill-opacity="1"/></g><g><path d="M4.6666259765625,5.166595458984375L9.3332959765625,5.166595458984375Q9.382535976562501,5.166595458984375,9.4308359765625,5.156988458984375Q9.4791359765625,5.147380458984375,9.5246359765625,5.128535458984375Q9.570125976562501,5.109689458984375,9.6110759765625,5.082330458984375Q9.6520259765625,5.054970458984375,9.6868459765625,5.020148458984375Q9.7216659765625,4.985326458984375,9.7490259765625,4.944380458984375Q9.7763859765625,4.903434458984375,9.7952359765625,4.857937458984375Q9.8140759765625,4.812440458984375,9.823685976562501,4.764140558984375Q9.8332959765625,4.715841158984375,9.8332959765625,4.666595458984375Q9.8332959765625,4.617349758984375,9.823685976562501,4.569050358984375Q9.8140759765625,4.520750458984375,9.7952359765625,4.475253458984375Q9.7763859765625,4.429756458984375,9.7490259765625,4.388810458984375Q9.7216659765625,4.347864458984375,9.6868459765625,4.313042458984375Q9.6520259765625,4.278220458984375,9.6110759765625,4.250860458984375Q9.570125976562501,4.223501458984375,9.5246359765625,4.204655458984375Q9.4791359765625,4.185810458984375,9.4308359765625,4.176202458984375Q9.382535976562501,4.166595458984375,9.3332959765625,4.166595458984375L4.6666259765625,4.166595458984375Q4.6173802765625,4.166595458984375,4.5690808765625,4.176202458984375Q4.5207809765625,4.185810458984375,4.4752839765625,4.204655458984375Q4.4297869765625,4.223501458984375,4.3888409765625,4.250860458984375Q4.3478949765625,4.278220458984375,4.3130729765625,4.313042458984375Q4.2782509765625,4.347864458984375,4.2508909765625,4.388810458984375Q4.2235319765625,4.429756458984375,4.2046859765625,4.475253458984375Q4.1858409765625,4.520750458984375,4.1762329765625,4.569050358984375Q4.1666259765625,4.617349758984375,4.1666259765625,4.666595458984375Q4.1666259765625,4.715841158984375,4.1762329765625,4.764140558984375Q4.1858409765625,4.812440458984375,4.2046859765625,4.857937458984375Q4.2235319765625,4.903434458984375,4.2508909765625,4.944380458984375Q4.2782509765625,4.985326458984375,4.3130729765625,5.020148458984375Q4.3478949765625,5.054970458984375,4.3888409765625,5.082330458984375Q4.4297869765625,5.109689458984375,4.4752839765625,5.128535458984375Q4.5207809765625,5.147380458984375,4.5690808765625,5.156988458984375Q4.6173802765625,5.166595458984375,4.6666259765625,5.166595458984375Z" fill-rule="evenodd" fill="#FFFFFF" fill-opacity="1"/></g><g><path d="M4.6666259765625,7.49993896484375L6.9999559765625,7.49993896484375Q7.0492059765625,7.49993896484375,7.0975059765625,7.49033196484375Q7.1458059765624995,7.48072396484375,7.1912959765625,7.46187896484375Q7.2367959765625,7.44303296484375,7.2777459765625,7.41567396484375Q7.3186859765625005,7.38831396484375,7.3535159765625,7.35349196484375Q7.3883359765625,7.31866996484375,7.4156959765625,7.27772396484375Q7.4430559765624995,7.23677796484375,7.4618959765625,7.19128096484375Q7.4807459765625,7.14578396484375,7.490355976562499,7.09748406484375Q7.4999559765625,7.04918466484375,7.4999559765625,6.99993896484375Q7.4999559765625,6.95069326484375,7.490355976562499,6.90239386484375Q7.4807459765625,6.85409396484375,7.4618959765625,6.80859696484375Q7.4430559765624995,6.76309996484375,7.4156959765625,6.72215396484375Q7.3883359765625,6.68120796484375,7.3535159765625,6.64638596484375Q7.3186859765625005,6.61156396484375,7.2777459765625,6.58420396484375Q7.2367959765625,6.55684496484375,7.1912959765625,6.53799896484375Q7.1458059765624995,6.51915396484375,7.0975059765625,6.50954596484375Q7.0492059765625,6.49993896484375,6.9999559765625,6.49993896484375L4.6666259765625,6.49993896484375Q4.6173802765625,6.49993896484375,4.5690808765625,6.50954596484375Q4.5207809765625,6.51915396484375,4.4752839765625,6.53799896484375Q4.4297869765625,6.55684496484375,4.3888409765625,6.58420396484375Q4.3478949765625,6.61156396484375,4.3130729765625,6.64638596484375Q4.2782509765625,6.68120796484375,4.2508909765625,6.72215396484375Q4.2235319765625,6.76309996484375,4.2046859765625,6.80859696484375Q4.1858409765625,6.85409396484375,4.1762329765625,6.90239386484375Q4.1666259765625,6.95069326484375,4.1666259765625,6.99993896484375Q4.1666259765625,7.04918466484375,4.1762329765625,7.09748406484375Q4.1858409765625,7.14578396484375,4.2046859765625,7.19128096484375Q4.2235319765625,7.23677796484375,4.2508909765625,7.27772396484375Q4.2782509765625,7.31866996484375,4.3130729765625,7.35349196484375Q4.3478949765625,7.38831396484375,4.3888409765625,7.41567396484375Q4.4297869765625,7.44303296484375,4.4752839765625,7.46187896484375Q4.5207809765625,7.48072396484375,4.5690808765625,7.49033196484375Q4.6173802765625,7.49993896484375,4.6666259765625,7.49993896484375Z" fill-rule="evenodd" fill="#FFFFFF" fill-opacity="1"/></g></g></svg>