<?xml version="1.0" standalone="no"?><!DOCTYPE svg PUBLIC "-//W3C//DTD SVG 1.1//EN" "http://www.w3.org/Graphics/SVG/1.1/DTD/svg11.dtd"><svg t="1665998934152" class="icon" viewBox="0 0 1103 1024" version="1.1" xmlns="http://www.w3.org/2000/svg" p-id="14011" xmlns:xlink="http://www.w3.org/1999/xlink" width="137.875" height="128"><path d="M555.122545 992.512186H34.224972A34.224972 34.224972 0 0 1 0 958.287214a476.405609 476.405609 0 0 1 596.533511-460.662622 34.224972 34.224972 0 1 1-17.111986 66.395945A407.956665 407.956665 0 0 0 68.449944 924.063242h486.673601a34.224972 34.224972 0 0 1 0 68.448944z" fill="" p-id="14012"></path><path d="M476.063609 550.672548A273.796775 273.796775 0 1 1 749.859385 276.876773a275.507774 275.507774 0 0 1-273.795776 273.795775z m0-482.223604A205.346832 205.346832 0 1 0 681.409441 273.796775 207.05883 207.05883 0 0 0 476.063609 68.448944z m593.453514 763.892373a34.224972 34.224972 0 0 1-34.224972-34.224972v-93.089923a34.224972 34.224972 0 1 1 68.449944 0v93.089923a34.224972 34.224972 0 0 1-34.224972 34.224972zM905.239257 1023.99816a34.224972 34.224972 0 0 1-17.111986-63.999947l80.427934-46.544962a34.224972 34.224972 0 1 1 34.223972 59.207951l-80.427934 46.545962a34.224972 34.224972 0 0 1-17.111986 4.790996z m-167.699862 0a34.224972 34.224972 0 0 1-17.112986-4.448996L639.999475 972.661202a34.224972 34.224972 0 1 1 34.223972-59.207951l80.427934 46.544962a34.224972 34.224972 0 0 1-17.111986 63.999947zM573.26153 832.341317a34.224972 34.224972 0 0 1-34.224972-34.224972v-93.089923a34.224972 34.224972 0 0 1 68.449944 0v93.089923a34.224972 34.224972 0 0 1-34.224972 34.224972z m83.849931-238.202804a34.224972 34.224972 0 0 1-17.111986-63.999948l80.426934-46.545962a34.224972 34.224972 0 1 1 34.224972 59.208952l-80.427934 46.886961a34.224972 34.224972 0 0 1-17.111986 4.449997z m328.55573 0a34.224972 34.224972 0 0 1-17.111986-4.449997l-80.427934-46.544962a34.224972 34.224972 0 0 1 34.223972-59.207951l80.427934 46.544962a34.224972 34.224972 0 0 1-17.111986 63.999947z" fill="" p-id="14013"></path><path d="M904.897258 1023.99916a34.224972 34.224972 0 0 1-30.801975-19.165984 58.865952 58.865952 0 0 0-105.753913 0 34.224972 34.224972 0 0 1-61.26195-30.117976 127.314896 127.314896 0 0 1 228.619812 0 34.224972 34.224972 0 0 1-30.801974 49.28296zM821.389326 599.613508a126.629896 126.629896 0 0 1-114.309906-71.187941 34.224972 34.224972 0 0 1 61.603949-30.116976 58.865952 58.865952 0 0 0 105.753914 0 34.224972 34.224972 0 1 1 61.603949 30.116976 126.288896 126.288896 0 0 1-114.651906 71.187941z m241.624802 139.635886a127.314896 127.314896 0 0 1-104.726914-198.159838 34.224972 34.224972 0 1 1 56.812953 38.330969 58.865952 58.865952 0 0 0 51.336958 91.721924 34.224972 34.224972 0 1 1 2.737998 68.449944zM656.769461 977.109198a34.224972 34.224972 0 0 1-28.406976-53.046956 58.865952 58.865952 0 0 0-52.705957-91.379925 34.224972 34.224972 0 0 1-4.448997-68.449944 127.314896 127.314896 0 0 1 113.283908 197.818838 34.224972 34.224972 0 0 1-27.721978 15.058987z m-77.005937-237.859804h-8.897992a34.224972 34.224972 0 0 1 4.449996-68.449944 58.865952 58.865952 0 0 0 52.704957-91.378925 34.224972 34.224972 0 1 1 56.469954-38.330969A127.314896 127.314896 0 0 1 579.079525 739.249394zM986.009191 977.109198a34.224972 34.224972 0 0 1-28.405977-15.057987 127.314896 127.314896 0 0 1 114.309907-197.817838 34.224972 34.224972 0 0 1 31.828974 36.27797 34.224972 34.224972 0 0 1-36.277971 31.828974 58.865952 58.865952 0 0 0-53.048956 91.721925 34.224972 34.224972 0 0 1-28.405977 53.389956zM821.389326 863.144292A111.571908 111.571908 0 1 1 932.961235 752.939382 111.913908 111.913908 0 0 1 821.389326 863.143292z m0-155.037873a43.122965 43.122965 0 1 0 43.122965 44.834963 43.464964 43.464964 0 0 0-43.122965-44.834963z" fill="" p-id="14014"></path></svg>