<svg xmlns="http://www.w3.org/2000/svg" xmlns:xlink="http://www.w3.org/1999/xlink" fill="" version="1.1" width="15.15789794921875" height="18" viewBox="0 0 15.15789794921875 18"><g><g><path d="M11.8627,0.983302L8.3947,0.983302Q8.40496,0.953039,8.3947,0L7.42226,0Q7.41347,0.959088,7.42226,0.983302L3.2952,0.983302C1.47478,0.983302,0,2.50816,0,4.38702L0,10.5137C0,12.3941,1.47478,13.9174,3.2952,13.9174L5.69264,13.9174L2.73138,17.2364C2.57027,17.4165,2.61567,17.6706,2.8295,17.8068C3.04333,17.9429,3.30108,17.9036,3.46217,17.7235L6.85695,13.9174L7.24944,13.9174L7.24944,16.6404C7.24944,16.828,7.34756,16.9808,7.52916,16.9808L7.85868,16.9808C8.04028,16.9808,8.1384,16.828,8.1384,16.6404L8.1384,13.9174L8.50307,13.9174L12.0018,17.8325C12.1659,18.017,12.4295,18.0548,12.6506,17.9172C12.8718,17.7795,12.9172,17.5193,12.7531,17.3348L9.6996,13.9174L11.8627,13.9174C13.6831,13.9174,15.1579,12.3926,15.1579,10.5137L15.1579,4.38702C15.1594,2.50666,13.6831,0.983303,11.8627,0.983302ZM14.2689,10.5152C14.2689,11.8313,13.1368,13.0007,11.8627,13.0007L3.29522,13.0007C2.02107,13.0007,0.888998,11.8313,0.888998,10.5152L0.888998,4.38852C0.888998,3.07242,2.02107,1.90306,3.29522,1.90306L11.8627,1.90306C13.1369,1.90306,14.2689,3.07243,14.2689,4.38852L14.2689,10.5152L14.2689,10.5152Z" fill="" fill-opacity="1"/></g><g><path d="M4.2647223472595215,10.601415561065675C4.2647223472595215,10.608995561065674,4.272064757259521,10.616545561065674,4.279371947259522,10.616545561065674L5.079005347259521,10.616545561065674C5.0863473472595215,10.616545561065674,5.093655347259522,10.608975561065673,5.093655347259522,10.601415561065675L5.093655347259522,7.802805561065673C5.0936353472595215,7.794455561065673,5.087088347259521,7.787695561065673,5.079005347259521,7.787675561065674L4.279371947259522,7.787675561065674C4.271296007259521,7.787705561065674,4.264758624559522,7.794465561065674,4.2647399523595215,7.802805561065673L4.2647399523595215,10.601415561065675L4.2647223472595215,10.601415561065675ZM8.131082347259522,10.601415561065675C8.131092347259521,10.609765561065675,8.137642347259522,10.616525561065675,8.145732347259521,10.616545561065674L8.945362347259522,10.616545561065674C8.952702347259521,10.616545561065674,8.960012347259521,10.608975561065673,8.960012347259521,10.601415561065675L8.960012347259521,8.115955561065674C8.960012347259521,8.108365561065675,8.952682347259522,8.100825561065674,8.945362347259522,8.100825561065674L8.145732347259521,8.100825561065674C8.137652347259522,8.100855561065673,8.13111234725952,8.107615561065675,8.131092347259521,8.115955561065674L8.131092347259521,10.601415561065675L8.131082347259522,10.601415561065675ZM6.197922347259522,10.601415561065675C6.197932347259521,10.609755561065674,6.204472347259522,10.616515561065674,6.212552347259521,10.616545561065674L7.012182347259522,10.616545561065674C7.019522347259521,10.616545561065674,7.026832347259521,10.608975561065673,7.026832347259521,10.601415561065675L7.026832347259521,6.544185561065674C7.026832347259521,6.536625561065674,7.019512347259521,6.5290555610656735,7.012182347259522,6.5290555610656735L6.212552347259521,6.5290555610656735C6.204472347259522,6.529085561065674,6.197932347259521,6.535845561065674,6.197922347259522,6.544185561065674L6.197922347259522,10.601415561065675ZM10.065722347259522,10.601415561065675C10.065742347259523,10.609765561065675,10.072292347259522,10.616525561065675,10.080372347259521,10.616545561065674L10.880012347259521,10.616545561065674C10.888092347259523,10.616525561065675,10.894642347259522,10.609765561065675,10.894662347259523,10.601415561065675L10.894662347259523,4.973937661065674C10.894642347259522,4.965588571065674,10.888092347259523,4.958824848165674,10.880012347259521,4.958805561065674L10.080372347259521,4.958805561065674C10.072292347259522,4.958824848165674,10.065742347259523,4.965588571065674,10.065722347259522,4.973937661065674L10.065722347259522,10.601415561065675Z" fill="" fill-opacity="1"/></g></g></svg>