<svg width="24" height="24" xmlns="http://www.w3.org/2000/svg"><path d="M19.689 4.123H16.05a2.824 2.824 0 00-5.56.707 2.824 2.824 0 005.56.708h3.638c.39 0 .707.317.707.707v6.368c0 .391-.317.708-.707.708h-6.722a.708.708 0 000 1.415h6.722c1.172 0 2.122-.95 2.122-2.123V6.245c0-1.172-.95-2.122-2.122-2.122zM13.32 6.245a1.415 1.415 0 110-2.83 1.415 1.415 0 010 2.83z" ></path><path d="M18.981 16.15c-1.269 0-2.33.842-2.69 1.992H9.076a.705.705 0 01-.701-.678 2.823 2.823 0 00-.714-5.558 2.817 2.817 0 00-2.437 1.415h-1.1a.708.708 0 01-.708-.708V6.245c0-.39.317-.707.708-.707h4.599a.708.708 0 000-1.415h-4.6C2.95 4.123 2 5.073 2 6.245v6.368c0 1.173.95 2.123 2.123 2.123h.707a2.823 2.823 0 002.126 2.731 2.121 2.121 0 002.12 2.09h7.134a2.83 2.83 0 102.771-3.406zM6.245 14.737a1.415 1.415 0 112.831 0 1.415 1.415 0 01-2.83 0zm12.736 5.66a1.415 1.415 0 110-2.83 1.415 1.415 0 010 2.83z" ></path></g></svg>